<?xml version="1.0" encoding="utf-8"?>
<!-- Generator: Adobe Illustrator 27.5.0, SVG Export Plug-In . SVG Version: 6.00 Build 0)  -->
<svg version="1.1" id="Layer_1" xmlns="http://www.w3.org/2000/svg" xmlns:xlink="http://www.w3.org/1999/xlink" x="0px" y="0px"
	 viewBox="0 0 93 45" style="enable-background:new 0 0 93 45;" xml:space="preserve">
<style type="text/css">
	.st0{opacity:0.32;}
	.st1{fill:#969696;stroke:#969696;stroke-width:0.25;stroke-miterlimit:10;}
	.st2{fill:#969696;}
	.st3{fill:#2A3D97;stroke:#2A3D97;stroke-width:0.25;stroke-miterlimit:10;}
	.st4{fill:#2A3D97;}
	.st5{fill:#C79C2C;}
</style>
<g id="Layer_1_00000013167259887595052820000004141008991074909107_">
	<g class="st0">
		<path class="st1" d="M6.14,19.18c-0.06-0.13,0.76-0.72,3.7-2.34c0.05-0.03,0.1,0.03,0.07,0.08c-0.22,0.26-0.47,0.63-0.61,1.1
			c-0.15,0.47-0.13,0.86-0.13,1.06c0.03,0.96,0.06,2.32,0.12,3.98c0,0.03,0.03,0.06,0.06,0.05l2.74-0.57c0.02,0,0.04-0.03,0.04-0.05
			c0.04-1.57,0.04-3.17,0-4.81c0-0.1,0.12-0.42-0.02-0.72c-0.16-0.33-0.54-0.49-0.86-0.56c-0.05-0.01-0.05-0.07-0.01-0.1l3.29-1.8
			c0.05-0.03,0.1,0.03,0.07,0.08c-0.18,0.22-0.35,0.51-0.48,0.87c-0.12,0.37-0.14,0.68-0.15,0.87c-0.02,0.81,0.11,5.34,0.34,11.54
			c0,0.03,0.02,0.05,0.05,0.05c0.26,0.03,0.53,0.06,0.8,0.08c0.12,0.01,0.25,0.02,0.37,0.03c0.05,0,0.07,0.07,0.02,0.1l-3.52,1.85
			c-0.05,0.02-0.1-0.03-0.07-0.07c0.25-0.4,0.3-0.73,0.3-0.96c0-0.13-0.02-0.23-0.03-0.54c-0.01-0.39,0-0.67,0-0.78
			c0.01-0.37,0.02-1.58,0-4.57c0-0.05-0.06-0.07-0.09-0.04c-0.13,0.13-0.3,0.32-0.47,0.56c-0.39,0.57-0.38,0.89-0.65,1.12
			c-0.21,0.18-0.62,0.32-1.5,0.05c-0.02-0.02-0.05,0-0.05,0.04l0.2,5.43c0,0.02,0.02,0.05,0.04,0.05l0.56,0.09
			c0.05,0.01,0.06,0.07,0.02,0.09l-2.82,1.92c-0.04,0.03-0.09-0.01-0.08-0.05c0.05-0.24,0.11-0.57,0.17-0.95
			c0.29-1.88,0.42-4.46,0-4.55c-0.32-0.07-0.84,1.36-0.97,1.31C6.5,28.09,6.7,27.45,7.05,26.2c0.24-0.87,0.36-1.31,0.4-1.48
			c0.49-2.3-0.21-3.59-0.21-4.96c0-0.07,0-0.23-0.1-0.37C6.86,19.05,6.19,19.29,6.14,19.18z"/>
		<path class="st1" d="M16.93,23.88c-0.04,0.59-0.03,0.83,0.03,1.01c0.15,0.45,0.87,0.88,1.49,1.04c1.17,0.3,2.17-0.19,2.3-0.26
			c0.19-0.1,1.43-0.73,1.66-2c0.06-0.33,0.03-0.62,0-0.82c-0.01-0.04-0.01-0.07-0.01-0.11l-0.26-5.38c0-0.06,0-0.12,0-0.19
			c0-0.1,0.01-0.2,0.02-0.29c0.01-0.13,0.04-0.34,0.16-0.54c0.04-0.06,0.08-0.11,0.11-0.16c0.13-0.21,0.34-0.31,0.57-0.53
			c0.22-0.21,0.32-0.33,0.29-0.39c-0.06-0.12-0.54,0.04-1.26,0.2c-1.17,0.26-1.92,0.3-1.91,0.42c0,0.06,0.19,0.06,0.65,0.26
			c0.24,0.11,0.38,0.16,0.5,0.27c0.09,0.08,0.32,0.32,0.33,0.87l0.34,5.49c0,0.02,0,0.04,0.01,0.06c0.02,0.17,0.04,0.43-0.05,0.72
			c-0.14,0.47-0.45,0.75-0.71,0.98c-0.18,0.16-0.44,0.39-0.84,0.54c-0.3,0.11-0.86,0.34-1.35,0.08c0,0,0,0-0.01,0
			c-0.25-0.13-0.4-0.41-0.4-0.7l0.07-6.98c0-0.06,0.01-0.15,0.05-0.26c0.08-0.27,0.23-0.39,0.44-0.68c0.21-0.29,0.31-0.43,0.29-0.48
			c-0.06-0.11-0.7,0.03-3.24,1.13c-0.04,0.02-0.08,0.04-0.12,0.07c-0.11,0.07-0.25,0.18-0.22,0.26c0.01,0.04,0.07,0.07,0.41,0.12
			c0.47,0.07,0.6,0.05,0.69,0.15c0.11,0.12,0.07,0.32,0.05,0.4C16.98,18.2,16.89,18.64,16.93,23.88"/>
		<path class="st1" d="M27.4,15.69c-0.58-0.53-1.3-0.61-1.55-0.63c-0.27-0.02-0.88-0.05-1.47,0.33c-0.67,0.43-1.05,1.02-1.13,1.28
			c-0.1,0.32-0.16,1.14,0.17,1.67c0.64,1.04,2.77,0.65,2.77,0.68c0,0.02-0.42,0.03-1.36-0.2c-0.5-0.12-0.92-0.31-1.13-0.72
			c-0.26-0.52-0.15-1.15-0.03-1.4c0.12-0.27,0.46-0.65,0.9-0.82c0.52-0.2,1.02,0.08,1.18,0.17c0.59,0.32,0.86,0.89,0.98,1.15
			c0.96,2.09,1.44,3.13,1.74,3.92c0.74,1.95,1.12,2.93,1.42,2.88c0.41-0.06,0.51-1.87,0.57-3.12c0.03-0.53,0.07-1.28,0.02-2.31
			c-0.1-1.97-0.16-2.92,0.06-3.86c0.16-0.67,0.7-0.64,0.58-0.77c-0.07-0.08-0.3,0.06-0.92,0.3c-0.85,0.34-1.47,0.5-1.45,0.59
			c0.02,0.1,0.66-0.05,0.88,0.27c0.08,0.11,0.08,0.25,0.07,0.34l0.2,4.93c0,0.12-0.16,0.16-0.21,0.06
			c-0.62-1.14-0.88-2.05-1.36-3.21C28.11,16.56,27.89,16.13,27.4,15.69z"/>
		<path class="st1" d="M25.43,15.56c-0.03,5.42,0,7.39,0.04,7.67c0,0.03,0.02,0.14,0,0.28c-0.05,0.3-0.25,0.51-0.35,0.6
			c-0.56,0.56-1.07,0.82-1.05,0.9c0.08,0.27,3.8-0.41,3.77-0.69c-0.01-0.06-0.18-0.08-1.07-0.43c-0.13-0.05-0.29-0.12-0.39-0.28
			c-0.13-0.21-0.08-0.46-0.06-0.52c0.08-0.44,0.06-3.29-0.01-7.42L25.43,15.56z"/>
		<path class="st1" d="M37.62,15.79c-0.21,0.11-0.6-0.68-1.52-1.22c-0.32-0.18-1.2-0.69-2.09-0.38c-0.77,0.27-1.12,1.02-1.25,1.29
			c-0.12,0.25-0.31,0.65-0.27,1.18c0.01,0.07,0.09,0.91,0.8,1.45c0.73,0.55,1.7,0.45,2.32,0.15c1.05-0.51,1.37-1.72,1.56-1.64
			c0.13,0.06,0.01,0.64-0.15,1.03c-0.24,0.59-0.64,0.92-0.72,0.99c-0.58,0.47-1.22,0.51-1.63,0.53c-0.55,0.03-1.45,0.09-2.17-0.53
			c-0.73-0.63-0.81-1.54-0.84-1.86c-0.1-1.13,0.46-1.95,0.61-2.17c0.63-0.9,1.51-1.21,1.75-1.29c0.54-0.18,0.85-0.13,2.02-0.15
			c1.47-0.02,2.3-0.35,2.4-0.11c0.07,0.16-0.3,0.28-0.53,0.87c-0.14,0.35-0.16,0.7-0.19,1.07C37.65,15.57,37.71,15.74,37.62,15.79z"
			/>
		<path class="st1" d="M36.14,14.87c0.07,0.02,0.11,0.08,0.13,0.12l0.11,6.99c-0.01,0.06-0.01,0.14,0.03,0.23
			c0.16,0.38,0.81,0.35,0.82,0.45c0.02,0.25-3.73,0.8-3.77,0.59c-0.02-0.09,0.57-0.19,0.84-0.72c0.06-0.13,0.09-0.25,0.1-0.32v-5.83
			c-0.02-0.12-0.04-0.29,0.05-0.45c0.14-0.28,0.42-0.22,0.87-0.51C35.77,15.14,35.93,14.8,36.14,14.87z"/>
		<path class="st1" d="M44.68,13.99c-0.16-0.07-0.35,0.29-0.79,0.6c-0.53,0.37-1.05,0.43-1.03,0.59c0.01,0.05,0.07,0.05,0.17,0.16
			c0.14,0.15,0.21,0.3,0.24,0.38c0.13,0.31,0.1,0.63,0.1,0.72c-0.07,0.8,0,1.61-0.01,2.41c-0.01,0.41-0.01,0.62-0.01,0.85
			c0,0.57-0.02,1.14-0.01,1.71c0,0.13,0,0.18-0.02,0.26c-0.15,0.54-0.96,0.64-0.95,0.75c0.01,0.1,0.66,0.19,3.29,0.14
			c-0.19-0.07-0.45-0.19-0.6-0.44c-0.16-0.26-0.14-0.53-0.13-0.65c0,0,0.28-3.9-0.12-7.26C44.79,14.16,44.77,14.03,44.68,13.99z"/>
		<path class="st1" d="M44.24,21.75c0.08-0.18,0.86,0.22,1.94-0.01c0.34-0.07,0.62-0.13,0.87-0.34c0.87-0.7,0.87-2.64-0.08-3.54
			c-0.39-0.37-0.88-0.5-0.91-0.51c-0.75-0.2-1.39,0.12-1.44,0c-0.03-0.08,0.22-0.28,0.5-0.35c0.27-0.07,0.45,0.02,0.69,0.07
			c0.41,0.08,1.11,0.06,1.38-0.29c0.35-0.45-0.12-1.31-0.21-1.47c-0.26-0.48-0.5-0.81-0.89-1.11c-0.43-0.32-0.77-0.44-1.09-0.54
			c-0.97-0.29-1.83,0.3-1.88,0.34c-0.49,0.35-0.71,0.81-0.82,1.05c-0.08,0.16-0.2,0.43-0.23,0.8c-0.02,0.22-0.07,0.76,0.2,1.14
			c0.46,0.65,1.6,0.43,1.61,0.61c0.01,0.13-0.59,0.37-1.17,0.25c-0.54-0.11-0.85-0.49-0.94-0.61c-0.26-0.34-0.3-0.69-0.34-0.95
			c-0.14-1.12,0.44-1.99,0.51-2.11c0.57-0.84,1.37-1.15,1.64-1.24c1.11-0.37,2.06,0,2.65,0.22c0.68,0.26,1.54,0.59,1.93,1.47
			c0.34,0.76,0.14,1.49,0.11,1.6c-0.19,0.65-0.63,1.05-0.77,1.17c-0.02,0.01-0.11,0.03-0.12,0.09s0.07,0.12,0.09,0.14
			c0.2,0.21,0.4,0.36,0.54,0.53c0.22,0.28,0.4,0.53,0.53,0.89c0.08,0.21,0.33,0.89,0.08,1.71c-0.24,0.8-0.79,1.24-0.96,1.36
			c-0.72,0.54-1.77,0.77-2.62,0.39C44.56,22.28,44.17,21.89,44.24,21.75z"/>
		<path class="st1" d="M54.08,13.42c0,0.12-0.88-0.04-1.59,0.49c-0.22,0.16-0.63,0.54-0.95,1.89c-0.22,0.93-0.6,2.67,0.14,4.67
			c0.24,0.66,0.75,2.03,1.51,2.05c0.58,0.02,1.04-0.74,1.24-1.08c1.56-2.59,0.02-6.31-0.78-7.02c-0.04-0.04-0.25-0.22-0.22-0.26
			c0.05-0.08,0.82,0.26,1.24,0.54c1.83,1.25,1.49,4.58,1.44,4.99c-0.09,0.77-0.22,1.79-1.01,2.6c-0.23,0.23-0.79,0.81-1.64,0.84
			c-0.74,0.03-1.27-0.38-1.59-0.63c-0.93-0.71-1.25-1.69-1.47-2.36c-0.36-1.09-0.34-1.99-0.31-2.67c0.03-0.76,0.05-1.47,0.41-2.31
			c0.24-0.56,0.63-1.47,1.54-1.85C53.01,12.89,54.09,13.29,54.08,13.42z"/>
		<path class="st1" d="M59.06,19.19c-0.02,0.35,0.07,1.48-0.1,2.43c-0.03,0.18-0.06,0.47-0.12,0.88c0,0.03,0.01,0.08-0.01,0.15
			c-0.16,0.52-1.5,0.39-1.52,0.56c-0.04,0.3,4.1,1.22,4.21,0.88c0.01-0.04-0.1-0.14-0.31-0.34c-0.42-0.4-0.59-0.46-0.7-0.69
			c-0.09-0.19-0.07-0.36-0.06-0.59c0.07-0.93,0.09-2.67,0.08-2.97c0-0.04-0.01-0.15,0.03-0.29c0.04-0.15,0.12-0.25,0.14-0.27
			c0.27-0.37,1.99-3.22,2.18-3.54c0.03-0.05,0.08-0.14,0.17-0.23c0.5-0.51,1.34-0.35,1.35-0.4c0.01-0.09-3.55-0.37-3.55-0.29
			c0,0.03,0.51,0.03,0.77,0.39c0.09,0.13,0.12,0.26,0.14,0.32c0.07,0.31-0.04,0.59-0.09,0.71c-0.79,1.88-1.18,2.82-1.44,2.77
			c-0.15-0.03-0.16-0.23-0.34-0.74c-0.53-1.5-1.35-2.46-1.2-3.21c0.02-0.11,0.06-0.18,0.08-0.22c0.26-0.44,0.96-0.37,0.97-0.46
			c0.02-0.21-3.84-0.78-3.9-0.5c-0.01,0.03,0.12,0.12,0.36,0.29c0.39,0.27,0.53,0.34,0.66,0.45c0.28,0.22,0.4,0.5,0.54,0.83
			c0.52,1.2,0.94,2.45,1.54,3.61c0.01,0.01,0.04,0.08,0.07,0.18c0.03,0.08,0.03,0.14,0.04,0.16C59.06,19.12,59.06,19.17,59.06,19.19
			z"/>
		<path class="st1" d="M69.2,18.99c0.15-0.06-0.07-0.59,0.14-1.34c0.19-0.68,0.61-1.09,0.52-1.18c-0.07-0.06-0.27,0.2-0.6,0.25
			c-0.52,0.07-0.84-0.47-1.42-0.88c-1.03-0.72-2.23-0.59-2.41-0.57c-0.3,0.04-1.33,0.15-2.02,1.04c-0.66,0.84-0.57,1.81-0.55,2.05
			c0.11,0.99,0.7,1.61,0.96,1.89c0.92,0.98,2.08,1.16,3.17,1.34c0.33,0.05,1.65,0.27,1.81-0.11c0.06-0.15-0.12-0.28-0.49-0.88
			c-0.47-0.76-0.58-1.23-0.77-1.2c-0.15,0.02-0.11,0.34-0.38,0.63c-0.28,0.3-0.69,0.33-0.96,0.36c-0.75,0.06-1.71-0.23-2.33-1.01
			c-0.15-0.19-0.59-0.75-0.55-1.56c0.01-0.11,0.08-1.09,0.85-1.59c0.83-0.54,1.84-0.12,2.22,0.03c0.89,0.36,1.46,1.07,1.86,1.56
			C68.78,18.48,69.04,19.05,69.2,18.99z"/>
		<path class="st1" d="M66.16,16.72c-0.24,0.04-1.86,0.38-1.81,0.79c0.02,0.12,0.16,0.12,0.3,0.36c0.12,0.2,0.13,0.39,0.14,0.52
			c0.06,1.23-0.06,4.5-0.11,5.45c0,0.03,0.02,0.09-0.01,0.17c-0.12,0.38-0.99,0.29-1,0.41c-0.04,0.29,5.53,1.19,6.36,1.66
			c0.01,0,0.21,0.12,0.25,0.07c0.05-0.06-0.22-0.28-0.36-0.65c-0.09-0.23-0.09-0.42-0.09-0.58c-0.01-1.86-0.04-2.24-0.12-2.25
			c-0.1-0.02-0.17,0.57-0.68,1.22c-0.19,0.24-0.49,0.61-0.99,0.81c-0.61,0.24-1.46,0.21-1.68-0.19c-0.11-0.19-0.03-0.41-0.03-0.48
			c0.02-1.27,0.1-2.18,0.09-3.28c-0.01-2.61-0.11-3.53-0.03-3.8c0.01-0.02,0.04-0.13-0.01-0.19C66.33,16.7,66.23,16.71,66.16,16.72z
			"/>
		<path class="st1" d="M73.77,16.01c-0.17-0.13-0.48,0.21-1.14,0.41c-0.88,0.26-1.62,0.05-1.66,0.22c-0.02,0.11,0.3,0.18,0.49,0.54
			c0.13,0.25,0.11,0.49,0.11,0.6c-0.02,0.48,0.04,7.54-0.01,8.94c0,0.03,0,0.17-0.05,0.26c-0.17,0.34-1.21,0-1.28,0.16
			c-0.14,0.32,3.85,2.44,4.02,2.17c0.01-0.02-0.01-0.04-0.22-0.39c-0.36-0.59-0.42-0.73-0.45-0.91c-0.04-0.24-0.03-0.55-0.03-0.63
			c-0.01-0.61,0.05-1.9,0.02-7.32c-0.01-1.67,0.03-2.84,0.11-3.14C73.74,16.64,73.95,16.15,73.77,16.01z"/>
		<path class="st1" d="M72.68,21.86c0.03-0.12,0.84,0.18,1.89-0.07c0.61-0.15,0.88-0.38,1.13-0.22c0.25,0.15,0.21,0.52,0.25,1.21
			c0.02,0.41,0.13,1.01,0.33,2.23c0,0,0.15,0.9,0.45,1.94c0.77,2.73,2.51,4.05,2.2,4.4c-0.21,0.24-1.06-0.37-3.55-1.87
			c-0.03-0.02-0.13-0.06-0.18-0.17c-0.07-0.17-0.09-0.45-0.08-0.53c0.02-0.59-0.04-1.59-0.26-3.8c-0.11-1.18-0.18-1.77-0.52-2.17
			C73.7,22.07,72.65,21.99,72.68,21.86z"/>
		<path class="st1" d="M75.53,23.46c0.85-0.21,1.25-0.6,1.44-0.85c1.2-1.55,0.45-4.51-1.15-6.24c-0.72-0.78-1.85-1.47-2.59-1.68
			c-0.23-0.06-1.17-0.33-2.01,0.21c-0.7,0.44-0.91,1.17-1.03,1.58c-0.05,0.18-0.39,1.43,0.25,2.61c0.61,1.11,1.7,1.47,1.6,1.67
			c-0.08,0.16-0.77,0.08-1.3-0.27c-0.61-0.4-0.8-1.03-0.98-1.6c-0.14-0.45-0.47-1.53-0.07-2.82c0.15-0.49,0.39-1.27,1.05-1.76
			c1.54-1.15,4.05,0.18,4.33,0.32c2.1,1.1,3.1,2.66,3.49,3.67c0.46,1.2,0.65,2.72,0.22,3.86c-0.66,1.75-2.74,2.27-3.02,2.34
			L75.53,23.46z"/>
		<path class="st1" d="M35.82,29.01c0,0.1,0.04,0.17,0.1,0.2s0.2,0.07,0.39,0.1c0.05,0.01,0.08,0.04,0.08,0.1
			c0,0.04,0,0.08-0.01,0.13c-0.12-0.01-0.27-0.01-0.44-0.01s-0.32,0-0.45,0c-0.14,0-0.28,0.01-0.44,0.03
			c-0.15,0.01-0.31,0.03-0.45,0.04c-0.01-0.05-0.02-0.09-0.02-0.13c0-0.06,0.02-0.09,0.07-0.11c0.18-0.04,0.31-0.08,0.37-0.12
			c0.07-0.04,0.1-0.11,0.1-0.21l-0.06-1.79l-2.33,0.08l0.06,1.79c0,0.1,0.04,0.17,0.1,0.2s0.2,0.07,0.39,0.1
			c0.05,0.01,0.08,0.04,0.08,0.1c0,0.04,0,0.08-0.01,0.13c-0.13-0.01-0.28-0.01-0.45-0.01c-0.17,0-0.32,0-0.45,0
			c-0.14,0-0.28,0.01-0.44,0.03c-0.15,0.01-0.31,0.03-0.46,0.04c-0.01-0.05-0.02-0.09-0.02-0.13c0-0.06,0.02-0.09,0.07-0.11
			c0.19-0.04,0.31-0.08,0.38-0.12s0.1-0.11,0.1-0.21l-0.12-3.77c0-0.05-0.01-0.09-0.02-0.12s-0.04-0.06-0.07-0.08
			c-0.04-0.02-0.08-0.04-0.15-0.06c-0.06-0.02-0.14-0.03-0.24-0.05c-0.05,0-0.08-0.04-0.08-0.12c0-0.03,0-0.08,0.01-0.13
			c0.12,0.01,0.27,0.01,0.43,0.01s0.31,0,0.44,0c0.14,0,0.28-0.01,0.44-0.02c0.15-0.01,0.3-0.03,0.45-0.04
			c0.01,0.05,0.02,0.09,0.02,0.13c0,0.07-0.02,0.11-0.07,0.12c-0.19,0.04-0.32,0.08-0.38,0.12c-0.06,0.05-0.09,0.12-0.09,0.22
			L32.71,27l2.33-0.08l-0.06-1.66c0-0.08-0.03-0.15-0.1-0.2c-0.06-0.05-0.19-0.09-0.38-0.11c-0.05,0-0.08-0.04-0.08-0.12
			c0-0.03,0-0.08,0.01-0.13c0.12,0.01,0.27,0.01,0.43,0.01c0.17,0,0.31,0,0.45,0s0.28-0.01,0.43-0.02s0.3-0.03,0.45-0.04
			c0.01,0.05,0.02,0.09,0.02,0.13c0,0.07-0.02,0.11-0.07,0.12c-0.19,0.04-0.32,0.08-0.38,0.12c-0.06,0.05-0.09,0.12-0.09,0.22
			L35.82,29.01z"/>
		<path class="st1" d="M37,27.08c-0.01-0.34,0.04-0.66,0.15-0.97s0.27-0.58,0.48-0.81s0.45-0.42,0.72-0.57
			c0.28-0.14,0.57-0.22,0.88-0.23c0.43-0.01,0.81,0.04,1.13,0.17c0.33,0.12,0.6,0.3,0.81,0.52c0.22,0.22,0.38,0.48,0.5,0.78
			c0.11,0.3,0.18,0.61,0.19,0.94c0.01,0.39-0.04,0.74-0.16,1.06c-0.12,0.31-0.29,0.58-0.5,0.8s-0.48,0.4-0.78,0.52
			s-0.62,0.19-0.97,0.2c-0.35,0.01-0.67-0.04-0.97-0.15c-0.29-0.11-0.55-0.27-0.77-0.48s-0.39-0.47-0.52-0.77
			C37.08,27.79,37.01,27.45,37,27.08z M39.62,29.14c0.23-0.01,0.44-0.06,0.63-0.16c0.19-0.09,0.35-0.22,0.48-0.39
			c0.13-0.16,0.23-0.35,0.3-0.57s0.1-0.46,0.09-0.71c-0.01-0.36-0.06-0.69-0.14-0.99c-0.08-0.3-0.21-0.56-0.36-0.78
			c-0.16-0.22-0.35-0.39-0.59-0.51c-0.23-0.12-0.5-0.18-0.81-0.17c-0.2,0.01-0.39,0.05-0.58,0.13c-0.18,0.08-0.34,0.2-0.48,0.35
			s-0.24,0.33-0.32,0.55c-0.08,0.21-0.11,0.46-0.1,0.74c0.01,0.37,0.06,0.7,0.15,1.02c0.09,0.31,0.21,0.58,0.37,0.8
			c0.16,0.23,0.35,0.4,0.58,0.52C39.08,29.09,39.34,29.14,39.62,29.14z"/>
		<path class="st1" d="M47.04,24.47c0.01-0.02,0.02-0.04,0.03-0.06c0.01-0.02,0.03-0.04,0.06-0.05c0.03-0.01,0.07-0.02,0.12-0.03
			s0.12-0.01,0.21-0.02c0.04,0,0.09,0,0.16-0.01c0.06,0,0.13-0.01,0.21-0.01c0.07-0.01,0.15-0.01,0.23-0.02
			c0.08-0.01,0.15-0.01,0.21-0.02c0.01,0.05,0.02,0.09,0.02,0.12c0,0.08-0.02,0.12-0.07,0.13c-0.18,0.03-0.29,0.07-0.35,0.11
			s-0.09,0.1-0.08,0.17c0,0,0.01,0.07,0.02,0.2c0.01,0.13,0.03,0.34,0.05,0.63c0.02,0.29,0.06,0.68,0.09,1.17
			c0.04,0.49,0.08,1.09,0.14,1.82c0.01,0.09,0.04,0.16,0.1,0.21c0.06,0.04,0.18,0.08,0.37,0.1c0.02,0,0.04,0.02,0.06,0.04
			c0.01,0.02,0.02,0.05,0.02,0.08s0,0.07-0.01,0.12c-0.17,0-0.33-0.01-0.47-0.01s-0.27,0-0.39,0c-0.05,0-0.11,0-0.18,0.01
			c-0.07,0-0.15,0.01-0.23,0.01c-0.08,0.01-0.16,0.01-0.24,0.02s-0.15,0.01-0.21,0.02c-0.01-0.05-0.02-0.09-0.02-0.12
			c0-0.08,0.02-0.12,0.07-0.12c0.2-0.05,0.33-0.09,0.4-0.13c0.07-0.04,0.1-0.11,0.1-0.2c0-0.01-0.01-0.11-0.02-0.27
			s-0.03-0.37-0.05-0.61s-0.04-0.5-0.06-0.79c-0.02-0.28-0.04-0.55-0.06-0.8s-0.04-0.46-0.06-0.64s-0.02-0.29-0.03-0.33l-1.49,3.98
			c-0.02,0.05-0.04,0.08-0.05,0.1c-0.02,0.02-0.04,0.03-0.07,0.04c-0.03,0-0.06,0-0.07,0l-1.95-4.11c0,0.05-0.01,0.17-0.01,0.36
			s0,0.42-0.01,0.68c0,0.26-0.01,0.54-0.01,0.83c0,0.29-0.01,0.56-0.01,0.81s-0.01,0.45-0.01,0.62s0,0.26,0,0.27
			c0.01,0.15,0.18,0.25,0.51,0.3c0.05,0,0.08,0.04,0.08,0.12c0,0.03,0,0.07-0.01,0.12c-0.13-0.01-0.26-0.01-0.39-0.01
			s-0.24,0-0.34,0c-0.08,0-0.19,0.01-0.32,0.02s-0.26,0.03-0.38,0.04c-0.01-0.05-0.02-0.09-0.02-0.12c0-0.07,0.02-0.11,0.07-0.12
			c0.13-0.03,0.24-0.07,0.32-0.12c0.08-0.05,0.12-0.12,0.13-0.22c0-0.04,0-0.17,0-0.38s0.01-0.45,0.01-0.73
			c0-0.28,0.01-0.58,0.01-0.9s0.01-0.61,0.01-0.88c0-0.27,0.01-0.49,0.01-0.67s0-0.27,0-0.27c0-0.08-0.04-0.14-0.1-0.17
			c-0.06-0.04-0.18-0.06-0.36-0.09c-0.05,0-0.08-0.04-0.08-0.12c0-0.03,0-0.07,0.01-0.12c0.06,0,0.14,0.01,0.22,0.01s0.16,0,0.24,0
			s0.16,0,0.23,0s0.13,0,0.18,0c0.09,0,0.16,0,0.21,0c0.05,0.01,0.09,0.01,0.12,0.02s0.05,0.02,0.06,0.04
			c0.01,0.02,0.02,0.04,0.04,0.06l1.71,3.65L47.04,24.47z"/>
		<path class="st1" d="M50.46,24.52l0.06,1.9l1.16-0.04c0.1,0,0.17-0.05,0.21-0.15s0.07-0.22,0.09-0.36c0.01-0.06,0.06-0.1,0.13-0.1
			c0.01,0,0.03,0,0.06,0.01c0.02,0,0.04,0.01,0.06,0.01c-0.01,0.11-0.01,0.23-0.01,0.37c0,0.14,0,0.26,0,0.36
			c0,0.08,0.01,0.19,0.02,0.31s0.02,0.26,0.04,0.41c-0.04,0.01-0.08,0.02-0.11,0.02c-0.08,0-0.13-0.03-0.14-0.09
			c-0.03-0.14-0.07-0.25-0.11-0.35s-0.12-0.14-0.22-0.14l-1.16,0.04l0.06,1.75c0,0.1,0.07,0.17,0.21,0.2
			c0.13,0.03,0.35,0.04,0.66,0.03l0.41-0.01c0.14,0,0.27-0.03,0.37-0.08c0.1-0.04,0.2-0.1,0.28-0.18c0.08-0.07,0.15-0.16,0.21-0.26
			c0.06-0.1,0.12-0.21,0.17-0.33c0.01-0.03,0.05-0.05,0.11-0.06c0.02,0,0.05,0.01,0.08,0.02s0.05,0.03,0.08,0.04
			c-0.04,0.1-0.08,0.21-0.1,0.34c-0.03,0.13-0.05,0.26-0.08,0.38c-0.03,0.12-0.05,0.22-0.08,0.31S52.85,29,52.8,29
			c-0.04,0-0.1,0-0.17,0s-0.15,0-0.24,0s-0.17,0-0.26,0s-0.17,0-0.23,0l-1.62,0.05c-0.14,0-0.3,0.01-0.46,0.03
			c-0.16,0.01-0.32,0.03-0.47,0.04c-0.01-0.05-0.02-0.09-0.02-0.12c0-0.07,0.02-0.11,0.07-0.12c0.19-0.04,0.32-0.08,0.4-0.12
			s0.12-0.11,0.12-0.21l-0.12-3.77c0-0.1-0.04-0.17-0.11-0.2s-0.21-0.07-0.42-0.1c-0.05-0.01-0.08-0.05-0.08-0.12
			c0-0.02,0-0.04,0-0.06c0-0.02,0-0.04,0.01-0.06c0.21,0.01,0.39,0.01,0.53,0.01s0.27,0,0.39,0l1.46-0.05
			c0.22-0.01,0.42-0.02,0.58-0.04c0.16-0.02,0.27-0.03,0.33-0.03s0.11,0.04,0.13,0.12s0.05,0.18,0.07,0.29s0.04,0.23,0.06,0.36
			c0.02,0.13,0.06,0.24,0.12,0.32c-0.04,0.03-0.08,0.05-0.13,0.05c-0.06,0-0.11-0.02-0.13-0.06c-0.06-0.13-0.12-0.23-0.18-0.32
			s-0.12-0.16-0.2-0.22c-0.07-0.06-0.16-0.1-0.26-0.13c-0.1-0.03-0.23-0.04-0.38-0.03L50.46,24.52z"/>
		<path class="st2" d="M28.7,27.89c-3.09,0-6.18,0-9.27,0"/>
		<path class="st2" d="M28.7,27.93c-3.01,0.02-6.46,0.85-9.27-0.07c1.53-0.4,3.08-0.39,4.63-0.26
			C25.56,27.73,27.35,27.62,28.7,27.93L28.7,27.93z"/>
		<path class="st2" d="M54.41,27.11c3.09,0.05,6.18,0.09,9.27,0.14"/>
		<path class="st2" d="M54.41,27.08c3.01,0.02,6.47-0.76,9.27,0.21c-1.54,0.38-3.08,0.35-4.64,0.2
			C57.55,27.32,55.76,27.41,54.41,27.08L54.41,27.08z"/>
	</g>
	<g>
		<g>
			<path class="st3" d="M5.64,18.68c-0.06-0.13,0.76-0.72,3.7-2.34c0.05-0.03,0.1,0.03,0.07,0.08c-0.22,0.26-0.47,0.63-0.61,1.1
				c-0.15,0.47-0.13,0.86-0.13,1.06c0.03,0.96,0.06,2.32,0.12,3.98c0,0.03,0.03,0.06,0.06,0.05l2.74-0.57
				c0.02,0,0.04-0.03,0.04-0.05c0.04-1.57,0.04-3.17,0-4.81c0-0.1,0.12-0.42-0.02-0.72c-0.16-0.33-0.54-0.49-0.86-0.56
				c-0.05-0.01-0.05-0.07-0.01-0.1l3.29-1.8c0.05-0.03,0.1,0.03,0.07,0.08c-0.18,0.22-0.35,0.51-0.48,0.87
				c-0.12,0.37-0.14,0.68-0.15,0.87c-0.02,0.81,0.11,5.34,0.34,11.54c0,0.03,0.02,0.05,0.05,0.05c0.26,0.03,0.53,0.06,0.8,0.08
				c0.12,0.01,0.25,0.02,0.37,0.03c0.05,0,0.07,0.07,0.02,0.1l-3.52,1.85c-0.05,0.02-0.1-0.03-0.07-0.07c0.25-0.4,0.3-0.73,0.3-0.96
				c0-0.13-0.02-0.23-0.03-0.54c-0.01-0.39,0-0.67,0-0.78c0.01-0.37,0.02-1.58,0-4.57c0-0.05-0.06-0.07-0.09-0.04
				c-0.13,0.13-0.3,0.32-0.47,0.56c-0.39,0.57-0.38,0.89-0.65,1.12c-0.21,0.18-0.62,0.32-1.5,0.05c-0.02-0.02-0.05,0-0.05,0.04
				l0.2,5.43c0,0.02,0.02,0.05,0.04,0.05l0.56,0.09c0.05,0.01,0.06,0.07,0.02,0.09l-2.82,1.92c-0.04,0.03-0.09-0.01-0.08-0.05
				c0.05-0.24,0.11-0.57,0.17-0.95c0.29-1.88,0.42-4.46,0-4.55c-0.32-0.07-0.84,1.36-0.97,1.31C6,27.59,6.2,26.95,6.55,25.7
				c0.24-0.87,0.36-1.31,0.4-1.48c0.49-2.3-0.21-3.59-0.21-4.96c0-0.07,0-0.23-0.1-0.37C6.36,18.55,5.69,18.79,5.64,18.68z"/>
			<path class="st3" d="M16.43,23.38c-0.04,0.59-0.03,0.83,0.03,1.01c0.15,0.45,0.87,0.88,1.49,1.04c1.17,0.3,2.17-0.19,2.3-0.26
				c0.19-0.1,1.43-0.73,1.66-2c0.06-0.33,0.03-0.62,0-0.82c-0.01-0.04-0.01-0.07-0.01-0.11l-0.26-5.38c0-0.06,0-0.12,0-0.19
				c0-0.1,0.01-0.2,0.02-0.29c0.01-0.13,0.04-0.34,0.16-0.54c0.04-0.06,0.08-0.11,0.11-0.16c0.13-0.21,0.34-0.31,0.57-0.53
				c0.22-0.21,0.32-0.33,0.29-0.39c-0.06-0.12-0.54,0.04-1.26,0.2c-1.17,0.26-1.92,0.3-1.91,0.42c0,0.06,0.19,0.06,0.65,0.26
				c0.24,0.11,0.38,0.16,0.5,0.27c0.09,0.08,0.32,0.32,0.33,0.87l0.34,5.49c0,0.02,0,0.04,0.01,0.06c0.02,0.17,0.04,0.43-0.05,0.72
				c-0.14,0.47-0.45,0.75-0.71,0.98c-0.18,0.16-0.44,0.39-0.84,0.54c-0.3,0.11-0.86,0.34-1.35,0.08c0,0,0,0-0.01,0
				c-0.25-0.13-0.4-0.41-0.4-0.7l0.07-6.98c0-0.06,0.01-0.15,0.05-0.26c0.08-0.27,0.23-0.39,0.44-0.68
				c0.21-0.29,0.31-0.43,0.29-0.48c-0.06-0.11-0.7,0.03-3.24,1.13c-0.04,0.02-0.08,0.04-0.12,0.07c-0.11,0.07-0.25,0.18-0.22,0.26
				c0.01,0.04,0.07,0.07,0.41,0.12c0.47,0.07,0.6,0.05,0.69,0.15c0.11,0.12,0.07,0.32,0.05,0.4C16.48,17.7,16.39,18.14,16.43,23.38"
				/>
			<path class="st3" d="M26.9,15.19c-0.58-0.53-1.3-0.61-1.55-0.63c-0.27-0.02-0.88-0.05-1.47,0.33c-0.67,0.43-1.05,1.02-1.13,1.28
				c-0.1,0.32-0.16,1.14,0.17,1.67c0.64,1.04,2.77,0.65,2.77,0.68c0,0.02-0.42,0.03-1.36-0.2c-0.5-0.12-0.92-0.31-1.13-0.72
				c-0.26-0.52-0.15-1.15-0.03-1.4c0.12-0.27,0.46-0.65,0.9-0.82c0.52-0.2,1.02,0.08,1.18,0.17c0.59,0.32,0.86,0.89,0.98,1.15
				c0.96,2.09,1.44,3.13,1.74,3.92c0.74,1.95,1.12,2.93,1.42,2.88c0.41-0.06,0.51-1.87,0.57-3.12c0.03-0.53,0.07-1.28,0.02-2.31
				c-0.1-1.97-0.16-2.92,0.06-3.86c0.16-0.67,0.7-0.64,0.58-0.77c-0.07-0.08-0.3,0.06-0.92,0.3c-0.85,0.34-1.47,0.5-1.45,0.59
				c0.02,0.1,0.66-0.05,0.88,0.27c0.08,0.11,0.08,0.25,0.07,0.34l0.2,4.93c0,0.12-0.16,0.16-0.21,0.06
				c-0.62-1.14-0.88-2.05-1.36-3.21C27.61,16.06,27.39,15.63,26.9,15.19z"/>
			<path class="st3" d="M24.93,15.06c-0.03,5.42,0,7.39,0.04,7.67c0,0.03,0.02,0.14,0,0.28c-0.05,0.3-0.25,0.51-0.35,0.6
				c-0.56,0.56-1.07,0.82-1.05,0.9c0.08,0.27,3.8-0.41,3.77-0.69c-0.01-0.06-0.18-0.08-1.07-0.43c-0.13-0.05-0.29-0.12-0.39-0.28
				c-0.13-0.21-0.08-0.46-0.06-0.52c0.08-0.44,0.06-3.29-0.01-7.42L24.93,15.06z"/>
			<path class="st3" d="M37.12,15.29c-0.21,0.11-0.6-0.68-1.52-1.22c-0.32-0.18-1.2-0.69-2.09-0.38c-0.77,0.27-1.12,1.02-1.25,1.29
				c-0.12,0.25-0.31,0.65-0.27,1.18c0.01,0.07,0.09,0.91,0.8,1.45c0.73,0.55,1.7,0.45,2.32,0.15c1.05-0.51,1.37-1.72,1.56-1.64
				c0.13,0.06,0.01,0.64-0.15,1.03c-0.24,0.59-0.64,0.92-0.72,0.99c-0.58,0.47-1.22,0.51-1.63,0.53c-0.55,0.03-1.45,0.09-2.17-0.53
				c-0.73-0.63-0.81-1.54-0.84-1.86c-0.1-1.13,0.46-1.95,0.61-2.17c0.63-0.9,1.51-1.21,1.75-1.29c0.54-0.18,0.85-0.13,2.02-0.15
				c1.47-0.02,2.3-0.35,2.4-0.11c0.07,0.16-0.3,0.28-0.53,0.87c-0.14,0.35-0.16,0.7-0.19,1.07C37.15,15.07,37.21,15.24,37.12,15.29z
				"/>
			<path class="st3" d="M35.64,14.37c0.07,0.02,0.11,0.08,0.13,0.12l0.11,6.99c-0.01,0.06-0.01,0.14,0.03,0.23
				c0.16,0.38,0.81,0.35,0.82,0.45c0.02,0.25-3.73,0.8-3.77,0.59c-0.02-0.09,0.57-0.19,0.84-0.72c0.06-0.13,0.09-0.25,0.1-0.32
				v-5.83c-0.02-0.12-0.04-0.29,0.05-0.45c0.14-0.28,0.42-0.22,0.87-0.51C35.27,14.64,35.43,14.3,35.64,14.37z"/>
			<path class="st3" d="M44.18,13.49c-0.16-0.07-0.35,0.29-0.79,0.6c-0.53,0.37-1.05,0.43-1.03,0.59c0.01,0.05,0.07,0.05,0.17,0.16
				c0.14,0.15,0.21,0.3,0.24,0.38c0.13,0.31,0.1,0.63,0.1,0.72c-0.07,0.8,0,1.61-0.01,2.41c-0.01,0.41-0.01,0.62-0.01,0.85
				c0,0.57-0.02,1.14-0.01,1.71c0,0.13,0,0.18-0.02,0.26c-0.15,0.54-0.96,0.64-0.95,0.75c0.01,0.1,0.66,0.19,3.29,0.14
				c-0.19-0.07-0.45-0.19-0.6-0.44c-0.16-0.26-0.14-0.53-0.13-0.65c0,0,0.28-3.9-0.12-7.26C44.29,13.66,44.27,13.53,44.18,13.49z"/>
			<path class="st3" d="M43.74,21.25c0.08-0.18,0.86,0.22,1.94-0.01c0.34-0.07,0.62-0.13,0.87-0.34c0.87-0.7,0.87-2.64-0.08-3.54
				c-0.39-0.37-0.88-0.5-0.91-0.51c-0.75-0.2-1.39,0.12-1.44,0c-0.03-0.08,0.22-0.28,0.5-0.35c0.27-0.07,0.45,0.02,0.69,0.07
				c0.41,0.08,1.11,0.06,1.38-0.29c0.35-0.45-0.12-1.31-0.21-1.47c-0.26-0.48-0.5-0.81-0.89-1.11c-0.43-0.32-0.77-0.44-1.09-0.54
				c-0.97-0.29-1.83,0.3-1.88,0.34c-0.49,0.35-0.71,0.81-0.82,1.05c-0.08,0.16-0.2,0.43-0.23,0.8c-0.02,0.22-0.07,0.76,0.2,1.14
				c0.46,0.65,1.6,0.43,1.61,0.61c0.01,0.13-0.59,0.37-1.17,0.25c-0.54-0.11-0.85-0.49-0.94-0.61c-0.26-0.34-0.3-0.69-0.34-0.95
				c-0.14-1.12,0.44-1.99,0.51-2.11c0.57-0.84,1.37-1.15,1.64-1.24c1.11-0.37,2.06,0,2.65,0.22c0.68,0.26,1.54,0.59,1.93,1.47
				c0.34,0.76,0.14,1.49,0.11,1.6c-0.19,0.65-0.63,1.05-0.77,1.17c-0.02,0.01-0.11,0.03-0.12,0.09s0.07,0.12,0.09,0.14
				c0.2,0.21,0.4,0.36,0.54,0.53c0.22,0.28,0.4,0.53,0.53,0.89c0.08,0.21,0.33,0.89,0.08,1.71c-0.24,0.8-0.79,1.24-0.96,1.36
				c-0.72,0.54-1.77,0.77-2.62,0.39C44.06,21.78,43.67,21.39,43.74,21.25z"/>
			<path class="st3" d="M53.58,12.92c0,0.12-0.88-0.04-1.59,0.49c-0.22,0.16-0.63,0.54-0.95,1.89c-0.22,0.93-0.6,2.67,0.14,4.67
				c0.24,0.66,0.75,2.03,1.51,2.05c0.58,0.02,1.04-0.74,1.24-1.08c1.56-2.59,0.02-6.31-0.78-7.02c-0.04-0.04-0.25-0.22-0.22-0.26
				c0.05-0.08,0.82,0.26,1.24,0.54c1.83,1.25,1.49,4.58,1.44,4.99c-0.09,0.77-0.22,1.79-1.01,2.6c-0.23,0.23-0.79,0.81-1.64,0.84
				c-0.74,0.03-1.27-0.38-1.59-0.63c-0.93-0.71-1.25-1.69-1.47-2.36c-0.36-1.09-0.34-1.99-0.31-2.67c0.03-0.76,0.05-1.47,0.41-2.31
				c0.24-0.56,0.63-1.47,1.54-1.85C52.51,12.39,53.59,12.79,53.58,12.92z"/>
			<path class="st3" d="M58.56,18.69c-0.02,0.35,0.07,1.48-0.1,2.43c-0.03,0.18-0.06,0.47-0.12,0.88c0,0.03,0.01,0.08-0.01,0.15
				c-0.16,0.52-1.5,0.39-1.52,0.56c-0.04,0.3,4.1,1.22,4.21,0.88c0.01-0.04-0.1-0.14-0.31-0.34c-0.42-0.4-0.59-0.46-0.7-0.69
				c-0.09-0.19-0.07-0.36-0.06-0.59c0.07-0.93,0.09-2.67,0.08-2.97c0-0.04-0.01-0.15,0.03-0.29c0.04-0.15,0.12-0.25,0.14-0.27
				c0.27-0.37,1.99-3.22,2.18-3.54c0.03-0.05,0.08-0.14,0.17-0.23c0.5-0.51,1.34-0.35,1.35-0.4c0.01-0.09-3.55-0.37-3.55-0.29
				c0,0.03,0.51,0.03,0.77,0.39c0.09,0.13,0.12,0.26,0.14,0.32c0.07,0.31-0.04,0.59-0.09,0.71c-0.79,1.88-1.18,2.82-1.44,2.77
				c-0.15-0.03-0.16-0.23-0.34-0.74c-0.53-1.5-1.35-2.46-1.2-3.21c0.02-0.11,0.06-0.18,0.08-0.22c0.26-0.44,0.96-0.37,0.97-0.46
				c0.02-0.21-3.84-0.78-3.9-0.5c-0.01,0.03,0.12,0.12,0.36,0.29c0.39,0.27,0.53,0.34,0.66,0.45c0.28,0.22,0.4,0.5,0.54,0.83
				c0.52,1.2,0.94,2.45,1.54,3.61c0.01,0.01,0.04,0.08,0.07,0.18c0.03,0.08,0.03,0.14,0.04,0.16
				C58.56,18.62,58.56,18.67,58.56,18.69z"/>
			<path class="st3" d="M68.7,18.49c0.15-0.06-0.07-0.59,0.14-1.34c0.19-0.68,0.61-1.09,0.52-1.18c-0.07-0.06-0.27,0.2-0.6,0.25
				c-0.52,0.07-0.84-0.47-1.42-0.88c-1.03-0.72-2.23-0.59-2.41-0.57c-0.3,0.04-1.33,0.15-2.02,1.04c-0.66,0.84-0.57,1.81-0.55,2.05
				c0.11,0.99,0.7,1.61,0.96,1.89c0.92,0.98,2.08,1.16,3.17,1.34c0.33,0.05,1.65,0.27,1.81-0.11c0.06-0.15-0.12-0.28-0.49-0.88
				c-0.47-0.76-0.58-1.23-0.77-1.2c-0.15,0.02-0.11,0.34-0.38,0.63c-0.28,0.3-0.69,0.33-0.96,0.36c-0.75,0.06-1.71-0.23-2.33-1.01
				c-0.15-0.19-0.59-0.75-0.55-1.56c0.01-0.11,0.08-1.09,0.85-1.59c0.83-0.54,1.84-0.12,2.22,0.03c0.89,0.36,1.46,1.07,1.86,1.56
				C68.28,17.98,68.54,18.55,68.7,18.49z"/>
			<path class="st3" d="M65.66,16.22c-0.24,0.04-1.86,0.38-1.81,0.79c0.02,0.12,0.16,0.12,0.3,0.36c0.12,0.2,0.13,0.39,0.14,0.52
				c0.06,1.23-0.06,4.5-0.11,5.45c0,0.03,0.02,0.09-0.01,0.17c-0.12,0.38-0.99,0.29-1,0.41c-0.04,0.29,5.53,1.19,6.36,1.66
				c0.01,0,0.21,0.12,0.25,0.07c0.05-0.06-0.22-0.28-0.36-0.65c-0.09-0.23-0.09-0.42-0.09-0.58c-0.01-1.86-0.04-2.24-0.12-2.25
				c-0.1-0.02-0.17,0.57-0.68,1.22c-0.19,0.24-0.49,0.61-0.99,0.81c-0.61,0.24-1.46,0.21-1.68-0.19c-0.11-0.19-0.03-0.41-0.03-0.48
				c0.02-1.27,0.1-2.18,0.09-3.28c-0.01-2.61-0.11-3.53-0.03-3.8c0.01-0.02,0.04-0.13-0.01-0.19C65.83,16.2,65.73,16.21,65.66,16.22
				z"/>
			<path class="st3" d="M73.27,15.51c-0.17-0.13-0.48,0.21-1.14,0.41c-0.88,0.26-1.62,0.05-1.66,0.22c-0.02,0.11,0.3,0.18,0.49,0.54
				c0.13,0.25,0.11,0.49,0.11,0.6c-0.02,0.48,0.04,7.54-0.01,8.94c0,0.03,0,0.17-0.05,0.26c-0.17,0.34-1.21,0-1.28,0.16
				c-0.14,0.32,3.85,2.44,4.02,2.17c0.01-0.02-0.01-0.04-0.22-0.39c-0.36-0.59-0.42-0.73-0.45-0.91c-0.04-0.24-0.03-0.55-0.03-0.63
				c-0.01-0.61,0.05-1.9,0.02-7.32c-0.01-1.67,0.03-2.84,0.11-3.14C73.24,16.14,73.45,15.65,73.27,15.51z"/>
			<path class="st3" d="M72.18,21.36c0.03-0.12,0.84,0.18,1.89-0.07c0.61-0.15,0.88-0.38,1.13-0.22c0.25,0.15,0.21,0.52,0.25,1.21
				c0.02,0.41,0.13,1.01,0.33,2.23c0,0,0.15,0.9,0.45,1.94c0.77,2.73,2.51,4.05,2.2,4.4c-0.21,0.24-1.06-0.37-3.55-1.87
				c-0.03-0.02-0.13-0.06-0.18-0.17c-0.07-0.17-0.09-0.45-0.08-0.53c0.02-0.59-0.04-1.59-0.26-3.8c-0.11-1.18-0.18-1.77-0.52-2.17
				C73.2,21.57,72.15,21.49,72.18,21.36z"/>
			<path class="st3" d="M75.03,22.96c0.85-0.21,1.25-0.6,1.44-0.85c1.2-1.55,0.45-4.51-1.15-6.24c-0.72-0.78-1.85-1.47-2.59-1.68
				c-0.23-0.06-1.17-0.33-2.01,0.21c-0.7,0.44-0.91,1.17-1.03,1.58c-0.05,0.18-0.39,1.43,0.25,2.61c0.61,1.11,1.7,1.47,1.6,1.67
				c-0.08,0.16-0.77,0.08-1.3-0.27c-0.61-0.4-0.8-1.03-0.98-1.6c-0.14-0.45-0.47-1.53-0.07-2.82c0.15-0.49,0.39-1.27,1.05-1.76
				c1.54-1.15,4.05,0.18,4.33,0.32c2.1,1.1,3.1,2.66,3.49,3.67c0.46,1.2,0.65,2.72,0.22,3.86c-0.66,1.75-2.74,2.27-3.02,2.34
				L75.03,22.96z"/>
			<g>
				<g>
					<path class="st3" d="M35.32,28.51c0,0.1,0.04,0.17,0.1,0.2s0.2,0.07,0.39,0.1c0.05,0.01,0.08,0.04,0.08,0.1
						c0,0.04,0,0.08-0.01,0.13c-0.12-0.01-0.27-0.01-0.44-0.01s-0.32,0-0.45,0c-0.14,0-0.28,0.01-0.44,0.03
						c-0.15,0.01-0.31,0.03-0.45,0.04c-0.01-0.05-0.02-0.09-0.02-0.13c0-0.06,0.02-0.09,0.07-0.11c0.18-0.04,0.31-0.08,0.37-0.12
						c0.07-0.04,0.1-0.11,0.1-0.21l-0.06-1.79l-2.33,0.08l0.06,1.79c0,0.1,0.04,0.17,0.1,0.2s0.2,0.07,0.39,0.1
						c0.05,0.01,0.08,0.04,0.08,0.1c0,0.04,0,0.08-0.01,0.13c-0.13-0.01-0.28-0.01-0.45-0.01c-0.17,0-0.32,0-0.45,0
						c-0.14,0-0.28,0.01-0.44,0.03c-0.15,0.01-0.31,0.03-0.46,0.04c-0.01-0.05-0.02-0.09-0.02-0.13c0-0.06,0.02-0.09,0.07-0.11
						c0.19-0.04,0.31-0.08,0.38-0.12s0.1-0.11,0.1-0.21l-0.12-3.77c0-0.05-0.01-0.09-0.02-0.12s-0.04-0.06-0.07-0.08
						c-0.04-0.02-0.08-0.04-0.15-0.06c-0.06-0.02-0.14-0.03-0.24-0.05c-0.05,0-0.08-0.04-0.08-0.12c0-0.03,0-0.08,0.01-0.13
						c0.12,0.01,0.27,0.01,0.43,0.01s0.31,0,0.44,0c0.14,0,0.28-0.01,0.44-0.02c0.15-0.01,0.3-0.03,0.45-0.04
						c0.01,0.05,0.02,0.09,0.02,0.13c0,0.07-0.02,0.11-0.07,0.12c-0.19,0.04-0.32,0.08-0.38,0.12c-0.06,0.05-0.09,0.12-0.09,0.22
						l0.06,1.66l2.33-0.08l-0.06-1.66c0-0.08-0.03-0.15-0.1-0.2c-0.06-0.05-0.19-0.09-0.38-0.11c-0.05,0-0.08-0.04-0.08-0.12
						c0-0.03,0-0.08,0.01-0.13c0.12,0.01,0.27,0.01,0.43,0.01c0.17,0,0.31,0,0.45,0s0.28-0.01,0.43-0.02s0.3-0.03,0.45-0.04
						c0.01,0.05,0.02,0.09,0.02,0.13c0,0.07-0.02,0.11-0.07,0.12c-0.19,0.04-0.32,0.08-0.38,0.12c-0.06,0.05-0.09,0.12-0.09,0.22
						L35.32,28.51z"/>
					<path class="st3" d="M36.5,26.58c-0.01-0.34,0.04-0.66,0.15-0.97s0.27-0.58,0.48-0.81s0.45-0.42,0.72-0.57
						c0.28-0.14,0.57-0.22,0.88-0.23c0.43-0.01,0.81,0.04,1.13,0.17c0.33,0.12,0.6,0.3,0.81,0.52c0.22,0.22,0.38,0.48,0.5,0.78
						c0.11,0.3,0.18,0.61,0.19,0.94c0.01,0.39-0.04,0.74-0.16,1.06c-0.12,0.31-0.29,0.58-0.5,0.8s-0.48,0.4-0.78,0.52
						s-0.62,0.19-0.97,0.2c-0.35,0.01-0.67-0.04-0.97-0.15c-0.29-0.11-0.55-0.27-0.77-0.48s-0.39-0.47-0.52-0.77
						C36.58,27.29,36.51,26.95,36.5,26.58z M39.12,28.64c0.23-0.01,0.44-0.06,0.63-0.16c0.19-0.09,0.35-0.22,0.48-0.39
						c0.13-0.16,0.23-0.35,0.3-0.57s0.1-0.46,0.09-0.71c-0.01-0.36-0.06-0.69-0.14-0.99c-0.08-0.3-0.21-0.56-0.36-0.78
						c-0.16-0.22-0.35-0.39-0.59-0.51c-0.23-0.12-0.5-0.18-0.81-0.17c-0.2,0.01-0.39,0.05-0.58,0.13c-0.18,0.08-0.34,0.2-0.48,0.35
						s-0.24,0.33-0.32,0.55c-0.08,0.21-0.11,0.46-0.1,0.74c0.01,0.37,0.06,0.7,0.15,1.02c0.09,0.31,0.21,0.58,0.37,0.8
						c0.16,0.23,0.35,0.4,0.58,0.52C38.58,28.59,38.84,28.64,39.12,28.64z"/>
					<path class="st3" d="M46.54,23.97c0.01-0.02,0.02-0.04,0.03-0.06c0.01-0.02,0.03-0.04,0.06-0.05c0.03-0.01,0.07-0.02,0.12-0.03
						s0.12-0.01,0.21-0.02c0.04,0,0.09,0,0.16-0.01c0.06,0,0.13-0.01,0.21-0.01c0.07-0.01,0.15-0.01,0.23-0.02
						c0.08-0.01,0.15-0.01,0.21-0.02c0.01,0.05,0.02,0.09,0.02,0.12c0,0.08-0.02,0.12-0.07,0.13c-0.18,0.03-0.29,0.07-0.35,0.11
						s-0.09,0.1-0.08,0.17c0,0,0.01,0.07,0.02,0.2c0.01,0.13,0.03,0.34,0.05,0.63c0.02,0.29,0.06,0.68,0.09,1.17
						c0.04,0.49,0.08,1.09,0.14,1.82c0.01,0.09,0.04,0.16,0.1,0.21c0.06,0.04,0.18,0.08,0.37,0.1c0.02,0,0.04,0.02,0.06,0.04
						c0.01,0.02,0.02,0.05,0.02,0.08s0,0.07-0.01,0.12c-0.17,0-0.33-0.01-0.47-0.01s-0.27,0-0.39,0c-0.05,0-0.11,0-0.18,0.01
						c-0.07,0-0.15,0.01-0.23,0.01c-0.08,0.01-0.16,0.01-0.24,0.02s-0.15,0.01-0.21,0.02c-0.01-0.05-0.02-0.09-0.02-0.12
						c0-0.08,0.02-0.12,0.07-0.12c0.2-0.05,0.33-0.09,0.4-0.13c0.07-0.04,0.1-0.11,0.1-0.2c0-0.01-0.01-0.11-0.02-0.27
						s-0.03-0.37-0.05-0.61s-0.04-0.5-0.06-0.79c-0.02-0.28-0.04-0.55-0.06-0.8s-0.04-0.46-0.06-0.64s-0.02-0.29-0.03-0.33
						l-1.49,3.98c-0.02,0.05-0.04,0.08-0.05,0.1c-0.02,0.02-0.04,0.03-0.07,0.04c-0.03,0-0.06,0-0.07,0l-1.95-4.11
						c0,0.05-0.01,0.17-0.01,0.36s0,0.42-0.01,0.68c0,0.26-0.01,0.54-0.01,0.83c0,0.29-0.01,0.56-0.01,0.81S43,27.83,43,28
						s0,0.26,0,0.27c0.01,0.15,0.18,0.25,0.51,0.3c0.05,0,0.08,0.04,0.08,0.12c0,0.03,0,0.07-0.01,0.12
						c-0.13-0.01-0.26-0.01-0.39-0.01s-0.24,0-0.34,0c-0.08,0-0.19,0.01-0.32,0.02s-0.26,0.03-0.38,0.04
						c-0.01-0.05-0.02-0.09-0.02-0.12c0-0.07,0.02-0.11,0.07-0.12c0.13-0.03,0.24-0.07,0.32-0.12c0.08-0.05,0.12-0.12,0.13-0.22
						c0-0.04,0-0.17,0-0.38s0.01-0.45,0.01-0.73c0-0.28,0.01-0.58,0.01-0.9s0.01-0.61,0.01-0.88c0-0.27,0.01-0.49,0.01-0.67
						s0-0.27,0-0.27c0-0.08-0.04-0.14-0.1-0.17c-0.06-0.04-0.18-0.06-0.36-0.09c-0.05,0-0.08-0.04-0.08-0.12
						c0-0.03,0-0.07,0.01-0.12c0.06,0,0.14,0.01,0.22,0.01s0.16,0,0.24,0s0.16,0,0.23,0s0.13,0,0.18,0c0.09,0,0.16,0,0.21,0
						c0.05,0.01,0.09,0.01,0.12,0.02s0.05,0.02,0.06,0.04c0.01,0.02,0.02,0.04,0.04,0.06l1.71,3.65L46.54,23.97z"/>
					<path class="st3" d="M49.96,24.02l0.06,1.9l1.16-0.04c0.1,0,0.17-0.05,0.21-0.15s0.07-0.22,0.09-0.36
						c0.01-0.06,0.06-0.1,0.13-0.1c0.01,0,0.03,0,0.06,0.01c0.02,0,0.04,0.01,0.06,0.01c-0.01,0.11-0.01,0.23-0.01,0.37
						c0,0.14,0,0.26,0,0.36c0,0.08,0.01,0.19,0.02,0.31s0.02,0.26,0.04,0.41c-0.04,0.01-0.08,0.02-0.11,0.02
						c-0.08,0-0.13-0.03-0.14-0.09c-0.03-0.14-0.07-0.25-0.11-0.35s-0.12-0.14-0.22-0.14l-1.16,0.04l0.06,1.75
						c0,0.1,0.07,0.17,0.21,0.2c0.13,0.03,0.35,0.04,0.66,0.03l0.41-0.01c0.14,0,0.27-0.03,0.37-0.08c0.1-0.04,0.2-0.1,0.28-0.18
						c0.08-0.07,0.15-0.16,0.21-0.26c0.06-0.1,0.12-0.21,0.17-0.33c0.01-0.03,0.05-0.05,0.11-0.06c0.02,0,0.05,0.01,0.08,0.02
						s0.05,0.03,0.08,0.04c-0.04,0.1-0.08,0.21-0.1,0.34c-0.03,0.13-0.05,0.26-0.08,0.38c-0.03,0.12-0.05,0.22-0.08,0.31
						s-0.07,0.13-0.12,0.13c-0.04,0-0.1,0-0.17,0s-0.15,0-0.24,0s-0.17,0-0.26,0s-0.17,0-0.23,0l-1.62,0.05
						c-0.14,0-0.3,0.01-0.46,0.03c-0.16,0.01-0.32,0.03-0.47,0.04c-0.01-0.05-0.02-0.09-0.02-0.12c0-0.07,0.02-0.11,0.07-0.12
						c0.19-0.04,0.32-0.08,0.4-0.12s0.12-0.11,0.12-0.21l-0.12-3.77c0-0.1-0.04-0.17-0.11-0.2s-0.21-0.07-0.42-0.1
						c-0.05-0.01-0.08-0.05-0.08-0.12c0-0.02,0-0.04,0-0.06c0-0.02,0-0.04,0.01-0.06c0.21,0.01,0.39,0.01,0.53,0.01s0.27,0,0.39,0
						l1.46-0.05c0.22-0.01,0.42-0.02,0.58-0.04c0.16-0.02,0.27-0.03,0.33-0.03s0.11,0.04,0.13,0.12s0.05,0.18,0.07,0.29
						s0.04,0.23,0.06,0.36c0.02,0.13,0.06,0.24,0.12,0.32c-0.04,0.03-0.08,0.05-0.13,0.05c-0.06,0-0.11-0.02-0.13-0.06
						c-0.06-0.13-0.12-0.23-0.18-0.32s-0.12-0.16-0.2-0.22c-0.07-0.06-0.16-0.1-0.26-0.13c-0.1-0.03-0.23-0.04-0.38-0.03
						L49.96,24.02z"/>
				</g>
			</g>
			<g>
				<path class="st4" d="M28.2,27.39c-3.09,0-6.18,0-9.27,0"/>
				<path class="st4" d="M28.2,27.43c-3.01,0.02-6.46,0.85-9.27-0.07c1.53-0.4,3.08-0.39,4.63-0.26
					C25.06,27.23,26.85,27.12,28.2,27.43L28.2,27.43z"/>
			</g>
			<g>
				<path class="st4" d="M53.91,26.61c3.09,0.05,6.18,0.09,9.27,0.14"/>
				<path class="st4" d="M53.91,26.58c3.01,0.02,6.47-0.76,9.27,0.21c-1.54,0.38-3.08,0.35-4.64,0.2
					C57.05,26.82,55.26,26.91,53.91,26.58L53.91,26.58z"/>
			</g>
		</g>
	</g>
</g>
<g id="Layer_2_00000124860073764102276370000018225672772464074912_">
	<g>
		<path class="st5" d="M42.31,35.15c14.68-0.15,29.36-0.28,44.05-0.34l-0.44,0.38c-0.06-6.24-0.13-12.49-0.03-18.73
			c0.1-1.79-0.03-4.7,0.53-6.24c0.59,4.15,0.44,8.32,0.47,12.49c-0.02,4.29-0.01,8.58-0.08,12.87
			C72.03,35.43,56.88,35.55,42.31,35.15L42.31,35.15z"/>
	</g>
</g>
<g id="Layer_3">
	<g>
		<path class="st5" d="M80.77,17.02c1.25-2.38,2.93-4.66,4.71-6.89c0.24-0.49,1.38-0.67,1.84-0.13c0.14,0.19,0.42,0.56,0.58,0.75
			c1.55,2.04,2.98,4.11,4.07,6.28c-2.32-2.07-4.24-4.29-6.05-6.54c0.16,0.23,0.88,0.26,1.06,0C85.13,12.72,83.16,14.95,80.77,17.02
			L80.77,17.02z"/>
	</g>
</g>
</svg>
