<?xml version="1.0" encoding="utf-8"?>
<!-- Generator: Adobe Illustrator 27.5.0, SVG Export Plug-In . SVG Version: 6.00 Build 0)  -->
<svg version="1.1" xmlns="http://www.w3.org/2000/svg" xmlns:xlink="http://www.w3.org/1999/xlink" x="0px" y="0px"
	 viewBox="0 0 720 720" style="enable-background:new 0 0 720 720;" xml:space="preserve">
<style type="text/css">
	.st0{display:none;}
	.st1{display:inline;fill:#DFE4DA;stroke:#DFE4DA;stroke-width:62;stroke-miterlimit:10;}
	.st2{display:inline;fill:#A3D882;stroke:#FFFFFF;stroke-width:4;stroke-miterlimit:10;}
	.st3{display:inline;fill:#85C461;stroke:#FFFFFF;stroke-width:4;stroke-miterlimit:10;}
	.st4{display:inline;}
	.st5{fill:#FFFFFF;}
	.st6{fill:#A3D882;stroke:#FFFFFF;stroke-width:4;stroke-miterlimit:10;}
</style>
<g id="Background" class="st0">
	<path class="st1" d="M341,123.81H111.91c-1.38,0-2.49,1.12-2.49,2.49v206.2c0,1.38,1.12,2.49,2.49,2.49h111.72
		c1.38,0,2.49-1.12,2.49-2.49v-50.22c0-1.38,1.12-2.49,2.49-2.49l0,0c0.76,0,1.49-0.35,1.96-0.95l30.5-38.79
		c0.47-0.6,1.2-0.95,1.96-0.95h7.97c0.76,0,1.48-0.35,1.95-0.94l69.71-87.63c0.34-0.43,0.54-0.97,0.54-1.52l0.28-22.67
		C343.51,124.94,342.39,123.81,341,123.81z"/>
	<path class="st1" d="M223.63,337.57H58.53c-1.38,0-2.49,1.12-2.49,2.49v101.35c0,1.38,1.12,2.49,2.49,2.49h165.32
		c1.38,0,2.5-1.12,2.49-2.5l-0.23-101.35C226.12,338.68,225.01,337.57,223.63,337.57z"/>
	<path class="st1" d="M223.9,447.12H112.21c-1.38,0-2.49,1.12-2.49,2.49v61.46c0,1.38,1.12,2.49,2.49,2.49h111.67
		c1.38,0,2.49-1.12,2.49-2.49l0.02-61.46C226.39,448.24,225.27,447.12,223.9,447.12z"/>
	<path class="st1" d="M485.8,217.6h90.4c1.38,0,2.49,1.12,2.49,2.49v73.37c0,1.38-1.12,2.49-2.49,2.49h-90.29
		c-1.38,0-2.49-1.11-2.49-2.49l-0.11-73.37C483.3,218.72,484.42,217.6,485.8,217.6z"/>
	<path class="st1" d="M485.85,298.94h175.61c1.38,0,2.49,1.12,2.49,2.49v115.44c0,1.38-1.12,2.49-2.49,2.49H486.02
		c-1.38,0-2.49-1.11-2.49-2.49l-0.16-115.44C483.36,300.06,484.48,298.94,485.85,298.94z"/>
	<path class="st1" d="M475.29,421.65H660.8c1.38,0,2.49,1.12,2.49,2.49v88.32c0,1.38-1.12,2.49-2.49,2.49H475.4
		c-1.38,0-2.49-1.11-2.49-2.49l-0.11-88.32C472.8,422.76,473.91,421.65,475.29,421.65z"/>
	<path class="st1" d="M229.65,517.39h240.96c1.3,0,2.39,0.99,2.49,2.29c0.98,12.49,0.96,30.6-4.25,51.09
		c-15.13,59.48-60.54,85.81-65.85,88.76c-18.04,10.04-35.2,13.41-48.01,14.38c-0.09,0.01-0.18,0.01-0.27,0.01
		c-10.05-0.32-62.83-0.6-95.88-48.11c-38.21-54.93-33.36-92.11-31.67-106.24C227.33,518.33,228.39,517.39,229.65,517.39z"/>
</g>
<g id="A" class="st0">
	<path class="st2" d="M109.42,274.91V130.3c0-1.38,1.12-2.49,2.49-2.49H341c1.39,0,2.51,1.13,2.49,2.52L343.21,153
		c-0.01,0.55-0.2,1.09-0.54,1.52l-69.71,87.64c-0.47,0.59-1.19,0.94-1.95,0.94h-7.97c-0.76,0-1.49,0.35-1.96,0.95l-24.13,32.34
		c-0.47,0.63-1.21,1-2,1H111.91C110.53,277.4,109.42,276.28,109.42,274.91z"/>
	<path class="st3" d="M228.62,283.79"/>
</g>
<g id="A-letter" class="st0">
	<g class="st4">
		<g>
			<path class="st5" d="M181.54,211.24c-0.49,0-0.89-0.11-1.18-0.33c-0.3-0.22-0.47-0.52-0.52-0.89c-0.05-0.37,0.02-0.79,0.22-1.26
				l10.03-22.5c0.25-0.59,0.56-1.01,0.94-1.26c0.38-0.25,0.81-0.37,1.28-0.37c0.44,0,0.86,0.12,1.24,0.37
				c0.38,0.25,0.7,0.67,0.94,1.26l10.03,22.5c0.22,0.47,0.31,0.89,0.26,1.28c-0.05,0.38-0.21,0.68-0.48,0.89
				c-0.27,0.21-0.65,0.31-1.15,0.31c-0.54,0-0.98-0.14-1.29-0.41c-0.32-0.27-0.6-0.69-0.85-1.26l-2.59-5.99l1.74,1.04h-15.76
				l1.7-1.04l-2.55,5.99c-0.25,0.59-0.52,1.02-0.81,1.28C182.43,211.11,182.03,211.24,181.54,211.24z M192.23,189.15l-5.59,13.25
				l-0.93-0.89h13.06l-0.85,0.89l-5.62-13.25H192.23z"/>
		</g>
	</g>
</g>
<g id="B" class="st0">
	<path class="st2" d="M112.21,277.4l120.19,0.25c1.98,0,3.17,2.21,2.07,3.87l-7.72,11.67c-0.27,0.41-0.41,0.89-0.41,1.38l0.05,40.51
		c0,1.38-1.11,2.49-2.49,2.49l-111.69-0.02c-1.38,0-2.49-1.12-2.49-2.49v-55.17C109.71,278.51,110.83,277.4,112.21,277.4z"/>
</g>
<g id="B-letter" class="st0">
	<g class="st4">
		<g>
			<path class="st5" d="M161.12,320.13c-0.67,0-1.18-0.18-1.54-0.54c-0.36-0.36-0.54-0.87-0.54-1.54v-21.94
				c0-0.67,0.18-1.18,0.54-1.54c0.36-0.36,0.87-0.54,1.54-0.54h8.81c1.8,0,3.34,0.27,4.61,0.81c1.27,0.54,2.24,1.32,2.92,2.33
				c0.68,1.01,1.02,2.23,1.02,3.66c0,1.58-0.47,2.91-1.41,4c-0.94,1.09-2.21,1.81-3.81,2.18v-0.55c1.83,0.25,3.26,0.93,4.29,2.05
				c1.04,1.12,1.55,2.58,1.55,4.38c0,2.32-0.76,4.1-2.29,5.35c-1.53,1.25-3.68,1.87-6.44,1.87H161.12z M162.74,305.44h6.59
				c1.78,0,3.12-0.36,4.03-1.07c0.91-0.71,1.37-1.76,1.37-3.15c0-1.38-0.46-2.43-1.37-3.14c-0.91-0.72-2.26-1.07-4.03-1.07h-6.59
				V305.44z M162.74,317.17h7.18c1.85,0,3.22-0.36,4.11-1.09s1.33-1.83,1.33-3.31s-0.44-2.58-1.33-3.29s-2.26-1.07-4.11-1.07h-7.18
				V317.17z"/>
		</g>
	</g>
</g>
<g id="C" class="st0">
	<path class="st2" d="M223.63,337.57H58.53c-1.38,0-2.49,1.12-2.49,2.49v101.35c0,1.38,1.12,2.49,2.49,2.49h165.32
		c1.38,0,2.5-1.12,2.49-2.5l-0.23-101.35C226.12,338.68,225.01,337.57,223.63,337.57z"/>
</g>
<g id="C-letter" class="st0">
	<g class="st4">
		<g>
			<path class="st5" d="M142.31,407.42c-2.64,0-4.9-0.54-6.77-1.63c-1.88-1.09-3.31-2.63-4.31-4.64s-1.5-4.38-1.5-7.12
				c0-2.05,0.28-3.89,0.85-5.53c0.57-1.64,1.39-3.05,2.46-4.22c1.07-1.17,2.39-2.07,3.96-2.68c1.57-0.62,3.34-0.92,5.31-0.92
				c1.46,0,2.85,0.2,4.2,0.59c1.34,0.39,2.51,0.96,3.5,1.7c0.42,0.27,0.7,0.6,0.83,0.98c0.14,0.38,0.16,0.75,0.07,1.09
				c-0.09,0.35-0.25,0.63-0.5,0.87c-0.25,0.23-0.56,0.36-0.94,0.39c-0.38,0.02-0.8-0.11-1.24-0.41c-0.81-0.62-1.71-1.07-2.7-1.37
				c-0.99-0.3-2.02-0.44-3.11-0.44c-1.88,0-3.45,0.39-4.74,1.17c-1.28,0.78-2.26,1.91-2.92,3.39c-0.67,1.48-1,3.28-1,5.4
				c0,2.12,0.33,3.93,1,5.42s1.64,2.63,2.92,3.4c1.28,0.78,2.86,1.17,4.74,1.17c1.09,0,2.13-0.15,3.13-0.46
				c1-0.31,1.94-0.77,2.83-1.39c0.44-0.27,0.84-0.39,1.2-0.37c0.36,0.02,0.66,0.15,0.91,0.37c0.25,0.22,0.41,0.5,0.5,0.83
				s0.07,0.68-0.04,1.04c-0.11,0.36-0.35,0.66-0.72,0.91c-1.01,0.81-2.21,1.43-3.59,1.85C145.25,407.21,143.81,407.42,142.31,407.42
				z"/>
		</g>
	</g>
</g>
<g id="D">
	<path class="st6" d="M223.9,443.91H112.21c-1.38,0-2.49,1.12-2.49,2.49v61.46c0,1.38,1.12,2.49,2.49,2.49h111.67
		c1.38,0,2.49-1.12,2.49-2.49l0.02-61.46C226.39,445.02,225.27,443.91,223.9,443.91z"/>
</g>
<g id="D-letter">
	<g>
		<g>
			<path class="st5" d="M156.14,488.33c-0.67,0-1.18-0.18-1.54-0.54c-0.36-0.36-0.54-0.87-0.54-1.54v-21.94
				c0-0.67,0.18-1.18,0.54-1.54c0.36-0.36,0.87-0.54,1.54-0.54h7.14c4.29,0,7.6,1.12,9.93,3.35s3.5,5.46,3.5,9.68
				c0,2.1-0.3,3.96-0.89,5.59s-1.46,2.99-2.61,4.09c-1.15,1.1-2.55,1.94-4.2,2.52c-1.65,0.58-3.56,0.87-5.73,0.87H156.14z
				 M157.92,485.11h5.14c1.63,0,3.04-0.2,4.24-0.61c1.2-0.41,2.2-1.02,3.02-1.83c0.81-0.81,1.42-1.84,1.81-3.07s0.59-2.68,0.59-4.33
				c0-3.28-0.81-5.74-2.42-7.36s-4.03-2.44-7.23-2.44h-5.14V485.11z"/>
		</g>
	</g>
</g>
<g id="E" class="st0">
	<path class="st2" d="M485.8,220.3h90.4c1.38,0,2.49,1.12,2.49,2.49v73.37c0,1.38-1.12,2.49-2.49,2.49h-90.29
		c-1.38,0-2.49-1.11-2.49-2.49l-0.11-73.37C483.3,221.42,484.42,220.3,485.8,220.3z"/>
</g>
<g id="E-letter" class="st0">
	<g class="st4">
		<g>
			<path class="st5" d="M521.06,271.2c-0.67,0-1.18-0.18-1.54-0.54c-0.36-0.36-0.54-0.87-0.54-1.54v-21.94
				c0-0.67,0.18-1.18,0.54-1.54c0.36-0.36,0.87-0.54,1.54-0.54h13.5c0.52,0,0.91,0.13,1.18,0.39c0.27,0.26,0.41,0.64,0.41,1.13
				c0,0.52-0.14,0.91-0.41,1.18c-0.27,0.27-0.67,0.41-1.18,0.41h-11.88v8.18h11.06c0.54,0,0.94,0.14,1.2,0.41
				c0.26,0.27,0.39,0.65,0.39,1.15c0,0.52-0.13,0.91-0.39,1.17c-0.26,0.26-0.66,0.39-1.2,0.39h-11.06v8.58h11.88
				c0.52,0,0.91,0.14,1.18,0.41c0.27,0.27,0.41,0.65,0.41,1.15c0,0.52-0.14,0.91-0.41,1.17c-0.27,0.26-0.67,0.39-1.18,0.39H521.06z"
				/>
		</g>
	</g>
</g>
<g id="F" class="st0">
	<path class="st2" d="M485.85,297.09h175.61c1.38,0,2.49,1.12,2.49,2.49v115.44c0,1.38-1.12,2.49-2.49,2.49H486.02
		c-1.38,0-2.49-1.11-2.49-2.49l-0.16-115.44C483.36,298.21,484.48,297.09,485.85,297.09z"/>
</g>
<g id="F-letter" class="st0">
	<g class="st4">
		<g>
			<path class="st5" d="M561.42,371.96c-0.64,0-1.14-0.17-1.5-0.52c-0.36-0.35-0.54-0.85-0.54-1.52v-22.24
				c0-0.67,0.18-1.18,0.54-1.54c0.36-0.36,0.87-0.54,1.54-0.54h13.17c0.54,0,0.94,0.13,1.2,0.39c0.26,0.26,0.39,0.64,0.39,1.13
				c0,0.52-0.13,0.91-0.39,1.18s-0.66,0.41-1.2,0.41h-11.4v8.33h10.66c0.49,0,0.88,0.13,1.17,0.39c0.28,0.26,0.42,0.64,0.42,1.13
				c0,0.52-0.14,0.91-0.42,1.18c-0.28,0.27-0.67,0.41-1.17,0.41h-10.66v9.77C563.23,371.29,562.63,371.96,561.42,371.96z"/>
		</g>
	</g>
</g>
<g id="G" class="st0">
	<path class="st2" d="M476.29,417.51H661.8c1.38,0,2.49,1.12,2.49,2.49v88.32c0,1.38-1.12,2.49-2.49,2.49H476.4
		c-1.38,0-2.49-1.11-2.49-2.49l-0.11-88.32C473.8,418.63,474.91,417.51,476.29,417.51z"/>
</g>
<g id="G-letter" class="st0">
	<g class="st4">
		<g>
			<path class="st5" d="M565.92,477.47c-2.84,0-5.23-0.54-7.18-1.61s-3.42-2.61-4.42-4.61s-1.5-4.38-1.5-7.14
				c0-2.07,0.29-3.93,0.87-5.57c0.58-1.64,1.42-3.05,2.52-4.22c1.1-1.17,2.44-2.07,4.03-2.68c1.59-0.62,3.4-0.92,5.42-0.92
				c1.48,0,2.94,0.19,4.37,0.57c1.43,0.38,2.74,1.01,3.92,1.87c0.35,0.25,0.57,0.53,0.67,0.85c0.1,0.32,0.1,0.65,0.02,0.98
				c-0.09,0.33-0.25,0.62-0.48,0.87c-0.24,0.25-0.52,0.39-0.85,0.44c-0.33,0.05-0.7-0.05-1.09-0.3c-0.96-0.67-1.97-1.15-3.03-1.46
				c-1.06-0.31-2.23-0.46-3.52-0.46c-1.92,0-3.55,0.39-4.87,1.18c-1.32,0.79-2.31,1.93-2.98,3.42c-0.67,1.49-1,3.3-1,5.42
				c0,3.28,0.78,5.77,2.33,7.47s3.86,2.55,6.92,2.55c1.11,0,2.2-0.1,3.27-0.31c1.07-0.21,2.1-0.51,3.09-0.91l-0.78,1.92v-8.62h-4.77
				c-0.49,0-0.88-0.13-1.17-0.39c-0.28-0.26-0.42-0.62-0.42-1.09s0.14-0.82,0.42-1.05s0.67-0.35,1.17-0.35h6.4
				c0.52,0,0.91,0.14,1.18,0.41c0.27,0.27,0.41,0.67,0.41,1.18v9.32c0,0.44-0.08,0.82-0.24,1.13s-0.42,0.54-0.79,0.68
				c-1.06,0.42-2.31,0.76-3.74,1.02C568.67,477.34,567.27,477.47,565.92,477.47z"/>
		</g>
	</g>
</g>
<g id="H" class="st0">
	<path class="st2" d="M229.65,510.36h240.96c1.3,0,2.39,0.99,2.49,2.29c0.98,12.49,0.96,30.6-4.25,51.09
		c-15.13,59.48-60.54,85.81-65.85,88.76c-18.04,10.04-35.2,13.41-48.01,14.38c-0.09,0.01-0.18,0.01-0.27,0.01
		c-10.05-0.32-62.83-0.6-95.88-48.11c-38.21-54.93-33.36-92.11-31.67-106.24C227.33,511.29,228.39,510.36,229.65,510.36z"/>
</g>
<g id="H-letter" class="st0">
	<g class="st4">
		<g>
			<path class="st5" d="M337.87,595.92c-0.62,0-1.09-0.17-1.42-0.52s-0.5-0.83-0.5-1.44v-22.68c0-0.64,0.17-1.13,0.5-1.46
				s0.81-0.5,1.42-0.5c0.62,0,1.09,0.17,1.42,0.5s0.5,0.82,0.5,1.46v9.55h14.62v-9.55c0-0.64,0.17-1.13,0.5-1.46s0.81-0.5,1.42-0.5
				c0.62,0,1.09,0.17,1.41,0.5c0.32,0.33,0.48,0.82,0.48,1.46v22.68c0,0.62-0.16,1.1-0.48,1.44c-0.32,0.34-0.79,0.52-1.41,0.52
				c-0.62,0-1.09-0.17-1.42-0.52s-0.5-0.83-0.5-1.44v-9.92h-14.62v9.92c0,0.62-0.16,1.1-0.48,1.44
				C338.99,595.74,338.51,595.92,337.87,595.92z"/>
		</g>
	</g>
</g>
</svg>
