<?xml version="1.0" encoding="utf-8"?>
<!-- Generator: Adobe Illustrator 25.4.8, SVG Export Plug-In . SVG Version: 6.00 Build 0)  -->
<svg version="1.1" id="Layer_1" xmlns="http://www.w3.org/2000/svg" xmlns:xlink="http://www.w3.org/1999/xlink" x="0px" y="0px"
	 viewBox="0 0 152 112" style="enable-background:new 0 0 152 112;" xml:space="preserve">
<style type="text/css">
	.st0{fill:#0DB1F2;}
</style>
<path class="st0" d="M139.62,0.12H13.34C6.46,0.12,0.88,5.7,0.88,12.58v86.87c0,6.88,5.58,12.46,12.46,12.46h126.28
	c6.88,0,12.46-5.58,12.46-12.46V12.58C152.08,5.7,146.5,0.12,139.62,0.12z M146.25,15.6c0.43,1.77,0.86,3.56,0.77,5.38
	c-0.09,1.82-0.77,3.69-2.19,4.81c-1.43,1.13-3.68,1.27-5,0.02c-0.85-0.8-1.2-2.03-1.16-3.2c0.04-1.17,0.43-2.29,0.87-3.38
	c1.27-3.14,3.34-6.23,5.46-8.86C145.41,12.12,145.83,13.86,146.25,15.6z M142.64,39.13c-0.99,0-1.8-0.81-1.8-1.8
	c0-0.99,0.81-1.8,1.8-1.8c0.99,0,1.8,0.81,1.8,1.8C144.44,38.33,143.64,39.13,142.64,39.13z M144.52,54.37c0,0.99-0.81,1.8-1.8,1.8
	c-0.99,0-1.8-0.81-1.8-1.8c0-0.99,0.81-1.8,1.8-1.8C143.71,52.57,144.52,53.37,144.52,54.37z M144.44,42.95c0,0.99-0.81,1.8-1.8,1.8
	c-0.99,0-1.8-0.81-1.8-1.8s0.81-1.8,1.8-1.8C143.64,41.15,144.44,41.96,144.44,42.95z M142.49,33.45c-0.99,0-1.8-0.81-1.8-1.8
	c0-0.99,0.81-1.8,1.8-1.8c0.99,0,1.8,0.81,1.8,1.8C144.29,32.64,143.49,33.45,142.49,33.45z M142.57,46.88c0.99,0,1.8,0.81,1.8,1.8
	c0,0.99-0.81,1.8-1.8,1.8c-0.99,0-1.8-0.81-1.8-1.8C140.77,47.69,141.57,46.88,142.57,46.88z M142.72,58.19c0.99,0,1.8,0.81,1.8,1.8
	c0,0.99-0.81,1.8-1.8,1.8c-0.99,0-1.8-0.81-1.8-1.8C140.92,58.99,141.72,58.19,142.72,58.19z M142.77,63.81c0.99,0,1.8,0.81,1.8,1.8
	c0,0.99-0.81,1.8-1.8,1.8c-0.99,0-1.8-0.81-1.8-1.8C140.96,64.62,141.77,63.81,142.77,63.81z M129.78,4.89
	c0.91-0.83,2.26-1.05,3.52-0.88c1.26,0.18,2.45,0.71,3.63,1.24c1.16,0.52,2.31,1.04,3.47,1.55c-2.02,1.12-4.34,2.13-6.62,2.59
	c-0.79,0.16-1.6,0.28-2.41,0.15c-0.81-0.13-1.62-0.53-2.09-1.22C128.55,7.26,128.87,5.73,129.78,4.89z M113.3,34.85
	c0.62,1.41-0.68,2.72-2.57,3.62c-4.04,1.92-13.17,3.74-13.17,3.74s6.39-6.14,10.5-8.04C110.97,32.82,112.78,33.68,113.3,34.85z
	 M117.72,44.28c0.19,1.53-1.43,2.41-3.49,2.73c-4.42,0.68-13.69-0.17-13.69-0.17s7.88-4.06,12.36-4.71
	C116.07,41.66,117.56,43.01,117.72,44.28z M106.36,25.96c1.09,1.09,0.36,2.78-1.08,4.3c-3.07,3.25-10.91,8.27-10.91,8.27
	s3.73-8.04,6.86-11.3C103.45,24.91,105.45,25.06,106.36,25.96z M99.42,21.19c1.19,0.98,0.62,2.74-0.67,4.38
	C96,29.1,88.66,34.83,88.66,34.83s2.96-8.35,5.77-11.9C96.43,20.41,98.43,20.38,99.42,21.19z M96.11,6.18c0.99,0,1.8,0.81,1.8,1.8
	c0,0.99-0.81,1.8-1.8,1.8c-0.99,0-1.8-0.81-1.8-1.8C94.31,6.99,95.12,6.18,96.11,6.18z M90.49,6.18c0.99,0,1.8,0.81,1.8,1.8
	c0,0.99-0.81,1.8-1.8,1.8c-0.99,0-1.8-0.81-1.8-1.8C88.69,6.99,89.49,6.18,90.49,6.18z M89.74,17.36c1.42,0.6,1.37,2.45,0.61,4.39
	c-1.63,4.16-7.03,11.75-7.03,11.75s0.45-8.85,2.13-13.05C86.65,17.47,88.56,16.86,89.74,17.36z M84.8,6.33c0.99,0,1.8,0.81,1.8,1.8
	c0,0.99-0.81,1.8-1.8,1.8c-0.99,0-1.8-0.81-1.8-1.8C83,7.14,83.81,6.33,84.8,6.33z M78.37,6.26c0.99,0,1.8,0.81,1.8,1.8
	c0,0.99-0.81,1.8-1.8,1.8c-0.99,0-1.8-0.81-1.8-1.8C76.57,7.06,77.38,6.26,78.37,6.26z M78.59,15.64c1.54,0.04,2.17,1.78,2.16,3.87
	c-0.01,4.47-2.28,13.5-2.28,13.5s-2.79-8.41-2.75-12.93C75.75,16.86,77.31,15.6,78.59,15.64z M72.75,6.26c0.99,0,1.8,0.81,1.8,1.8
	c0,0.99-0.81,1.8-1.8,1.8c-0.99,0-1.8-0.81-1.8-1.8C70.95,7.06,71.75,6.26,72.75,6.26z M72.67,19.87
	c0.34,4.46-1.22,13.64-1.22,13.64S68,25.34,67.69,20.82c-0.22-3.2,1.24-4.58,2.52-4.65C71.75,16.1,72.51,17.78,72.67,19.87z
	 M67.06,6.41c0.99,0,1.8,0.81,1.8,1.8c0,0.99-0.81,1.8-1.8,1.8c-0.99,0-1.8-0.81-1.8-1.8C65.26,7.22,66.07,6.41,67.06,6.41z
	 M61.17,6.33c0.99,0,1.8,0.81,1.8,1.8c0,0.99-0.81,1.8-1.8,1.8c-0.99,0-1.8-0.81-1.8-1.8C59.37,7.14,60.17,6.33,61.17,6.33z
	 M60.47,19.86c1.45-0.51,2.66,0.88,3.41,2.84c1.6,4.18,2.72,13.42,2.72,13.42s-5.63-6.84-7.21-11.08
	C58.26,22.03,59.27,20.29,60.47,19.86z M55.55,6.33c0.99,0,1.8,0.81,1.8,1.8c0,0.99-0.81,1.8-1.8,1.8c-0.99,0-1.8-0.81-1.8-1.8
	C53.75,7.14,54.55,6.33,55.55,6.33z M55.28,27.5c3.01,3.31,7.4,11.52,7.4,11.52s-7.73-4.34-10.74-7.71
	c-2.14-2.39-1.84-4.38-0.87-5.21C52.24,25.1,53.88,25.96,55.28,27.5z M49.86,6.48c0.99,0,1.8,0.81,1.8,1.8c0,0.99-0.81,1.8-1.8,1.8
	s-1.8-0.81-1.8-1.8C48.06,7.29,48.87,6.48,49.86,6.48z M50.1,33.66c3.3,3.01,8.45,10.77,8.45,10.77s-8.1-3.59-11.42-6.67
	c-2.36-2.18-2.24-4.19-1.35-5.11C46.85,31.54,48.56,32.25,50.1,33.66z M44.13,6.41c0.99,0,1.8,0.81,1.8,1.8c0,0.99-0.81,1.8-1.8,1.8
	c-0.99,0-1.8-0.81-1.8-1.8C42.33,7.22,43.14,6.41,44.13,6.41z M41.22,42.01c0.71-1.37,2.54-1.18,4.43-0.27
	c4.03,1.94,11.18,7.91,11.18,7.91s-8.79-1.13-12.85-3.13C41.09,45.1,40.63,43.15,41.22,42.01z M55.96,54.45c0,0-8.6,2.14-13.11,1.75
	c-3.2-0.28-4.34-1.93-4.2-3.2c0.16-1.53,1.94-2.02,4.03-1.86C47.13,51.48,55.96,54.45,55.96,54.45z M32.82,6.56
	c0.99,0,1.8,0.81,1.8,1.8c0,0.99-0.81,1.8-1.8,1.8c-0.99,0-1.8-0.81-1.8-1.8C31.02,7.37,31.83,6.56,32.82,6.56z M18.32,3.89
	c1.82,0.05,3.66,0.1,5.4,0.66c1.73,0.56,3.36,1.7,4.07,3.37s0.27,3.89-1.28,4.84c-1,0.61-2.27,0.63-3.39,0.28
	c-1.12-0.34-2.1-1.01-3.03-1.72c-2.7-2.05-5.14-4.85-7.13-7.59C14.74,3.79,16.53,3.84,18.32,3.89z M22.06,16.23
	c4.52,2.7,7.15,3.46,8.92,6.14c1.48,2.24,1.76,5,0.95,7.56c-0.47,1.46-0.97,2.86-2.96,4.36c-0.23,0.18-2.45,1.72-5.22,1.44
	c-3.15-0.33-5.41-1.88-7.02-3.79c-0.26-0.31-0.5-0.62-0.72-0.95c-0.78-1.12-1.37-2.3-1.8-3.39c-0.97-2.45-1.75-5.45-2.03-11.69
	c-0.19-4.32-0.6-7.87-0.81-10.13C14.52,10.34,18.16,13.9,22.06,16.23z M13.91,68.54c-0.99,0-1.8-0.81-1.8-1.8
	c0-0.99,0.81-1.8,1.8-1.8c0.99,0,1.8,0.81,1.8,1.8C15.71,67.73,14.91,68.54,13.91,68.54z M15.71,72.36c0,0.99-0.81,1.8-1.8,1.8
	c-0.99,0-1.8-0.81-1.8-1.8c0-0.99,0.81-1.8,1.8-1.8C14.91,70.56,15.71,71.37,15.71,72.36z M13.84,51.5c-0.99,0-1.8-0.81-1.8-1.8
	c0-0.99,0.81-1.8,1.8-1.8c0.99,0,1.8,0.81,1.8,1.8C15.64,50.7,14.83,51.5,13.84,51.5z M15.64,55.32c0,0.99-0.81,1.8-1.8,1.8
	c-0.99,0-1.8-0.81-1.8-1.8c0-0.99,0.81-1.8,1.8-1.8C14.83,53.52,15.64,54.33,15.64,55.32z M13.69,45.82c-0.99,0-1.8-0.81-1.8-1.8
	c0-0.99,0.81-1.8,1.8-1.8c0.99,0,1.8,0.81,1.8,1.8C15.49,45.01,14.68,45.82,13.69,45.82z M13.76,59.25c0.99,0,1.8,0.81,1.8,1.8
	c0,0.99-0.81,1.8-1.8,1.8c-0.99,0-1.8-0.81-1.8-1.8C11.96,60.06,12.77,59.25,13.76,59.25z M13.84,76.18c0.99,0,1.8,0.81,1.8,1.8
	c0,0.99-0.81,1.8-1.8,1.8c-0.99,0-1.8-0.81-1.8-1.8C12.04,76.99,12.84,76.18,13.84,76.18z M13.99,81.87c0.99,0,1.8,0.81,1.8,1.8
	c0,0.99-0.81,1.8-1.8,1.8c-0.99,0-1.8-0.81-1.8-1.8C12.19,82.67,12.99,81.87,13.99,81.87z M3.68,16.99
	c-0.57-1.1-0.43-2.46,0.07-3.63c0.5-1.17,1.33-2.18,2.14-3.18C6.7,9.2,7.5,8.22,8.3,7.24c0.55,2.24,0.92,4.74,0.77,7.07
	c-0.05,0.8-0.15,1.62-0.48,2.36c-0.33,0.75-0.93,1.42-1.72,1.7C5.65,18.79,4.25,18.09,3.68,16.99z M6.21,96.75
	c-0.43-1.77-0.86-3.56-0.77-5.38c0.09-1.82,0.77-3.69,2.19-4.81c1.43-1.13,3.68-1.27,5-0.02c0.85,0.8,1.2,2.03,1.16,3.2
	c-0.04,1.17-0.43,2.29-0.87,3.38c-1.27,3.14-3.34,6.23-5.46,8.86C7.05,100.23,6.63,98.49,6.21,96.75z M22.68,107.46
	c-0.91,0.83-2.26,1.05-3.52,0.88c-1.26-0.18-2.45-0.71-3.63-1.24c-1.16-0.52-2.31-1.04-3.47-1.55c2.02-1.12,4.34-2.13,6.62-2.59
	c0.79-0.16,1.6-0.28,2.41-0.15c0.81,0.13,1.62,0.53,2.09,1.22C23.9,105.09,23.59,106.63,22.68,107.46z M30.17,94.53
	c-2.11,1.58-4.8,3.12-10.76,5.01c-4.12,1.31-7.44,2.63-9.57,3.42c3.57-4.23,6.06-8.68,7.29-13.05c1.43-5.07,1.47-7.81,3.6-10.22
	c1.77-2.01,4.37-3.01,7.05-2.89c1.53,0.07,3.01,0.19,4.98,1.72c0.23,0.18,2.3,1.91,2.75,4.66C36.4,88.58,33.07,92.37,30.17,94.53z
	 M36.71,8.21c0-0.99,0.81-1.8,1.8-1.8s1.8,0.81,1.8,1.8c0,0.99-0.81,1.8-1.8,1.8S36.71,9.21,36.71,8.21z M37.66,62.17
	c-0.13-1.53,1.52-2.36,3.6-2.59c4.44-0.51,13.67,0.72,13.67,0.72s-8.03,3.74-12.53,4.22C39.2,64.84,37.77,63.44,37.66,62.17z
	 M38.97,69.03c-0.26-1.52,1.31-2.48,3.36-2.89c4.38-0.88,13.68-0.45,13.68-0.45s-7.69,4.41-12.13,5.27
	C40.74,71.57,39.19,70.29,38.97,69.03z M43.29,76.67c-0.5-1.46,0.9-2.66,2.86-3.39c4.19-1.57,13.44-2.63,13.44-2.63
	s-6.88,5.58-11.13,7.14C45.44,78.89,43.71,77.88,43.29,76.67z M53.83,107.99c-0.99,0-1.8-0.81-1.8-1.8c0-0.99,0.81-1.8,1.8-1.8
	c0.99,0,1.8,0.81,1.8,1.8C55.63,107.18,54.82,107.99,53.83,107.99z M54.82,84.59c-2.57,1.92-4.52,1.44-5.27,0.4
	c-0.9-1.25,0.11-2.8,1.77-4.06c3.56-2.7,12.13-6.36,12.13-6.36S58.45,81.88,54.82,84.59z M59.51,107.84c-0.99,0-1.8-0.81-1.8-1.8
	c0-0.99,0.81-1.8,1.8-1.8c0.99,0,1.8,0.81,1.8,1.8C61.31,107.03,60.51,107.84,59.51,107.84z M58.17,92.27
	c-1.29-0.84-0.92-2.65,0.18-4.43c2.34-3.81,8.99-10.32,8.99-10.32s-2.01,8.63-4.4,12.47C61.23,92.71,59.24,92.97,58.17,92.27z
	 M65.13,107.84c-0.99,0-1.8-0.81-1.8-1.8c0-0.99,0.81-1.8,1.8-1.8c0.99,0,1.8,0.81,1.8,1.8C66.93,107.03,66.13,107.84,65.13,107.84z
	 M70.86,107.91c-0.99,0-1.8-0.81-1.8-1.8c0-0.99,0.81-1.8,1.8-1.8c0.99,0,1.8,0.81,1.8,1.8C72.66,107.11,71.86,107.91,70.86,107.91z
	 M70.46,92.8c-1.44,2.87-3.39,3.32-4.53,2.72c-1.36-0.71-1.16-2.55-0.24-4.43c1.97-4.01,7.98-11.12,7.98-11.12
	S72.49,88.75,70.46,92.8z M72.24,69.65c-0.24-0.54-0.37-0.99-0.63-1.88c-0.83-2.87-0.6-3.48-0.41-3.8c0.2-0.34,0.57-0.68,0.74-0.61
	c0.12,0.05,0.11,0.29,0.1,0.96c-0.02,1.58,0.05,1.35,0,1.82c-0.06,0.55-0.15,0.82-0.02,1.23c0.09,0.29,0.26,0.59,0.35,0.57
	c0.09-0.02,0.11-0.41,0.08-0.69c-0.04-0.33-0.14-0.5-0.04-0.71c0.01-0.03,0.09-0.18,0.18-0.18c0.19,0.01,0.3,0.73,0.33,0.92
	c0.07,0.43,0.02,0.53,0.12,0.82c0.09,0.26,0.26,0.61,0.37,0.59c0.12-0.03,0.18-0.52,0.16-0.88c-0.01-0.27-0.07-0.41,0.02-0.49
	c0.11-0.1,0.37-0.08,0.51,0.06c0.16,0.16,0.08,0.39,0.02,1.29c-0.03,0.45-0.02,0.63,0.1,0.8c0.13,0.18,0.37,0.34,0.49,0.27
	c0.06-0.03,0.12-0.14-0.04-1.49c-0.03-0.23-0.05-0.4,0.06-0.51c0.15-0.14,0.48-0.12,0.65,0.06c0.06,0.06,0.09,0.14,0.12,0.41
	c0.04,0.51-0.05,0.64,0,0.96c0.05,0.3,0.2,0.65,0.33,0.65c0.14-0.01,0.24-0.42,0.25-0.51c0.02-0.07,0.07-0.35,0.02-1.08
	c-0.02-0.26-0.03-0.33,0.02-0.39c0.16-0.2,0.74-0.13,0.92,0.16c0.04,0.07,0.05,0.13,0.02,0.71c-0.03,0.53-0.05,0.69,0.06,0.8
	c0.09,0.1,0.25,0.14,0.37,0.1c0.19-0.06,0.26-0.3,0.27-0.37c0.06-0.24-0.03-0.35-0.1-0.8c-0.05-0.34-0.08-0.5,0-0.61
	c0.18-0.25,0.8-0.24,0.98,0.02c0.12,0.17-0.03,0.33-0.1,0.92c-0.03,0.27-0.1,0.88,0.1,0.96c0.12,0.05,0.33-0.09,0.43-0.25
	c0.07-0.11,0.11-0.25,0.08-1.1c-0.01-0.25-0.02-0.32,0.04-0.39c0.17-0.21,0.69-0.18,0.86,0.06c0.08,0.11,0.04,0.22-0.04,0.86
	c-0.08,0.6-0.07,0.71,0,0.76c0.11,0.08,0.37-0.02,0.49-0.2c0.08-0.12,0.07-0.24,0.04-0.8c-0.03-0.5-0.03-0.59,0.04-0.69
	c0.13-0.19,0.39-0.24,0.49-0.25c0.16-0.03,0.3-0.05,0.39,0.02c0.06,0.05,0.13,0.17,0.02,0.98c-0.07,0.46-0.12,0.65-0.02,0.73
	c0.09,0.07,0.26,0,0.35-0.06c0.05-0.04,0.18-0.14,0.25-0.47c0.04-0.18,0.04-0.33,0-0.86c-0.04-0.5-0.07-0.61,0.02-0.73
	c0.12-0.17,0.38-0.26,0.53-0.18c0.13,0.07,0.15,0.25,0.18,0.49c0.06,0.51-0.07,0.82,0.02,0.86c0.07,0.04,0.23-0.11,0.33-0.25
	c0.09-0.13,0.17-0.32,0.18-0.92c0-0.59-0.08-0.79,0.08-0.98c0.11-0.13,0.3-0.2,0.35-0.16c0.05,0.05-0.06,0.18-0.12,0.41
	c-0.09,0.37-0.01,0.81,0.14,0.84c0.09,0.02,0.19-0.1,0.24-0.16c0.31-0.38,0.27-0.9,0.24-1.49c-0.05-1-0.08-1.5,0.04-1.84
	c0.19-0.56,0.63-1.07,0.82-1c0.15,0.05,0.15,0.47,0.02,1.59c-0.21,1.81-0.31,2.72-0.61,3.76c-0.44,1.55-0.66,2.32-1.31,3.16
	c-0.29,0.36-0.96,1.2-2.14,1.69c-1.25,0.52-2.33,0.33-4.17,0c-1.56-0.27-2.33-0.41-3.06-1.02C73.05,71.49,72.65,70.59,72.24,69.65z
	 M76.55,107.76c-0.99,0-1.8-0.81-1.8-1.8c0-0.99,0.81-1.8,1.8-1.8c0.99,0,1.8,0.81,1.8,1.8C78.35,106.96,77.54,107.76,76.55,107.76z
	 M79.76,93.39c-0.56,3.16-2.31,4.15-3.56,3.9c-1.51-0.3-1.84-2.11-1.5-4.17c0.74-4.41,4.47-12.94,4.47-12.94
	S80.54,88.93,79.76,93.39z M82.17,107.76c-0.99,0-1.8-0.81-1.8-1.8c0-0.99,0.81-1.8,1.8-1.8c0.99,0,1.8,0.81,1.8,1.8
	C83.97,106.96,83.16,107.76,82.17,107.76z M84.55,93.35c-0.91-4.38-0.53-13.68-0.53-13.68s4.46,7.66,5.34,12.1
	c0.63,3.15-0.64,4.7-1.9,4.93C85.94,96.97,84.97,95.39,84.55,93.35z M88.06,107.84c-0.99,0-1.8-0.81-1.8-1.8
	c0-0.99,0.81-1.8,1.8-1.8c0.99,0,1.8,0.81,1.8,1.8C89.86,107.03,89.06,107.84,88.06,107.84z M89.28,57.08
	c-0.1,0-0.18-0.23-0.34-0.69c-0.19-0.53-0.2-0.89-0.27-1.43c-0.08-0.62-0.27-1.66-0.39-1.66c-0.12,0.01-0.16,1.08-0.17,1.2
	c-0.03,0.82-0.05,1.91,0.39,3.19c0.19,0.54,0.22,0.42,0.64,1.47c0.45,1.12,0.67,1.68,0.6,2.03c-0.22,1.04-1.65,1.79-2.65,1.68
	c-0.41-0.05-0.77-0.19-0.77-0.19c-0.6-0.24-0.72-0.51-1.12-0.54c-0.34-0.02-0.6,0.16-0.85,0.33c-0.54,0.37-0.76,0.88-0.89,1.18
	c-0.2,0.45-0.36,0.83-0.27,1.28c0.06,0.27,0.2,0.55,0.08,0.66c-0.05,0.05-0.16,0.06-0.23,0.02c-0.15-0.09-0.07-0.36-0.12-0.91
	c-0.03-0.31-0.05-0.5-0.17-0.54c-0.12-0.04-0.3,0.09-0.39,0.25c-0.05,0.1-0.1,0.25,0.06,0.87c0.14,0.54,0.24,0.69,0.14,0.85
	c-0.09,0.15-0.31,0.25-0.48,0.19c-0.33-0.12-0.37-0.89-0.39-1.28c-0.02-0.44,0.03-0.67-0.08-0.72c-0.12-0.05-0.36,0.13-0.48,0.35
	c-0.2,0.38-0.05,0.87,0.06,1.22c0.14,0.44,0.27,0.57,0.19,0.75c-0.09,0.18-0.36,0.28-0.58,0.25c-0.22-0.03-0.35-0.19-0.41-0.27
	c-0.16-0.2-0.21-0.41-0.27-0.89c-0.1-0.81-0.06-1.08-0.19-1.12c-0.12-0.04-0.32,0.16-0.41,0.37c-0.1,0.23-0.04,0.38,0.02,1.04
	c0.05,0.57,0.03,0.65-0.02,0.72c-0.17,0.25-0.58,0.32-0.89,0.23c-0.07-0.02-0.26-0.08-0.39-0.25c-0.19-0.23-0.11-0.47-0.12-1.2
	c-0.02-0.86-0.13-0.92-0.17-0.93c-0.11-0.03-0.25,0.13-0.29,0.19c-0.31,0.37-0.27,0.94-0.23,1.39c0.04,0.45,0.11,0.55,0.02,0.68
	c-0.21,0.31-0.93,0.33-1.18,0.02c-0.14-0.17-0.11-0.44-0.06-0.97c0.04-0.38,0.09-0.51,0.02-0.72c-0.08-0.25-0.29-0.51-0.46-0.48
	c-0.14,0.03-0.2,0.26-0.25,0.43c-0.07,0.27-0.07,0.52-0.04,0.77c0.07,0.59,0.26,0.77,0.14,0.93c-0.13,0.19-0.5,0.14-0.6,0.12
	c-0.1-0.01-0.45-0.06-0.58-0.31c-0.09-0.18,0-0.3,0.14-1.01c0.09-0.45,0.09-0.57,0.04-0.7c-0.09-0.26-0.32-0.5-0.46-0.46
	c-0.05,0.02-0.09,0.08-0.14,0.43c-0.06,0.38-0.1,0.82-0.12,1.01c-0.04,0.44-0.07,0.54-0.14,0.58c-0.12,0.06-0.35-0.07-0.46-0.25
	c-0.2-0.35,0.05-0.95,0.21-1.3c0.08-0.19,0.16-0.33,0.12-0.52c-0.04-0.2-0.21-0.41-0.35-0.39c-0.24,0.02-0.36,0.64-0.39,0.83
	c-0.11,0.58-0.02,0.99-0.12,1.01c-0.06,0.02-0.16-0.12-0.21-0.23c-0.14-0.3-0.02-0.58,0.06-0.95c0.08-0.39,0.1-0.77,0.08-0.99
	c-0.05-0.58-0.45-1.29-1.01-1.47c-0.67-0.22-0.98,0.54-1.88,0.6c-1.31,0.09-2.83-1.38-2.98-2.84c-0.03-0.33,0.07-0.71,0.28-1.47
	c0.48-1.8,0.89-2.17,1.15-3.44c0.22-1.07,0.21-2.22,0.05-2.25c-0.13-0.02-0.44,0.64-1.24,3.69c-1.42-4.75-1.8-9.6,1.1-13.39
	c4.07-5.32,10.64-4.83,11.01-4.82c4.22,0.18,7.08,1.79,8.8,3.97c1.16,1.47,1.54,2.88,1.94,4.47C91.25,52.04,89.74,57.1,89.28,57.08z
	 M93.75,107.69c-0.99,0-1.8-0.81-1.8-1.8c0-0.99,0.81-1.8,1.8-1.8c0.99,0,1.8,0.81,1.8,1.8C95.55,106.88,94.74,107.69,93.75,107.69z
	 M95.55,94.45c-1.49,0.39-2.58-1.1-3.16-3.11c-1.25-4.29-1.59-13.6-1.59-13.6s5.04,7.29,6.26,11.64
	C97.93,92.48,96.79,94.13,95.55,94.45z M99.37,107.69c-0.99,0-1.8-0.81-1.8-1.8c0-0.99,0.81-1.8,1.8-1.8c0.99,0,1.8,0.81,1.8,1.8
	C101.17,106.88,100.37,107.69,99.37,107.69z M100.41,86.77C97.99,83.01,95,74.2,95,74.2s6.91,5.55,9.33,9.37
	c1.72,2.71,1.09,4.62,0,5.28C103.01,89.65,101.54,88.53,100.41,86.77z M105.8,107.76c-0.99,0-1.8-0.81-1.8-1.8
	c0-0.99,0.81-1.8,1.8-1.8c0.99,0,1.8,0.81,1.8,1.8C107.6,106.96,106.8,107.76,105.8,107.76z M98.24,70.55c0,0,8.45,2.66,12.09,5.35
	c2.58,1.91,2.69,3.91,1.91,4.93c-0.94,1.22-2.71,0.71-4.4-0.51C104.23,77.68,98.24,70.55,98.24,70.55z M111.49,107.61
	c-0.99,0-1.8-0.81-1.8-1.8c0-0.99,0.81-1.8,1.8-1.8c0.99,0,1.8,0.81,1.8,1.8C113.29,106.81,112.48,107.61,111.49,107.61z
	 M111.66,73.23c-3.85-2.27-10.48-8.81-10.48-8.81s8.66,1.86,12.54,4.19c2.75,1.65,3.05,3.64,2.37,4.72
	C115.27,74.63,113.46,74.29,111.66,73.23z M101.81,58.95c0,0,8.83-0.7,13.22,0.43c3.11,0.8,3.96,2.62,3.62,3.85
	c-0.41,1.48-2.25,1.68-4.28,1.17C110.03,63.32,101.81,58.95,101.81,58.95z M117.11,107.61c-0.99,0-1.8-0.81-1.8-1.8
	c0-0.99,0.81-1.8,1.8-1.8c0.99,0,1.8,0.81,1.8,1.8C118.91,106.81,118.11,107.61,117.11,107.61z M115.35,54.6
	c-4.44,0.57-13.68-0.52-13.68-0.52s7.98-3.85,12.47-4.39c3.19-0.38,4.64,1,4.77,2.27C119.06,53.49,117.42,54.33,115.35,54.6z
	 M116.93,29.16c-0.88-5.38,2.46-9.17,5.35-11.33c2.11-1.58,4.8-3.12,10.76-5.01c4.12-1.31,7.44-2.63,9.57-3.42
	c-3.57,4.23-6.06,8.68-7.29,13.05c-1.43,5.07-1.47,7.81-3.6,10.22c-1.77,2.01-4.37,3.01-7.05,2.89c-1.53-0.07-3.01-0.19-4.98-1.72
	C119.45,33.64,117.37,31.9,116.93,29.16z M134.14,108.47c-1.82-0.05-3.66-0.1-5.4-0.66c-1.73-0.56-3.36-1.7-4.07-3.37
	c-0.71-1.67-0.27-3.89,1.28-4.84c1-0.61,2.27-0.63,3.39-0.28c1.12,0.34,2.1,1.01,3.03,1.72c2.7,2.05,5.14,4.85,7.13,7.59
	C137.72,108.56,135.93,108.51,134.14,108.47z M130.4,96.13c-4.52-2.7-7.15-3.46-8.92-6.14c-1.48-2.24-1.76-5-0.95-7.56
	c0.47-1.46,0.97-2.86,2.96-4.36c0.23-0.18,2.45-1.72,5.22-1.44c4.66,0.48,7.37,3.65,8.89,6.67c0.21,0.42,0.4,0.83,0.56,1.24
	c0.03,0.07,0.06,0.15,0.09,0.22c0.97,2.45,1.75,5.45,2.03,11.69c0.19,4.32,0.6,7.87,0.81,10.13
	C137.94,102.02,134.3,98.45,130.4,96.13z M141.12,71.3c0-0.99,0.81-1.8,1.8-1.8c0.99,0,1.8,0.81,1.8,1.8c0,0.99-0.81,1.8-1.8,1.8
	C141.92,73.1,141.12,72.29,141.12,71.3z M148.7,98.99c-0.5,1.17-1.33,2.18-2.14,3.18c-0.8,0.98-1.6,1.96-2.41,2.95
	c-0.55-2.24-0.92-4.74-0.77-7.07c0.05-0.8,0.15-1.62,0.48-2.36c0.33-0.75,0.93-1.42,1.72-1.7c1.23-0.43,2.63,0.28,3.19,1.37
	C149.34,96.46,149.2,97.82,148.7,98.99z"/>
<circle class="st0" cx="72.97" cy="56.9" r="3.47"/>
<circle class="st0" cx="83.57" cy="56.67" r="3.47"/>
<path class="st0" d="M78.52,58.75c-0.29,0-2.71,2.96-1.91,4.3c0.15,0.24,0.41,0.35,0.62,0.42c0.29,0.03,0.56,0.1,0.79-0.21
	c0.29-0.39,0.28-1.33,0.34-1.33c0.06,0,0,0.69,0.24,1.29c0.12,0.31,0.6,0.49,0.94,0.39c0.45-0.14,0.53-0.41,0.57-0.66
	c0.15-0.97-0.26-2.22-0.74-3.08C78.96,59.14,78.77,58.75,78.52,58.75z"/>
</svg>
