<?xml version="1.0" encoding="utf-8"?>
<!-- Generator: Adobe Illustrator 25.4.8, SVG Export Plug-In . SVG Version: 6.00 Build 0)  -->
<svg version="1.1" id="Layer_1" xmlns="http://www.w3.org/2000/svg" xmlns:xlink="http://www.w3.org/1999/xlink" x="0px" y="0px"
	 viewBox="0 0 152 112" style="enable-background:new 0 0 152 112;" xml:space="preserve">
<style type="text/css">
	.st0{fill:#B0D682;}
</style>
<path class="st0" d="M139.52,0.02H13.02C6.12,0.02,0.53,5.6,0.53,12.5v87.02c0,6.89,5.59,12.48,12.48,12.48h126.5
	c6.89,0,12.48-5.59,12.48-12.48V12.5C152,5.6,146.41,0.02,139.52,0.02z M146.16,15.52c0.43,1.77,0.86,3.57,0.77,5.39
	c-0.09,1.82-0.77,3.69-2.2,4.82s-3.69,1.27-5.01,0.02c-0.85-0.8-1.2-2.03-1.16-3.2c0.04-1.17,0.43-2.3,0.87-3.38
	c1.27-3.15,3.34-6.24,5.47-8.88C145.32,12.04,145.74,13.78,146.16,15.52z M142.55,39.1c-1,0-1.8-0.81-1.8-1.8c0-1,0.81-1.8,1.8-1.8
	c1,0,1.8,0.81,1.8,1.8C144.35,38.29,143.54,39.1,142.55,39.1z M144.43,54.36c0,1-0.81,1.8-1.8,1.8c-1,0-1.8-0.81-1.8-1.8
	c0-1,0.81-1.8,1.8-1.8C143.62,52.55,144.43,53.36,144.43,54.36z M144.35,42.92c0,1-0.81,1.8-1.8,1.8c-1,0-1.8-0.81-1.8-1.8
	c0-1,0.81-1.8,1.8-1.8C143.54,41.12,144.35,41.93,144.35,42.92z M142.4,33.4c-1,0-1.8-0.81-1.8-1.8c0-1,0.81-1.8,1.8-1.8
	c1,0,1.8,0.81,1.8,1.8C144.2,32.59,143.39,33.4,142.4,33.4z M142.47,46.86c1,0,1.8,0.81,1.8,1.8c0,1-0.81,1.8-1.8,1.8
	s-1.8-0.81-1.8-1.8C140.67,47.66,141.48,46.86,142.47,46.86z M142.62,58.18c1,0,1.8,0.81,1.8,1.8c0,1-0.81,1.8-1.8,1.8
	c-1,0-1.8-0.81-1.8-1.8C140.82,58.99,141.63,58.18,142.62,58.18z M142.67,63.81c1,0,1.8,0.81,1.8,1.8c0,1-0.81,1.8-1.8,1.8
	c-1,0-1.8-0.81-1.8-1.8C140.87,64.62,141.67,63.81,142.67,63.81z M129.66,4.8c0.91-0.84,2.27-1.06,3.53-0.88
	c1.26,0.18,2.46,0.71,3.64,1.24c1.16,0.52,2.32,1.04,3.48,1.56c-2.02,1.12-4.35,2.13-6.63,2.6c-0.79,0.16-1.6,0.28-2.41,0.15
	c-0.81-0.13-1.62-0.53-2.09-1.22C128.43,7.17,128.75,5.63,129.66,4.8z M113.15,34.81c0.62,1.41-0.68,2.73-2.57,3.62
	c-4.05,1.92-13.19,3.75-13.19,3.75s6.4-6.15,10.51-8.06C110.82,32.77,112.63,33.64,113.15,34.81z M117.58,44.25
	c0.2,1.53-1.43,2.42-3.5,2.74c-4.43,0.68-13.71-0.17-13.71-0.17s7.89-4.06,12.38-4.72C115.93,41.63,117.42,42.98,117.58,44.25z
	 M106.2,25.9c1.09,1.09,0.36,2.79-1.08,4.31c-3.08,3.26-10.93,8.28-10.93,8.28s3.74-8.05,6.87-11.32
	C103.29,24.85,105.29,25,106.2,25.9z M99.25,21.12c1.19,0.98,0.62,2.74-0.67,4.39c-2.76,3.53-10.11,9.27-10.11,9.27
	s2.96-8.37,5.78-11.92C96.25,20.34,98.26,20.3,99.25,21.12z M95.93,6.09c1,0,1.8,0.81,1.8,1.8c0,1-0.81,1.8-1.8,1.8
	c-1,0-1.8-0.81-1.8-1.8C94.13,6.89,94.94,6.09,95.93,6.09z M90.3,6.09c1,0,1.8,0.81,1.8,1.8c0,1-0.81,1.8-1.8,1.8
	c-1,0-1.8-0.81-1.8-1.8C88.5,6.89,89.31,6.09,90.3,6.09z M89.55,17.28c1.42,0.6,1.37,2.45,0.61,4.4
	c-1.63,4.17-7.04,11.77-7.04,11.77s0.45-8.87,2.14-13.07C86.45,17.39,88.37,16.78,89.55,17.28z M84.6,6.24c1,0,1.8,0.81,1.8,1.8
	c0,1-0.81,1.8-1.8,1.8c-1,0-1.8-0.81-1.8-1.8C82.8,7.05,83.61,6.24,84.6,6.24z M78.16,6.16c1,0,1.8,0.81,1.8,1.8
	c0,1-0.81,1.8-1.8,1.8c-1,0-1.8-0.81-1.8-1.8C76.36,6.97,77.17,6.16,78.16,6.16z M78.38,15.56c1.54,0.04,2.17,1.78,2.17,3.88
	c-0.01,4.48-2.29,13.52-2.29,13.52s-2.8-8.42-2.75-12.96C75.54,16.79,77.1,15.52,78.38,15.56z M72.53,6.16c1,0,1.8,0.81,1.8,1.8
	c0,1-0.81,1.8-1.8,1.8c-1,0-1.8-0.81-1.8-1.8C70.73,6.97,71.53,6.16,72.53,6.16z M72.45,19.79c0.34,4.47-1.23,13.66-1.23,13.66
	s-3.45-8.18-3.76-12.7c-0.22-3.21,1.24-4.59,2.52-4.65C71.53,16.02,72.29,17.71,72.45,19.79z M66.83,6.31c1,0,1.8,0.81,1.8,1.8
	c0,1-0.81,1.8-1.8,1.8c-1,0-1.8-0.81-1.8-1.8C65.03,7.12,65.84,6.31,66.83,6.31z M60.93,6.24c1,0,1.8,0.81,1.8,1.8
	c0,1-0.81,1.8-1.8,1.8c-1,0-1.8-0.81-1.8-1.8C59.13,7.05,59.93,6.24,60.93,6.24z M60.23,19.79c1.45-0.51,2.67,0.89,3.41,2.84
	c1.6,4.18,2.72,13.44,2.72,13.44s-5.64-6.86-7.23-11.1C58.02,21.96,59.02,20.22,60.23,19.79z M55.3,6.24c1,0,1.8,0.81,1.8,1.8
	c0,1-0.81,1.8-1.8,1.8c-1,0-1.8-0.81-1.8-1.8C53.49,7.05,54.3,6.24,55.3,6.24z M55.03,27.45c3.01,3.32,7.42,11.54,7.42,11.54
	s-7.74-4.34-10.76-7.72c-2.14-2.4-1.84-4.39-0.87-5.22C51.99,25.03,53.62,25.9,55.03,27.45z M49.6,6.39c1,0,1.8,0.81,1.8,1.8
	c0,1-0.81,1.8-1.8,1.8c-1,0-1.8-0.81-1.8-1.8C47.8,7.2,48.6,6.39,49.6,6.39z M49.84,33.61c3.31,3.02,8.47,10.79,8.47,10.79
	s-8.12-3.6-11.44-6.68c-2.36-2.19-2.24-4.19-1.35-5.12C46.59,31.49,48.3,32.2,49.84,33.61z M43.86,6.31c1,0,1.8,0.81,1.8,1.8
	c0,1-0.81,1.8-1.8,1.8c-1,0-1.8-0.81-1.8-1.8C42.06,7.12,42.87,6.31,43.86,6.31z M40.94,41.98c0.71-1.37,2.55-1.18,4.43-0.27
	c4.03,1.95,11.2,7.92,11.2,7.92s-8.8-1.13-12.87-3.13C40.82,45.07,40.36,43.12,40.94,41.98z M55.71,54.44c0,0-8.61,2.14-13.13,1.75
	c-3.2-0.28-4.34-1.93-4.21-3.21c0.16-1.53,1.95-2.03,4.03-1.86C46.87,51.47,55.71,54.44,55.71,54.44z M32.54,6.46
	c1,0,1.8,0.81,1.8,1.8c0,1-0.81,1.8-1.8,1.8c-1,0-1.8-0.81-1.8-1.8C30.73,7.27,31.54,6.46,32.54,6.46z M18,3.79
	c1.82,0.05,3.67,0.1,5.4,0.66c1.73,0.56,3.37,1.7,4.08,3.38s0.27,3.89-1.29,4.85c-1,0.61-2.28,0.63-3.39,0.28
	c-1.12-0.34-2.11-1.01-3.04-1.72c-2.7-2.05-5.15-4.85-7.14-7.6C14.42,3.69,16.21,3.74,18,3.79z M21.75,16.15
	c4.53,2.71,7.16,3.47,8.94,6.16c1.48,2.24,1.76,5.01,0.95,7.57c-0.47,1.46-0.97,2.86-2.97,4.37c-0.23,0.18-2.45,1.73-5.23,1.44
	c-3.16-0.33-5.42-1.89-7.03-3.8c-0.26-0.31-0.5-0.62-0.73-0.95c-0.78-1.12-1.37-2.3-1.8-3.39c-0.97-2.46-1.76-5.46-2.03-11.71
	c-0.19-4.33-0.6-7.89-0.81-10.15C14.19,10.25,17.85,13.82,21.75,16.15z M13.59,68.55c-1,0-1.8-0.81-1.8-1.8c0-1,0.81-1.8,1.8-1.8
	c1,0,1.8,0.81,1.8,1.8C15.4,67.75,14.59,68.55,13.59,68.55z M15.4,72.38c0,1-0.81,1.8-1.8,1.8c-1,0-1.8-0.81-1.8-1.8
	c0-1,0.81-1.8,1.8-1.8C14.59,70.58,15.4,71.38,15.4,72.38z M13.52,51.49c-1,0-1.8-0.81-1.8-1.8c0-1,0.81-1.8,1.8-1.8
	c1,0,1.8,0.81,1.8,1.8C15.32,50.68,14.51,51.49,13.52,51.49z M15.32,55.31c0,1-0.81,1.8-1.8,1.8c-1,0-1.8-0.81-1.8-1.8
	c0-1,0.81-1.8,1.8-1.8C14.51,53.51,15.32,54.32,15.32,55.31z M13.36,45.79c-1,0-1.8-0.81-1.8-1.8c0-1,0.81-1.8,1.8-1.8
	c1,0,1.8,0.81,1.8,1.8C15.17,44.98,14.36,45.79,13.36,45.79z M13.44,59.25c1,0,1.8,0.81,1.8,1.8c0,1-0.81,1.8-1.8,1.8
	c-1,0-1.8-0.81-1.8-1.8C11.64,60.06,12.44,59.25,13.44,59.25z M13.52,76.21c1,0,1.8,0.81,1.8,1.8c0,1-0.81,1.8-1.8,1.8
	c-1,0-1.8-0.81-1.8-1.8C11.71,77.01,12.52,76.21,13.52,76.21z M13.67,81.9c1,0,1.8,0.81,1.8,1.8c0,1-0.81,1.8-1.8,1.8
	c-1,0-1.8-0.81-1.8-1.8C11.86,82.71,12.67,81.9,13.67,81.9z M3.34,16.92c-0.57-1.1-0.43-2.46,0.07-3.63
	c0.5-1.17,1.33-2.19,2.15-3.19c0.8-0.98,1.61-1.97,2.41-2.95c0.55,2.24,0.92,4.75,0.77,7.08c-0.05,0.8-0.15,1.62-0.48,2.37
	c-0.33,0.75-0.93,1.43-1.72,1.7C5.31,18.72,3.91,18.01,3.34,16.92z M5.87,96.82c-0.43-1.77-0.86-3.57-0.77-5.39
	c0.09-1.82,0.77-3.69,2.2-4.82s3.69-1.27,5.01-0.02c0.85,0.8,1.2,2.03,1.16,3.2c-0.04,1.17-0.43,2.3-0.87,3.38
	c-1.27,3.15-3.34,6.24-5.47,8.88C6.71,100.3,6.29,98.56,5.87,96.82z M22.37,107.54c-0.91,0.84-2.27,1.06-3.53,0.88
	c-1.26-0.18-2.46-0.71-3.64-1.24c-1.16-0.52-2.32-1.04-3.48-1.56c2.02-1.12,4.35-2.13,6.63-2.6c0.79-0.16,1.6-0.28,2.41-0.15
	c0.81,0.13,1.62,0.53,2.09,1.22C23.6,105.17,23.28,106.71,22.37,107.54z M29.88,94.59c-2.12,1.58-4.81,3.12-10.77,5.02
	c-4.13,1.32-7.46,2.64-9.59,3.43c3.58-4.24,6.07-8.69,7.31-13.07c1.43-5.08,1.47-7.82,3.61-10.24c1.78-2.01,4.38-3.01,7.06-2.89
	c1.53,0.07,3.02,0.19,4.99,1.72c0.23,0.18,2.31,1.92,2.76,4.67C36.12,88.63,32.78,92.42,29.88,94.59z M36.43,8.12
	c0-1,0.81-1.8,1.8-1.8s1.8,0.81,1.8,1.8c0,1-0.81,1.8-1.8,1.8S36.43,9.11,36.43,8.12z M37.38,62.17c-0.13-1.54,1.52-2.36,3.6-2.6
	c4.45-0.51,13.7,0.72,13.7,0.72s-8.05,3.75-12.55,4.23C38.92,64.85,37.49,63.44,37.38,62.17z M38.7,69.05
	c-0.26-1.52,1.32-2.48,3.37-2.89c4.39-0.88,13.71-0.45,13.71-0.45s-7.7,4.42-12.15,5.28C40.47,71.59,38.92,70.31,38.7,69.05z
	 M43.02,76.7c-0.5-1.46,0.9-2.66,2.86-3.4c4.19-1.57,13.46-2.64,13.46-2.64s-6.89,5.59-11.15,7.15
	C45.18,78.92,43.44,77.91,43.02,76.7z M53.57,108.07c-1,0-1.8-0.81-1.8-1.8c0-1,0.81-1.8,1.8-1.8c1,0,1.8,0.81,1.8,1.8
	C55.38,107.27,54.57,108.07,53.57,108.07z M54.57,84.63c-2.58,1.92-4.53,1.44-5.28,0.4c-0.9-1.25,0.11-2.81,1.77-4.07
	c3.57-2.71,12.15-6.37,12.15-6.37S58.21,81.92,54.57,84.63z M59.27,107.92c-1,0-1.8-0.81-1.8-1.8c0-1,0.81-1.8,1.8-1.8
	c1,0,1.8,0.81,1.8,1.8C61.07,107.11,60.27,107.92,59.27,107.92z M57.92,92.33c-1.29-0.84-0.92-2.65,0.18-4.44
	c2.34-3.82,9.01-10.34,9.01-10.34s-2.01,8.65-4.41,12.49C60.99,92.76,58.99,93.03,57.92,92.33z M64.9,107.92c-1,0-1.8-0.81-1.8-1.8
	c0-1,0.81-1.8,1.8-1.8c1,0,1.8,0.81,1.8,1.8C66.71,107.11,65.9,107.92,64.9,107.92z M70.64,108c-1,0-1.8-0.81-1.8-1.8
	c0-1,0.81-1.8,1.8-1.8c1,0,1.8,0.81,1.8,1.8C72.44,107.19,71.64,108,70.64,108z M70.24,92.86c-1.44,2.88-3.4,3.32-4.54,2.73
	c-1.37-0.72-1.17-2.56-0.24-4.44c1.97-4.02,8-11.14,8-11.14S72.27,88.8,70.24,92.86z M72.02,69.67c-0.24-0.54-0.37-0.99-0.63-1.88
	c-0.83-2.87-0.61-3.49-0.41-3.81c0.2-0.34,0.57-0.68,0.75-0.61c0.12,0.05,0.11,0.29,0.1,0.96c-0.02,1.59,0.05,1.35,0,1.83
	c-0.06,0.55-0.15,0.82-0.02,1.24c0.09,0.29,0.26,0.59,0.35,0.57c0.09-0.02,0.11-0.41,0.08-0.69c-0.04-0.33-0.14-0.5-0.04-0.71
	c0.01-0.03,0.09-0.18,0.18-0.18c0.19,0.01,0.3,0.73,0.33,0.92c0.07,0.43,0.02,0.53,0.12,0.82c0.09,0.26,0.26,0.61,0.37,0.59
	c0.12-0.03,0.18-0.52,0.16-0.88c-0.01-0.27-0.07-0.41,0.02-0.49c0.11-0.1,0.37-0.08,0.51,0.06c0.16,0.16,0.08,0.39,0.02,1.3
	c-0.03,0.45-0.02,0.63,0.1,0.8c0.13,0.18,0.38,0.34,0.49,0.27c0.06-0.03,0.12-0.14-0.04-1.49c-0.03-0.24-0.05-0.41,0.06-0.51
	c0.15-0.14,0.48-0.12,0.65,0.06c0.06,0.06,0.09,0.14,0.12,0.41c0.04,0.51-0.05,0.64,0,0.96c0.05,0.3,0.2,0.65,0.33,0.65
	c0.14-0.01,0.24-0.42,0.26-0.51c0.02-0.07,0.07-0.35,0.02-1.08c-0.02-0.26-0.03-0.33,0.02-0.39c0.16-0.2,0.74-0.13,0.92,0.16
	c0.04,0.07,0.05,0.13,0.02,0.71c-0.03,0.53-0.05,0.69,0.06,0.8c0.09,0.1,0.25,0.14,0.37,0.1c0.19-0.06,0.26-0.3,0.27-0.37
	c0.06-0.24-0.03-0.35-0.1-0.8c-0.05-0.34-0.08-0.5,0-0.61c0.18-0.25,0.8-0.24,0.98,0.02c0.12,0.17-0.03,0.33-0.1,0.92
	c-0.03,0.27-0.1,0.88,0.1,0.96c0.12,0.05,0.33-0.09,0.43-0.26c0.07-0.11,0.11-0.25,0.08-1.1c-0.01-0.25-0.02-0.32,0.04-0.39
	c0.17-0.21,0.69-0.18,0.86,0.06c0.08,0.11,0.04,0.22-0.04,0.86c-0.08,0.6-0.07,0.72,0,0.77c0.11,0.08,0.37-0.02,0.49-0.2
	c0.08-0.12,0.07-0.24,0.04-0.8c-0.03-0.5-0.03-0.59,0.04-0.69c0.13-0.19,0.39-0.24,0.49-0.26c0.16-0.03,0.3-0.05,0.39,0.02
	c0.06,0.05,0.13,0.17,0.02,0.98c-0.07,0.46-0.12,0.65-0.02,0.73c0.09,0.07,0.26,0,0.35-0.06c0.05-0.04,0.18-0.14,0.26-0.47
	c0.04-0.18,0.04-0.33,0-0.86c-0.04-0.5-0.07-0.61,0.02-0.73c0.12-0.17,0.38-0.26,0.53-0.18c0.13,0.07,0.15,0.25,0.18,0.49
	c0.06,0.51-0.07,0.82,0.02,0.86c0.07,0.04,0.23-0.11,0.33-0.26c0.09-0.13,0.18-0.32,0.18-0.92c0-0.59-0.08-0.79,0.08-0.98
	c0.11-0.13,0.3-0.2,0.35-0.16c0.05,0.05-0.06,0.18-0.12,0.41c-0.09,0.37-0.01,0.81,0.14,0.84c0.09,0.02,0.19-0.1,0.24-0.16
	c0.31-0.38,0.27-0.9,0.24-1.49c-0.05-1-0.08-1.51,0.04-1.85c0.19-0.56,0.63-1.07,0.82-1c0.15,0.05,0.15,0.47,0.02,1.59
	c-0.21,1.81-0.31,2.72-0.61,3.77c-0.44,1.55-0.66,2.33-1.32,3.16c-0.29,0.36-0.97,1.2-2.14,1.69c-1.25,0.52-2.34,0.33-4.18,0
	c-1.56-0.28-2.34-0.41-3.06-1.02C72.83,71.51,72.43,70.61,72.02,69.67z M76.34,107.85c-1,0-1.8-0.81-1.8-1.8c0-1,0.81-1.8,1.8-1.8
	c1,0,1.8,0.81,1.8,1.8C78.14,107.04,77.33,107.85,76.34,107.85z M79.55,93.45c-0.56,3.17-2.31,4.16-3.57,3.91
	c-1.51-0.3-1.85-2.12-1.5-4.18c0.74-4.42,4.48-12.96,4.48-12.96S80.34,88.98,79.55,93.45z M81.97,107.85c-1,0-1.8-0.81-1.8-1.8
	c0-1,0.81-1.8,1.8-1.8c1,0,1.8,0.81,1.8,1.8C83.77,107.04,82.96,107.85,81.97,107.85z M84.35,93.41
	c-0.91-4.39-0.53-13.71-0.53-13.71s4.46,7.67,5.35,12.12c0.63,3.15-0.64,4.71-1.9,4.94C85.75,97.03,84.78,95.45,84.35,93.41z
	 M87.87,107.92c-1,0-1.8-0.81-1.8-1.8c0-1,0.81-1.8,1.8-1.8c1,0,1.8,0.81,1.8,1.8C89.68,107.11,88.87,107.92,87.87,107.92z
	 M89.09,57.07c-0.1,0-0.18-0.23-0.34-0.69c-0.19-0.53-0.2-0.89-0.27-1.43c-0.08-0.62-0.27-1.67-0.39-1.66
	c-0.12,0.01-0.16,1.08-0.17,1.2c-0.03,0.83-0.05,1.91,0.39,3.19c0.19,0.54,0.22,0.42,0.64,1.47c0.45,1.12,0.67,1.68,0.6,2.03
	c-0.22,1.04-1.66,1.8-2.66,1.68c-0.41-0.05-0.77-0.19-0.77-0.19c-0.6-0.24-0.72-0.51-1.12-0.54c-0.34-0.02-0.6,0.16-0.85,0.33
	c-0.54,0.37-0.76,0.88-0.89,1.18c-0.2,0.45-0.36,0.83-0.27,1.29c0.06,0.28,0.2,0.55,0.08,0.66c-0.05,0.05-0.16,0.06-0.23,0.02
	c-0.15-0.09-0.07-0.36-0.12-0.91c-0.03-0.31-0.05-0.5-0.17-0.54c-0.12-0.04-0.31,0.09-0.39,0.25c-0.05,0.1-0.1,0.25,0.06,0.87
	c0.14,0.54,0.24,0.69,0.15,0.85c-0.09,0.15-0.31,0.25-0.48,0.19c-0.33-0.12-0.37-0.89-0.39-1.29c-0.02-0.44,0.03-0.68-0.08-0.73
	c-0.12-0.05-0.36,0.13-0.48,0.35c-0.2,0.38-0.05,0.87,0.06,1.22c0.14,0.44,0.27,0.57,0.19,0.75c-0.09,0.19-0.36,0.28-0.58,0.25
	c-0.22-0.03-0.35-0.19-0.41-0.27c-0.16-0.2-0.21-0.41-0.27-0.89c-0.1-0.81-0.06-1.08-0.19-1.12c-0.12-0.04-0.32,0.16-0.41,0.37
	c-0.1,0.23-0.04,0.38,0.02,1.04c0.05,0.57,0.03,0.65-0.02,0.73c-0.17,0.25-0.58,0.32-0.89,0.23c-0.07-0.02-0.26-0.08-0.39-0.25
	c-0.19-0.23-0.11-0.47-0.12-1.2c-0.02-0.86-0.13-0.92-0.17-0.93c-0.11-0.03-0.25,0.13-0.29,0.19c-0.31,0.37-0.27,0.94-0.23,1.39
	c0.04,0.46,0.11,0.55,0.02,0.68c-0.21,0.31-0.93,0.33-1.18,0.02c-0.14-0.17-0.11-0.44-0.06-0.98c0.04-0.38,0.09-0.51,0.02-0.73
	c-0.08-0.25-0.29-0.51-0.46-0.48c-0.14,0.03-0.2,0.26-0.25,0.44c-0.07,0.27-0.07,0.52-0.04,0.77c0.07,0.59,0.26,0.77,0.15,0.93
	c-0.13,0.19-0.51,0.14-0.6,0.12c-0.1-0.01-0.45-0.06-0.58-0.31c-0.09-0.18,0-0.3,0.15-1.02c0.09-0.45,0.09-0.57,0.04-0.71
	c-0.09-0.26-0.32-0.5-0.46-0.46c-0.05,0.02-0.09,0.08-0.15,0.44c-0.06,0.38-0.1,0.82-0.12,1.02c-0.04,0.44-0.07,0.55-0.15,0.58
	c-0.12,0.06-0.35-0.07-0.46-0.25c-0.2-0.35,0.05-0.95,0.21-1.31c0.08-0.19,0.16-0.33,0.12-0.52c-0.04-0.2-0.21-0.41-0.35-0.39
	c-0.24,0.02-0.36,0.64-0.39,0.83c-0.11,0.58-0.02,0.99-0.12,1.02c-0.06,0.02-0.16-0.12-0.21-0.23c-0.14-0.3-0.02-0.59,0.06-0.95
	c0.08-0.39,0.1-0.77,0.08-0.99c-0.05-0.58-0.45-1.29-1.01-1.47c-0.68-0.22-0.98,0.54-1.88,0.6c-1.31,0.09-2.84-1.38-2.99-2.85
	c-0.03-0.33,0.07-0.71,0.28-1.47c0.49-1.8,0.89-2.18,1.15-3.45c0.22-1.07,0.21-2.22,0.05-2.25c-0.13-0.02-0.44,0.64-1.24,3.7
	c-1.42-4.76-1.8-9.61,1.1-13.42c4.07-5.33,10.66-4.84,11.03-4.82c4.23,0.18,7.09,1.8,8.81,3.97c1.16,1.47,1.54,2.88,1.94,4.48
	C91.06,52.02,89.55,57.09,89.09,57.07z M93.57,107.77c-1,0-1.8-0.81-1.8-1.8c0-1,0.81-1.8,1.8-1.8c1,0,1.8,0.81,1.8,1.8
	C95.37,106.96,94.57,107.77,93.57,107.77z M95.38,94.51c-1.49,0.39-2.58-1.1-3.17-3.11c-1.25-4.3-1.6-13.62-1.6-13.62
	s5.05,7.3,6.28,11.67C97.76,92.54,96.61,94.19,95.38,94.51z M99.2,107.77c-1,0-1.8-0.81-1.8-1.8c0-1,0.81-1.8,1.8-1.8
	c1,0,1.8,0.81,1.8,1.8C101,106.96,100.2,107.77,99.2,107.77z M100.24,86.82c-2.42-3.77-5.42-12.6-5.42-12.6s6.92,5.56,9.35,9.39
	c1.72,2.72,1.09,4.63,0,5.29C102.85,89.7,101.38,88.58,100.24,86.82z M105.64,107.85c-1,0-1.8-0.81-1.8-1.8c0-1,0.81-1.8,1.8-1.8
	c1,0,1.8,0.81,1.8,1.8C107.45,107.04,106.64,107.85,105.64,107.85z M98.07,70.57c0,0,8.47,2.67,12.11,5.36
	c2.59,1.91,2.7,3.92,1.92,4.93c-0.94,1.22-2.72,0.71-4.41-0.52C104.06,77.71,98.07,70.57,98.07,70.57z M111.34,107.69
	c-1,0-1.8-0.81-1.8-1.8c0-1,0.81-1.8,1.8-1.8c1,0,1.8,0.81,1.8,1.8C113.14,106.89,112.34,107.69,111.34,107.69z M111.51,73.25
	c-3.86-2.28-10.5-8.83-10.5-8.83s8.68,1.86,12.56,4.19c2.76,1.66,3.05,3.65,2.37,4.73C115.13,74.65,113.31,74.31,111.51,73.25z
	 M101.64,58.95c0,0,8.85-0.7,13.24,0.43c3.12,0.8,3.97,2.62,3.63,3.86c-0.41,1.49-2.25,1.68-4.28,1.17
	C109.87,63.33,101.64,58.95,101.64,58.95z M116.97,107.69c-1,0-1.8-0.81-1.8-1.8c0-1,0.81-1.8,1.8-1.8c1,0,1.8,0.81,1.8,1.8
	C118.77,106.89,117.97,107.69,116.97,107.69z M115.21,54.59c-4.44,0.57-13.71-0.52-13.71-0.52s7.99-3.86,12.49-4.4
	c3.19-0.38,4.65,1,4.78,2.28C118.93,53.47,117.28,54.32,115.21,54.59z M116.79,29.1c-0.88-5.39,2.46-9.18,5.36-11.35
	c2.12-1.58,4.81-3.12,10.77-5.02c4.13-1.32,7.46-2.64,9.59-3.43c-3.58,4.24-6.07,8.69-7.31,13.07c-1.43,5.08-1.47,7.82-3.61,10.24
	c-1.78,2.01-4.38,3.01-7.06,2.89c-1.53-0.07-3.02-0.19-4.99-1.72C119.31,33.59,117.23,31.85,116.79,29.1z M134.03,108.55
	c-1.82-0.05-3.67-0.1-5.4-0.66c-1.73-0.56-3.37-1.7-4.08-3.38c-0.72-1.68-0.27-3.89,1.29-4.85c1-0.61,2.28-0.63,3.39-0.28
	c1.12,0.34,2.11,1.01,3.04,1.72c2.7,2.05,5.15,4.85,7.14,7.6C137.61,108.65,135.82,108.6,134.03,108.55z M130.28,96.19
	c-4.53-2.71-7.16-3.47-8.94-6.16c-1.48-2.24-1.76-5.01-0.95-7.57c0.47-1.46,0.97-2.86,2.97-4.37c0.23-0.18,2.45-1.73,5.23-1.44
	c4.66,0.48,7.38,3.66,8.9,6.68c0.21,0.42,0.4,0.84,0.57,1.24c0.03,0.07,0.06,0.15,0.09,0.22c0.97,2.46,1.76,5.46,2.03,11.71
	c0.19,4.33,0.6,7.89,0.81,10.15C137.84,102.09,134.19,98.52,130.28,96.19z M141.02,71.32c0-1,0.81-1.8,1.8-1.8c1,0,1.8,0.81,1.8,1.8
	c0,1-0.81,1.8-1.8,1.8C141.83,73.12,141.02,72.31,141.02,71.32z M148.62,99.06c-0.5,1.17-1.33,2.19-2.15,3.19
	c-0.8,0.98-1.61,1.97-2.41,2.95c-0.55-2.24-0.92-4.75-0.77-7.08c0.05-0.8,0.15-1.62,0.48-2.37c0.33-0.75,0.93-1.43,1.72-1.7
	c1.23-0.43,2.63,0.28,3.2,1.38C149.26,96.52,149.12,97.89,148.62,99.06z"/>
<circle class="st0" cx="72.75" cy="56.89" r="3.47"/>
<circle class="st0" cx="83.37" cy="56.66" r="3.47"/>
<path class="st0" d="M78.31,58.74c-0.29,0-2.72,2.97-1.91,4.31c0.15,0.24,0.41,0.35,0.62,0.42c0.29,0.03,0.56,0.1,0.79-0.22
	c0.29-0.39,0.29-1.33,0.34-1.33c0.06,0,0,0.69,0.24,1.29c0.12,0.31,0.61,0.49,0.94,0.39c0.45-0.14,0.53-0.41,0.57-0.66
	c0.15-0.97-0.26-2.22-0.74-3.09C78.76,59.14,78.56,58.74,78.31,58.74z"/>
</svg>
