<?xml version="1.0" encoding="utf-8"?>
<!-- Generator: Adobe Illustrator 25.4.8, SVG Export Plug-In . SVG Version: 6.00 Build 0)  -->
<svg version="1.1" xmlns="http://www.w3.org/2000/svg" xmlns:xlink="http://www.w3.org/1999/xlink" x="0px" y="0px"
	 viewBox="0 0 417 410" style="enable-background:new 0 0 417 410;" xml:space="preserve">
<style type="text/css">
	.st0{fill:url(#SVGID_1_);}
	.st1{fill:#D84F12;}
</style>
<g id="Layer_2">
	<radialGradient id="SVGID_1_" cx="208.5" cy="205" r="203.822" gradientUnits="userSpaceOnUse">
		<stop  offset="0" style="stop-color:#FDD36A"/>
		<stop  offset="0.9987" style="stop-color:#EC7E34"/>
	</radialGradient>
	<path class="st0" d="M48.65,93.22c3.22-6.37,0.18-8.92,3.1-13.01c3.55-4.98,8.44-3.68,17.96-9.91c9.11-5.96,3.6-14.05,12.39-26.01
		c1.66-2.26,9.58-12.53,22.3-15.48c6.83-1.58,7.08,0.79,19.2-0.62c7.92-0.92,13.75-1.59,20.44-4.96c6.56-3.3,7.57-5.97,13.63-7.43
		c5.74-1.38,7.06,0.49,13.01,0c10.34-0.85,11.5-6.93,23.54-10.53c3.17-0.95,10.95-3.18,19.82-1.24c10.1,2.21,9.42,7.15,20.44,10.53
		c9.42,2.89,12.13-0.05,22.92,3.72c6.14,2.14,9.64,3.37,12.39,6.81c6.52,8.19,0.82,18.99,5.57,21.68c2.92,1.66,5.58-2.15,16.1-4.96
		c6.78-1.81,11.93-3.18,16.72-1.24c4,1.62,4.97,4.43,12.39,17.96c6.11,11.14,9.24,16.81,13.01,21.68
		c4.96,6.42,8.3,10.73,14.25,14.25c10.68,6.32,16.27,2.06,24.78,8.67c1.17,0.91,7.73,6.16,9.91,14.87c2.61,10.4-3.67,15.23,0,21.68
		c3.61,6.35,10.8,3.6,14.87,10.53c3.21,5.46-0.55,8.39,2.48,17.34c1.31,3.87,2.02,3.35,7.43,13.01c4.22,7.53,6.33,11.3,6.81,14.25
		c1.47,8.93-2.98,16.8-4.34,19.2c-3.84,6.81-6.49,6.12-8.05,11.15c-2.14,6.9,2.12,10.51,1.86,18.58
		c-0.29,8.82-6.08,15.67-7.43,17.34c-4.36,5.38-7.32,5.46-8.67,9.91c-1.67,5.48,2.15,7.6,0.62,13.01
		c-1.42,5.02-5.33,5.39-10.28,11.51c-2.84,3.51-4.22,7.13-6.99,14.39c-5.6,14.67-3.49,17.65-8.22,23.43
		c-4.54,5.55-10.65,7.92-13.57,9.05c-6.66,2.58-8.74,1.15-16.45,3.29c-1.57,0.44-9.22,2.65-16.86,8.22
		c-6.98,5.1-6.53,7.59-16.86,17.27c-5.91,5.54-8.87,8.31-11.92,9.46c-9.65,3.61-17.23-1.53-20.97,2.88
		c-2.16,2.55,0.05,4.64-1.64,9.46c-3.4,9.68-16.42,12.87-17.68,13.16c-1.02,0.24-10.38,2.26-19.73-2.47
		c-7.08-3.58-6.7-7.25-12.75-9.04c-3.08-0.91-4.68-0.41-17.68,2.06c-14.86,2.82-17.09,2.97-19.73,1.64
		c-5.24-2.63-3.87-6.95-9.46-9.87c-5.05-2.64-7.21,0.35-16.86-0.82c-3.26-0.4-7.93-1.91-17.27-4.93c-9.45-3.06-8.94-3.32-11.51-3.7
		c-8.97-1.32-11.39,2.43-18.91,1.64c-9.69-1.01-16.36-8.34-17.68-9.87c-6.87-7.91-3.26-12.99-10.28-20.56
		c-3.41-3.67-4.04-2.24-14.8-9.87c-6.97-4.94-10.45-7.41-13.16-11.1c-2.04-2.78-7.53-10.28-5.76-18.09
		c1.41-6.19,8.99-10.47,5.34-11.51c-2.07-0.59-5.9-2.99-11.1-7.4c-7.19-6.1-8.1-16.05-8.22-17.68c-0.86-11.31,6.51-17.14,3.29-21.38
		c-2.31-3.04-6.31-0.29-13.16-3.29c-6.4-2.8-12.01-9.19-13.16-16.03c-0.66-3.94,0.67-4.93,4.11-16.86
		c3.23-11.21,4.85-16.81,4.52-20.56c-0.89-10.28-7.32-13.96-4.93-21.38c1.33-4.12,3.69-4.19,4.11-7.81c0,0-6.43-8.9-8.63-15.62
		c-3.72-11.36,9.79-25.61,13.57-29.6c6.14-6.47,17.44-15.41,23.85-20.15C42.98,100.16,46.37,97.73,48.65,93.22z"/>
</g>
<g id="Layer_1">
	<g>
		<path class="st1" d="M163.61,315.91c-2.81,2.51-6.15,4.44-9.74,5.69c-1.8,0.61-3.67,1.04-5.57,1.27c-1.9,0.19-3.83,0.24-5.73,0.08
			c-3.8-0.33-7.6-1.23-11.07-3.02c-1.73-0.89-3.35-2.05-4.74-3.46c-1.38-1.41-2.6-3.03-3.36-4.94c-0.78-1.91-0.96-3.97-0.99-5.89
			c-0.02-1.93,0.05-3.79,0.01-5.64c-0.06-3.68-0.6-7.31-1.55-10.87c-0.44-1.76-1.02-3.6-1.56-5.35c-0.56-1.76-1.17-3.47-1.99-5.01
			c-0.8-1.55-1.82-2.9-3.1-3.9c-1.29-1.01-2.79-1.69-4.34-1.81c-1.56-0.18-3.29,0.21-5.19,0.52c-1.91,0.31-4.06,0.54-6.17,0.13
			c-2.11-0.38-4.07-1.24-5.81-2.35c-1.75-1.12-3.26-2.51-4.59-4.03c-2.68-3.05-4.55-6.68-5.7-10.53c-0.54-1.94-0.89-3.95-0.98-6
			c-0.1-2.05,0.15-4.14,0.66-6.13c0.51-2,1.3-3.9,2.22-5.64c0.91-1.75,1.95-3.37,2.7-4.9c0.41-0.77,0.62-1.47,0.75-2.09
			c0.08-0.6-0.03-1.05-0.24-1.56c-0.28-0.49-0.57-0.76-1.13-1.03c-0.56-0.26-1.36-0.45-2.22-0.61c-1.77-0.3-3.75-0.57-5.69-1.09
			c-1.95-0.5-3.87-1.24-5.67-2.18c-3.6-1.87-6.74-4.46-9.35-7.49c-2.59-3.05-4.67-6.56-5.93-10.43c-0.63-1.94-1.04-3.96-1.1-6.09
			c-0.08-2.12,0.35-4.34,1.11-6.27c0.75-1.94,1.69-3.61,2.46-5.24c0.78-1.63,1.41-3.26,1.87-4.95c0.87-3.37,1.19-7.03,0.82-10.49
			c-0.3-3.49-1.64-6.79-2.94-10.41c-1.3-3.62-2.29-7.53-2.58-11.42c-0.05-0.97-0.15-1.95-0.16-2.92l-0.02-2.9
			c0.04-1.88,0.07-3.79,0.21-5.73c0.15-1.93,0.37-3.91,0.91-5.88c0.55-1.96,1.37-3.96,2.75-5.62c1.34-1.64,3.1-3.05,5.2-3.76
			c2.09-0.7,4.14-0.74,6.01-0.81c1.88-0.05,3.68-0.14,5.45-0.42c1.77-0.27,3.49-0.76,5.18-1.37c6.73-2.56,12.93-7.23,16.54-13.53
			c0.91-1.57,1.63-3.23,2.12-4.97c0.52-1.74,0.71-3.57,1.22-5.5c0.27-0.96,0.69-1.94,1.31-2.77c0.62-0.83,1.39-1.52,2.25-2.07
			c1.74-1.06,3.71-1.52,5.64-1.66c3.88-0.24,7.65,0.51,11.29,1.49c3.64,1.02,7.18,2.33,10.66,3.76c-3.55-1.24-7.15-2.36-10.81-3.18
			c-3.64-0.83-7.39-1.4-11.05-1.03c-1.81,0.2-3.58,0.71-5.03,1.68c-1.45,1-2.44,2.43-2.8,4.15c-0.39,1.73-0.52,3.67-1,5.56
			c-0.46,1.9-1.17,3.75-2.08,5.47c-1.83,3.45-4.39,6.49-7.36,9c-2.98,2.5-6.31,4.56-9.95,6.03c-1.82,0.72-3.72,1.33-5.67,1.66
			c-1.94,0.35-3.91,0.48-5.79,0.57c-1.88,0.09-3.64,0.21-5.13,0.75c-1.47,0.52-2.75,1.59-3.75,2.87c-2.01,2.57-2.58,6.16-2.76,9.78
			c-0.1,1.82-0.11,3.68-0.12,5.56l0.05,2.74c0.02,0.91,0.13,1.81,0.18,2.71c0.32,3.62,1.24,7.06,2.52,10.51
			c1.27,3.42,2.87,7.17,3.28,11.23c0.48,4.02,0.12,7.99-0.86,11.91c-0.52,1.94-1.25,3.84-2.08,5.61c-0.83,1.77-1.73,3.4-2.32,4.98
			c-0.61,1.58-0.89,3.13-0.83,4.77c0.05,1.63,0.39,3.34,0.93,4.98c1.08,3.29,2.92,6.37,5.21,9.05c2.29,2.68,5.06,4.96,8.14,6.58
			c1.54,0.81,3.15,1.44,4.84,1.88c1.7,0.45,3.45,0.7,5.39,1.04c0.98,0.19,2.04,0.41,3.19,0.94c1.15,0.5,2.31,1.57,2.9,2.76
			c0.59,1.2,0.83,2.65,0.62,3.93c-0.23,1.22-0.64,2.31-1.12,3.21c-0.93,1.85-1.94,3.39-2.77,4.98c-0.83,1.58-1.52,3.17-1.96,4.82
			c-1.8,6.55,0.57,14.11,5.02,19.41c1.13,1.32,2.4,2.52,3.81,3.45c1.42,0.92,2.97,1.6,4.56,1.93c1.59,0.35,3.26,0.23,5.06-0.03
			c1.8-0.24,3.81-0.7,6.02-0.43c4.5,0.48,7.97,3.87,9.68,7.49c0.9,1.81,1.52,3.67,2.07,5.51c0.54,1.86,1.02,3.63,1.45,5.53
			c0.88,3.75,1.36,7.63,1.3,11.48c0.02,3.83-0.65,7.61,0.51,10.86c0.56,1.63,1.59,3.12,2.78,4.44c1.2,1.32,2.63,2.45,4.21,3.34
			c3.16,1.8,6.79,2.83,10.45,3.29C150.02,322.88,157.71,320.59,163.61,315.91z"/>
	</g>
	<g>
		<path class="st1" d="M141.03,106.76c-3.15-4.24-5.13-9.43-5.67-14.84c-0.08-0.68-0.08-1.36-0.12-2.04l0.02-2.04
			c0.04-1.33,0.15-2.7,0.35-4.06c0.38-2.72,1.19-5.4,2.42-7.93c1.23-2.52,2.95-4.87,5.1-6.74c2.13-1.9,4.62-3.37,7.24-4.41
			c5.29-2.05,11-2.42,16.48-1.7c2.74,0.39,5.45,1.07,8.07,2.1c1.3,0.53,2.6,1.15,3.82,1.9c1.23,0.74,2.36,1.62,3.33,2.35
			c0.98,0.72,1.83,1.19,2.89,1.48c1.05,0.28,2.26,0.43,3.39,0.39c2.29-0.01,4.51-0.83,6.84-1.92c2.32-1.1,4.82-2.37,7.56-3.03
			c2.73-0.64,5.56-0.77,8.28-0.33c5.45,0.92,10.25,3.64,14.32,6.96c-4.56-2.6-9.48-4.71-14.53-5.01c-1.25-0.08-2.51-0.06-3.74,0.09
			c-1.23,0.15-2.44,0.45-3.61,0.81c-1.16,0.41-2.31,0.88-3.43,1.44c-1.13,0.57-2.25,1.21-3.43,1.85c-4.54,2.81-11.51,4.1-16.71,0.36
			c-1.17-0.8-2.11-1.54-3.15-2.15c-1.03-0.61-2.11-1.12-3.25-1.57c-2.29-0.87-4.73-1.45-7.19-1.78c-4.92-0.72-10.03-0.37-14.6,1.28
			c-2.29,0.81-4.43,1.99-6.29,3.52c-0.92,0.78-1.8,1.61-2.55,2.55c-0.79,0.91-1.47,1.93-2.08,2.99c-1.21,2.13-2.05,4.5-2.6,6.96
			c-0.28,1.23-0.48,2.48-0.63,3.76l-0.18,1.9c-0.01,0.63-0.05,1.27-0.05,1.9C137.3,96.93,138.64,102.07,141.03,106.76z"/>
	</g>
	<g>
		<path class="st1" d="M212.74,175.15c0.48-7.46,0.8-14.92,0.94-22.37c0.11-7.46,0-14.92-0.37-22.35l-0.3-5.58
			c-0.12-1.88-0.18-3.77-0.21-5.65c-0.04-3.77,0.09-7.55,0.43-11.32c0.34-3.77,0.91-7.53,1.82-11.25c0.9-3.71,2.17-7.39,4.1-10.83
			c1.86-3.42,4.67-6.66,8.37-8.54c3.67-1.91,7.88-2.46,11.87-1.99c1.01,0.12,1.98,0.29,3.03,0.58l1.48,0.49
			c0.48,0.21,0.97,0.4,1.44,0.64c1.9,0.94,3.57,2.4,4.87,3.78c1.33,1.38,2.46,2.55,3.84,3.29c1.34,0.75,3.02,1.28,4.48,1.36
			c0.74,0.04,1.47-0.05,2.31-0.22l2.68-0.62c1.88-0.44,3.85-0.74,5.79-0.9c3.8-0.28,7.62-0.49,11.56-0.06
			c3.9,0.42,7.94,1.49,11.41,3.87c1.72,1.17,3.25,2.66,4.48,4.32c1.24,1.66,2.19,3.49,2.93,5.34c1.48,3.72,2.18,7.53,2.84,11.25
			l0.46,2.78c0.13,0.96,0.3,1.9,0.39,2.87c0.24,1.92,0.33,3.86,0.36,5.79c0.02,1.93-0.08,3.85-0.1,5.64
			c-0.03,1.8,0.09,3.41,0.59,4.93c0.48,1.53,1.31,3.04,2.28,4.44c0.98,1.39,2.14,2.68,3.43,3.84c2.58,2.31,5.68,4.17,8.94,5.38
			c1.62,0.61,3.24,0.95,4.96,1.07c1.71,0.13,3.64,0.01,5.67,0.26c2.03,0.23,4.03,0.78,5.86,1.55c1.8,0.73,3.58,1.62,5.24,2.68
			c3.32,2.12,6.31,4.97,8.28,8.54c1.95,3.56,2.71,7.75,2.25,11.71c-0.43,3.99-1.91,7.68-3.71,11.06c-1.85,3.46-4.5,6.45-7.46,8.88
			c-2.97,2.45-6.17,4.45-9.34,6.43c-6.42,4.01-13.42,7-20.65,9.05c-7.23,2.07-14.73,3.09-22.21,3.06
			c14.9-0.82,29.57-5.46,41.79-13.76c3.1-2.08,6.19-4.13,8.92-6.53c2.74-2.38,5.04-5.17,6.63-8.35c1.6-3.24,2.86-6.65,3.16-10.13
			c0.32-3.47-0.41-6.94-2.1-9.91c-1.72-2.96-4.33-5.39-7.33-7.21c-1.5-0.92-3.08-1.7-4.75-2.34c-1.63-0.65-3.26-1.08-4.95-1.25
			c-1.68-0.2-3.5-0.06-5.52-0.18c-2.01-0.1-4.08-0.52-5.97-1.2c-3.75-1.34-7.2-3.35-10.22-5.98c-1.5-1.32-2.88-2.81-4.05-4.46
			c-1.16-1.66-2.17-3.45-2.83-5.48c-0.35-1.01-0.53-2.07-0.67-3.11c-0.1-1.03-0.14-2.06-0.12-3.02c0.02-1.95,0.11-3.76,0.08-5.56
			c-0.03-1.8-0.12-3.59-0.35-5.38c-0.09-0.9-0.25-1.79-0.38-2.68l-0.47-2.74c-0.65-3.63-1.35-7.21-2.65-10.44
			c-1.27-3.23-3.21-6.04-5.94-7.89c-2.72-1.88-6.1-2.85-9.6-3.24c-3.5-0.4-7.17-0.23-10.81,0.03c-1.78,0.14-3.52,0.4-5.27,0.8
			c-0.89,0.19-1.78,0.42-2.78,0.62c-0.99,0.19-2.13,0.33-3.26,0.26c-2.27-0.18-4.22-0.85-6.13-1.92c-1.91-1.07-3.37-2.68-4.61-3.98
			c-1.24-1.34-2.43-2.38-3.87-3.13c-0.36-0.19-0.74-0.34-1.11-0.51l-1.18-0.41c-0.76-0.22-1.62-0.39-2.47-0.5
			c-3.41-0.45-6.92,0-9.93,1.5c-3.03,1.46-5.43,4.05-7.19,7.11c-1.8,3.05-3.07,6.47-4,9.99c-0.93,3.52-1.56,7.15-2.01,10.81
			c-0.44,3.66-0.67,7.35-0.74,11.05c-0.03,1.85-0.02,3.7,0.04,5.55c0.05,1.87,0.11,3.75,0.13,5.62
			C215.37,145.35,214.59,160.32,212.74,175.15z"/>
	</g>
	<g>
		<path class="st1" d="M356.81,177.81c4.91,2.62,9.03,6.96,11.33,12.26c1.14,2.66,1.85,5.48,2.13,8.37
			c0.28,2.89,0.06,5.87-0.73,8.76c-0.84,2.87-2.27,5.64-4.44,7.87c-1.09,1.09-2.3,2.06-3.58,2.85c-1.27,0.78-2.57,1.46-3.81,2.07
			c-2.48,1.24-4.73,2.38-6.33,4.16c-1.63,1.72-2.76,4-3.37,6.41c-0.62,2.4-0.82,5.02-0.45,7.45c0.18,1.22,0.49,2.37,0.99,3.47
			c0.49,1.1,1.18,2.15,1.94,3.31c0.76,1.15,1.59,2.43,2.22,3.86c0.64,1.42,1.06,2.95,1.26,4.47c0.26,1.52,0.21,3.06,0.09,4.56
			c-0.19,1.5-0.51,2.97-0.97,4.38c-0.94,2.81-2.3,5.41-3.98,7.75c-1.65,2.31-3.62,4.53-5.89,6.28c-4.56,3.5-10.07,5.59-15.63,5.96
			c5.41-1.24,10.44-3.79,14.35-7.45c1.99-1.82,3.58-3.91,4.98-6.23c1.38-2.28,2.5-4.7,3.17-7.2c0.65-2.5,0.85-5.07,0.41-7.5
			c-0.21-1.22-0.57-2.38-1.11-3.47c-0.53-1.1-1.25-2.13-2.05-3.27c-0.8-1.13-1.65-2.4-2.31-3.83c-0.67-1.42-1.1-2.96-1.34-4.48
			c-0.48-3.06-0.29-6.08,0.45-9.05c0.78-2.94,2.2-5.79,4.41-8.09c2.18-2.34,5.03-3.73,7.51-4.87c2.53-1.14,4.77-2.29,6.55-4
			c1.76-1.71,3.08-3.92,3.94-6.32c0.83-2.42,1.14-5.04,1.09-7.68c-0.04-2.64-0.51-5.3-1.34-7.83
			C364.68,185.68,361.23,181.16,356.81,177.81z"/>
	</g>
	<g>
		<path class="st1" d="M291.75,227.6c2.77,0.81,5.48,1.85,8.07,3.15c2.59,1.31,5.06,2.87,7.37,4.66c2.3,1.79,4.46,3.8,6.33,6.06
			c1.88,2.25,3.54,4.72,4.95,7.27c2.82,5.12,4.97,10.81,5.22,16.89c0.12,3.03-0.35,6.14-1.5,9.01c-1.1,2.91-2.95,5.47-5.07,7.64
			c-2.14,2.18-4.58,3.99-7.23,5.49c-1.34,0.74-2.75,1.39-4.25,1.87c-1.49,0.48-3.11,0.75-4.5,0.94c-1.41,0.19-2.48,0.46-3.52,1.05
			c-1.06,0.58-2.02,1.41-2.77,2.3c-1.53,1.8-2.07,4.41-2.74,7.25c-0.63,2.84-1.6,5.91-3.26,8.6c-1.66,2.67-3.82,5.01-6.3,6.87
			c-2.47,1.87-5.21,3.3-8.03,4.4c-2.83,1.11-5.75,1.87-8.7,2.39c-1.49,0.25-2.93,0.45-4.46,0.55l-1.14,0.09l-1.15,0.02
			c-0.77,0.02-1.53,0.02-2.3-0.05c-3.07-0.16-6.14-0.88-8.92-1.76c-1.4-0.43-2.73-0.85-4.06-1.19c-1.31-0.3-2.61-0.58-3.9-0.62
			c-2.58-0.17-5.26,0.29-7.8,1.09c-1.26,0.4-2.42,0.91-3.54,1.6c-1.12,0.67-2.26,1.53-3.5,2.37c-2.48,1.72-5.3,3.09-8.1,4.07
			c-1.43,0.5-2.79,0.94-4.18,1.37c-1.4,0.43-2.82,0.84-4.26,1.19c-2.89,0.68-5.9,1.17-9,1.05c-3.08-0.11-6.26-0.92-8.94-2.65
			c-1.33-0.86-2.55-1.91-3.55-3.12c-1-1.21-1.82-2.53-2.51-3.89c-1.33-2.73-2.21-5.57-2.95-8.39c-0.73-2.83-1.36-5.63-1.96-8.48
			c-1.13-5.72-1.74-11.52-1.85-17.31c-0.05-2.9,0-5.79,0.19-8.68c0.22-2.88,0.55-5.76,0.97-8.61c-0.89,11.49-0.22,23.09,2.61,34.17
			c0.71,2.76,1.44,5.57,2.26,8.29c0.82,2.73,1.77,5.39,3.06,7.8c0.66,1.19,1.42,2.3,2.28,3.29c0.86,0.99,1.88,1.8,2.98,2.48
			c2.22,1.35,4.83,1.95,7.5,1.98c2.68,0.03,5.4-0.47,8.09-1.18c1.35-0.37,2.7-0.77,4.05-1.21c1.35-0.44,2.73-0.91,4.01-1.39
			c2.61-0.97,5.01-2.19,7.24-3.79c1.13-0.79,2.29-1.7,3.62-2.53c1.33-0.84,2.81-1.53,4.29-2.02c2.93-0.99,6.03-1.53,9.22-1.35
			c1.59,0.05,3.13,0.37,4.63,0.71c1.47,0.38,2.89,0.81,4.25,1.22c2.72,0.84,5.32,1.42,8.01,1.55c2.67,0.13,5.41-0.14,8.16-0.61
			c5.44-0.92,10.77-2.79,15.07-5.97c2.14-1.59,3.96-3.55,5.35-5.76c1.39-2.23,2.2-4.73,2.89-7.48c0.35-1.38,0.69-2.83,1.21-4.33
			c0.51-1.49,1.29-3.04,2.39-4.33c1.12-1.29,2.4-2.35,3.88-3.13c1.48-0.83,3.28-1.21,4.72-1.37c1.47-0.18,2.71-0.37,3.97-0.75
			c1.25-0.37,2.48-0.92,3.68-1.54c2.4-1.27,4.68-2.87,6.63-4.76c1.95-1.89,3.6-4.07,4.61-6.54c1.06-2.45,1.54-5.14,1.55-7.87
			c0-5.49-1.82-10.98-4.33-16.02c-1.26-2.56-2.71-4.97-4.4-7.24c-1.69-2.27-3.68-4.32-5.83-6.19
			C302.19,232.52,297.15,229.61,291.75,227.6z"/>
	</g>
	<g>
		<path class="st1" d="M197.09,228.06c-2.36,4.03-4.13,8.41-4.85,12.96c-0.73,4.52-0.5,9.22,1.17,13.39
			c1.67,4.07,4.54,7.94,8.15,10.25c1.8,1.15,3.85,1.79,5.86,1.79c2-0.03,3.81-0.86,5.64-2.16c1.83-1.25,3.75-2.85,6.1-3.94
			c2.35-1.11,5.02-1.6,7.62-1.48c2.63,0.08,5.31,1.1,7.4,2.37c2.14,1.25,3.91,2.5,5.81,3.03c3.75,1.11,8.29-0.01,11.88-2.16
			c0.92-0.53,1.74-1.18,2.54-1.85c0.75-0.7,1.46-1.45,2.03-2.26c1.13-1.63,1.78-3.5,1.57-5.26c-0.13-1.79-1.15-3.69-2.2-5.87
			c-1.04-2.16-2.03-4.83-1.91-7.61c-0.01-0.69,0.09-1.36,0.2-2.03c0.07-0.65,0.31-1.42,0.55-2.07c0.53-1.33,1.25-2.44,2-3.46
			c1.51-2.03,3.13-3.76,4.77-5.46c3.27-3.37,6.58-6.74,10.12-9.9c1.73-1.58,3.64-3.11,5.02-4.6c0.69-0.75,1.09-1.45,1.36-2.39
			c0.26-0.94,0.41-1.96,0.37-2.99c-0.07-4.16-2.25-8.36-5.27-11.47c-1.53-1.56-3.34-2.84-5.33-3.65c-2-0.82-4.21-1.12-6.46-1.1
			c-2.25,0.01-4.55,0.3-6.84,0.66c-2.3,0.37-4.61,0.74-6.85,1.25c-4.51,1.04-8.92,2.62-13.11,4.71c3.98-2.46,8.3-4.42,12.83-5.78
			c2.27-0.7,4.57-1.19,6.86-1.7c2.3-0.5,4.64-0.95,7.06-1.1c2.41-0.14,4.95,0.07,7.33,0.92c2.38,0.84,4.53,2.23,6.35,3.92
			c1.81,1.7,3.36,3.7,4.5,5.93c1.14,2.23,1.95,4.69,2.07,7.31c0.09,1.31-0.05,2.63-0.36,3.95c-0.15,0.66-0.43,1.35-0.75,1.99
			c-0.35,0.63-0.75,1.23-1.19,1.73c-0.86,1.02-1.76,1.82-2.63,2.63l-2.57,2.37c-3.38,3.14-6.56,6.5-9.73,9.91
			c-1.56,1.7-3.14,3.39-4.4,5.14c-0.63,0.87-1.16,1.75-1.5,2.6c-0.15,0.45-0.28,0.79-0.33,1.31c-0.07,0.49-0.15,0.97-0.13,1.46
			c-0.07,1.94,0.59,3.81,1.57,5.83c0.49,1.01,1.05,2.08,1.55,3.26c0.51,1.16,0.92,2.53,1.06,3.95c0.29,2.93-0.79,5.73-2.32,7.9
			c-0.77,1.1-1.69,2.05-2.66,2.93c-1,0.83-2.03,1.62-3.14,2.26c-2.2,1.31-4.61,2.22-7.14,2.73c-2.51,0.46-5.27,0.56-7.87-0.32
			c-2.61-0.81-4.68-2.39-6.55-3.51c-1.88-1.17-3.71-1.88-5.76-2.01c-2.06-0.13-4.13,0.21-6.03,1.04c-1.94,0.81-3.71,2.17-5.76,3.49
			c-1.01,0.67-2.16,1.3-3.4,1.76c-1.24,0.5-2.63,0.66-3.97,0.68c-2.67-0.08-5.22-1.02-7.29-2.49c-2.1-1.44-3.77-3.3-5.2-5.28
			c-0.7-1-1.35-2.04-1.9-3.11c-0.27-0.55-0.56-1.09-0.8-1.66c-0.22-0.57-0.45-1.14-0.65-1.71c-1.54-4.66-1.5-9.65-0.42-14.27
			C192.22,236.15,194.38,231.86,197.09,228.06z"/>
	</g>
	<g>
		<path class="st1" d="M185.65,261.78c-3.28,2.74-6.94,5.14-11.06,6.63c-4.1,1.48-8.68,1.97-13.1,0.81
			c-2.21-0.61-4.17-1.71-6.05-2.67c-1.88-0.97-3.77-1.83-5.72-2.53c-3.91-1.39-8.02-2.37-12.12-2.76c-2.07-0.21-4.11-0.17-6.41-0.35
			c-1.15-0.1-2.37-0.32-3.56-0.75c-1.18-0.45-2.25-1.08-3.22-1.78c-3.82-2.86-6.39-6.95-7.79-11.35c-1.39-4.39-1.52-9.37,0.29-13.87
			c0.89-2.23,2.24-4.21,3.64-5.94c1.4-1.74,2.84-3.28,3.92-4.87c1.11-1.58,1.8-3.2,1.94-4.98l0.04-1.35
			c-0.04-0.45-0.05-0.9-0.14-1.33c-0.15-0.86-0.41-1.67-0.83-2.47c-0.41-0.81-0.98-1.64-1.59-2.61c-0.6-0.96-1.2-2.09-1.58-3.31
			c-0.38-1.21-0.6-2.48-0.6-3.69c-0.05-0.62,0.03-1.21,0.04-1.81c0.07-0.59,0.14-1.19,0.24-1.77c0.92-4.65,3.31-8.88,6.84-11.99
			c1.78-1.55,3.81-2.82,6.23-3.5c2.55-0.66,5.01-0.23,7.16,0.33c2.19,0.57,4.22,1.34,6.24,2.1c2.02,0.78,4,1.58,5.98,2.41
			c3.99,1.65,7.9,3.5,11.73,5.4c3.82,1.93,7.64,3.7,11.73,4.86c4.07,1.18,8.29,1.94,12.56,2.3c-4.28,0.06-8.6-0.33-12.83-1.23
			c-4.25-0.85-8.34-2.48-12.27-4.15c-3.94-1.7-7.85-3.32-11.85-4.75c-4.02-1.4-8.04-3-12.01-3.92c-1.97-0.45-3.92-0.63-5.52-0.13
			c-1.7,0.53-3.39,1.58-4.79,2.88c-2.85,2.6-4.8,6.28-5.44,10.03c-0.3,1.88-0.28,3.8,0.26,5.42c0.27,0.83,0.68,1.61,1.21,2.45
			c0.53,0.85,1.18,1.77,1.75,2.86c0.58,1.09,1.01,2.34,1.23,3.58c0.14,0.63,0.16,1.24,0.21,1.86c0,0.62-0.02,1.24-0.04,1.86
			c-0.06,0.62-0.19,1.24-0.29,1.86c-0.15,0.61-0.36,1.21-0.55,1.81c-0.26,0.56-0.5,1.14-0.79,1.68c-0.31,0.51-0.6,1.06-0.95,1.53
			c-1.35,1.94-2.86,3.52-4.15,5.11c-1.3,1.58-2.39,3.18-3.1,4.92c-1.44,3.46-1.39,7.54-0.29,11.3c1.09,3.76,3.25,7.3,6.27,9.64
			c0.76,0.56,1.53,1.04,2.35,1.38c0.82,0.32,1.71,0.5,2.69,0.62c1.96,0.23,4.21,0.28,6.4,0.58c2.2,0.28,4.37,0.73,6.49,1.31
			c2.12,0.56,4.21,1.25,6.24,2.11c2.03,0.85,4,1.87,5.87,2.96c1.87,1.09,3.63,2.16,5.53,2.81c1.89,0.66,3.96,0.92,6.02,0.91
			c2.07-0.01,4.14-0.35,6.16-0.9C178.31,266.22,182.12,264.18,185.65,261.78z"/>
	</g>
	<g>
		<path class="st1" d="M141.69,174.46c-2.86-4.44-5.18-9.35-6.14-14.75c-0.43-2.7-0.46-5.51,0.08-8.28
			c0.53-2.74,1.75-5.47,3.47-7.73c1.72-2.26,3.53-4.04,4.78-6.08c0.63-1.02,1.14-2.11,1.58-3.24c0.41-1.15,0.76-2.33,1-3.52
			c0.48-2.39,0.59-4.77,0.33-7.3c-0.11-1.27-0.29-2.58-0.36-4.03c-0.07-1.43,0.03-3.12,0.67-4.71c1.35-3.16,4.09-5.13,6.86-6.22
			c2.8-1.05,5.66-1.41,8.45-1.42c1.39,0.01,2.78,0.09,4.15,0.23c0.69,0.07,1.36,0.16,2.03,0.26c0.69,0.13,1.38,0.22,2.07,0.38
			c2.75,0.59,5.42,1.68,7.78,3.05c2.38,1.36,4.53,2.78,6.79,3.93c2.25,1.18,4.66,1.98,7.16,2.56c5.01,1.17,10.31,1.13,15.52,0.27
			c-5,1.72-10.47,2.35-15.86,1.67c-2.68-0.37-5.38-1.04-7.91-2.11c-2.55-1.04-4.87-2.44-7.15-3.55c-2.29-1.13-4.6-1.92-7.03-2.38
			c-0.6-0.12-1.23-0.18-1.84-0.27c-0.63-0.08-1.27-0.14-1.9-0.18c-1.26-0.09-2.52-0.12-3.76-0.08c-1.24,0.05-2.47,0.15-3.66,0.34
			c-1.19,0.21-2.34,0.51-3.4,0.93c-1.03,0.46-2.03,0.97-2.81,1.69c-0.77,0.71-1.44,1.53-1.78,2.4c-0.76,1.68-0.34,4.19-0.13,6.92
			c0.24,2.72,0.14,5.68-0.54,8.44c-0.33,1.38-0.78,2.73-1.31,4.04c-0.57,1.31-1.22,2.59-2.03,3.79c-0.81,1.19-1.72,2.29-2.65,3.28
			c-0.93,0.99-1.84,1.9-2.64,2.84c-3.17,3.67-4.46,8.78-4.05,13.85C137.85,164.59,139.61,169.61,141.69,174.46z"/>
	</g>
	<g>
		<path class="st1" d="M97.73,296.1c-2.86,3.04-5.42,6.38-7.48,9.98c-1.01,1.81-1.88,3.69-2.53,5.64c-0.62,1.96-0.94,3.99-0.89,6
			l0.14,1.5c0.09,0.49,0.24,0.97,0.35,1.45c0.23,0.97,0.68,1.87,1.15,2.74c0.99,1.73,2.37,3.24,3.9,4.58
			c3.08,2.67,6.68,4.77,10.3,6.78l5.5,2.97c1.83,0.98,3.67,1.89,5.56,2.78c1.88,0.9,3.84,1.78,5.69,3.04
			c0.92,0.63,1.79,1.34,2.59,2.1c0.78,0.76,1.58,1.58,2.23,2.57c1.29,2,1.94,4.01,2.72,5.95l2.26,5.83
			c1.53,3.87,3.11,7.74,4.79,11.5c0.85,1.87,1.73,3.75,2.74,5.39c0.52,0.82,1.03,1.5,1.71,2.14c0.34,0.33,0.72,0.64,1.07,0.97
			c0.38,0.29,0.75,0.61,1.15,0.89c3.12,2.26,6.92,3.82,10.7,4.26c1.91,0.23,3.67,0.07,5.56-0.46c1.88-0.51,4.01-1.26,6.24-1.6
			c2.22-0.37,4.45-0.43,6.65-0.31c2.2,0.11,4.5,0.51,6.61,1.21c1.05,0.34,2.01,0.7,2.88,0.92c0.87,0.23,1.7,0.32,2.58,0.31
			c1.79-0.05,3.7-0.47,5.49-1.12c3.57-1.33,6.85-3.63,9.08-6.65c1.13-1.49,1.95-3.18,2.53-4.99c0.58-1.82,0.88-3.72,1.09-5.77
			c0.06-0.52,0.11-1.04,0.19-1.62c0.04-0.29,0.09-0.59,0.17-0.93c0.09-0.36,0.16-0.72,0.49-1.3c0.18-0.29,0.43-0.66,0.94-0.97
			c0.49-0.31,1.11-0.42,1.68-0.35c0.58,0.09,1.07,0.37,1.33,0.6c0.15,0.12,0.27,0.25,0.36,0.34c0.1,0.11,0.19,0.22,0.25,0.31
			c0.53,0.76,0.7,1.27,0.94,1.81c0.82,2.06,1.47,3.88,2.37,5.63c1.73,3.49,4.28,6.38,7.56,8.43c3.24,2.06,7.07,3.37,10.9,3.89
			c1.85,0.18,3.79,0.18,5.53-0.25c1.77-0.41,3.44-1.25,5.26-2.26c1.82-1.01,3.85-2.07,6.02-2.76c2.16-0.69,4.42-1.1,6.63-1.19
			c2.2-0.15,4.51-0.02,6.72,0.44c2.19,0.47,4.13,1.07,6.09,1.46c3.93,0.82,7.97,0.98,12.16,1.11c2.07,0.06,4.11,0.1,6.05-0.08
			c1.93-0.17,3.79-0.63,5.56-1.37c1.74-0.69,3.2-1.81,4.69-3.18c1.48-1.36,2.95-2.86,4.42-4.34c2.95-2.97,5.98-5.9,9-8.77
			c3.03-2.88,6.05-5.79,9.25-8.55c3.19-2.78,6.62-5.31,10.11-7.65c1.73-1.19,3.49-2.24,4.7-3.67c1.23-1.44,2.19-3.26,2.89-5.11
			c1.41-3.73,1.82-7.91,1.03-11.86c-0.38-1.97-1.06-3.91-2.11-5.59c-1.06-1.69-2.56-3.1-4.08-4.53c-3.08-2.84-6-5.9-8.6-9.19
			c-2.6-3.29-4.96-6.76-7.05-10.38c2.27,3.51,4.78,6.85,7.52,10c2.71,3.17,5.68,6.07,8.84,8.79c1.57,1.37,3.2,2.78,4.45,4.61
			c1.23,1.83,2.02,3.87,2.51,5.98c0.99,4.22,0.72,8.7-0.67,12.84c-0.71,2.07-1.67,4.04-3.1,5.83c-0.72,0.89-1.59,1.65-2.45,2.31
			c-0.86,0.66-1.72,1.26-2.57,1.87c-3.39,2.4-6.64,4.94-9.68,7.72c-3.05,2.79-6.01,5.73-8.98,8.66c-2.98,2.94-5.9,5.87-8.79,8.89
			c-1.45,1.5-2.88,3.02-4.45,4.52c-1.54,1.48-3.42,3-5.57,3.89c-2.07,0.92-4.31,1.48-6.54,1.71c-2.22,0.23-4.37,0.2-6.48,0.17
			c-4.15-0.08-8.51-0.19-12.78-1.04c-2.14-0.4-4.21-1.01-6.11-1.39c-1.89-0.37-3.79-0.46-5.76-0.3c-1.96,0.1-3.85,0.48-5.67,1.05
			c-1.82,0.59-3.52,1.47-5.34,2.49c-1.82,1.02-3.91,2.11-6.22,2.65c-2.32,0.57-4.62,0.58-6.92,0.35c-4.44-0.59-8.7-2.03-12.54-4.43
			c-3.84-2.36-7.03-5.96-9-9.96c-1.01-1.97-1.76-4.1-2.48-5.93c-0.17-0.42-0.39-0.89-0.47-0.98c-0.01-0.02-0.01-0.01,0,0
			c0,0,0.03,0.03,0.08,0.07c0.07,0.05,0.31,0.23,0.63,0.26c0.32,0.06,0.66-0.03,0.93-0.19c0.28-0.18,0.37-0.33,0.41-0.4
			c0.06-0.12-0.01,0.02-0.04,0.17c-0.04,0.16-0.08,0.38-0.11,0.61L204,367.2c-0.23,2.1-0.57,4.35-1.28,6.52
			c-0.7,2.17-1.74,4.29-3.14,6.12c-2.77,3.71-6.64,6.37-10.89,7.94c-2.15,0.76-4.36,1.27-6.75,1.33c-1.2,0.02-2.47-0.14-3.61-0.46
			c-1.15-0.31-2.14-0.71-3.08-1.01c-1.85-0.63-3.7-0.98-5.67-1.1c-1.97-0.13-3.94-0.1-5.84,0.2c-1.92,0.26-3.76,0.89-5.91,1.46
			c-2.14,0.59-4.62,0.8-6.86,0.48c-2.27-0.27-4.42-0.91-6.48-1.75c-2.06-0.85-4.02-1.95-5.8-3.3c-0.45-0.33-0.87-0.7-1.31-1.06
			c-0.41-0.39-0.83-0.75-1.23-1.16c-0.83-0.82-1.57-1.83-2.14-2.79c-1.14-1.94-1.99-3.88-2.83-5.83c-1.66-3.89-3.16-7.79-4.63-11.72
			l-2.16-5.9c-0.73-1.94-1.36-3.96-2.32-5.49c-0.47-0.77-1.12-1.48-1.82-2.19c-0.7-0.69-1.43-1.33-2.22-1.9
			c-1.58-1.15-3.42-2.04-5.29-2.99c-1.87-0.94-3.75-1.92-5.58-2.97c-1.82-1.03-3.64-2.06-5.44-3.14c-3.59-2.17-7.19-4.44-10.34-7.36
			c-1.56-1.47-2.98-3.14-4-5.07c-0.49-0.97-0.94-1.98-1.16-3.06c-0.11-0.54-0.25-1.07-0.32-1.6l-0.09-1.63
			c0.02-2.17,0.44-4.29,1.16-6.3c0.75-1.99,1.69-3.89,2.8-5.68C92,302.22,94.73,299.01,97.73,296.1z"/>
	</g>
	<g>
		<path class="st1" d="M79.66,312.97c-2.06,0.51-4.19,0.85-6.36,0.78c-2.15-0.08-4.38-0.62-6.26-1.88
			c-0.92-0.63-1.79-1.41-2.43-2.36c-0.66-0.93-1.14-1.96-1.54-2.97c-0.79-2.02-1.45-3.97-2.84-5.19c-0.68-0.61-1.49-1.13-2.33-1.39
			c-0.84-0.26-1.73-0.27-2.71-0.16c-1.95,0.24-4.21,0.79-6.51,0.67c-4.62-0.15-8.99-2.17-12.46-5.03c-3.5-2.87-6.26-6.44-8.21-10.55
			c-1.92-4.1-2.86-8.61-2.94-13.08c-0.05-2.24,0.11-4.5,0.51-6.7c0.38-2.22,1.01-4.42,1.76-6.47c0.36-1.02,0.75-2.02,1.01-2.9
			c0.27-0.9,0.34-1.6,0.18-1.94c-0.05-0.21-0.23-0.41-0.36-0.6c-0.18-0.12-0.3-0.26-0.6-0.34c-0.55-0.21-1.52-0.28-2.56-0.31
			c-2.1-0.08-4.5-0.24-6.76-0.93c-2.27-0.65-4.39-1.7-6.29-3.02c-3.81-2.62-6.86-6.28-8.68-10.54c-0.23-0.53-0.41-1.08-0.62-1.62
			c-0.16-0.56-0.34-1.11-0.48-1.67c-0.12-0.58-0.26-1.11-0.36-1.72c-0.09-0.59-0.15-1.16-0.19-1.73c-0.16-2.28-0.04-4.57,0.41-6.82
			c0.45-2.25,1.22-4.47,2.41-6.48c1.19-2.01,2.78-3.78,4.61-5.19c3.68-2.86,8.12-4.18,12.39-4.92c1.1-0.18,2.22-0.3,3.34-0.34
			c1.12-0.04,2.24,0.02,3.27,0.07c1.04,0.04,1.96,0.05,2.76-0.24c0.81-0.26,1.63-0.81,2.28-1.44c1.36-1.25,1.93-3.22,2.67-5.27
			c0.72-2.06,1.98-4.12,3.77-5.47c1.77-1.39,3.89-2.16,6.02-2.53c2.14-0.35,4.29-0.33,6.41-0.13c-2.13,0.01-4.25,0.19-6.28,0.72
			c-2.02,0.52-3.94,1.41-5.43,2.79c-1.51,1.37-2.46,3.14-3.02,5.12c-0.3,0.99-0.55,2.03-0.94,3.1c-0.39,1.06-0.96,2.14-1.78,3.04
			c-0.82,0.89-1.78,1.61-2.97,2.08c-1.19,0.49-2.45,0.51-3.53,0.53c-2.15-0.02-4.1,0.1-6.08,0.55c-1.99,0.47-4.01,1.01-5.85,1.77
			c-1.85,0.77-3.59,1.75-5.07,3c-3.01,2.47-4.87,6.04-5.52,9.89c-0.34,1.92-0.4,3.92-0.22,5.87c0.05,0.49,0.11,0.97,0.19,1.43
			c0.08,0.43,0.22,0.93,0.32,1.39c0.13,0.46,0.29,0.92,0.43,1.38c0.19,0.45,0.35,0.9,0.55,1.34c1.59,3.52,4.18,6.65,7.4,8.82
			c1.6,1.1,3.35,1.93,5.17,2.44c1.83,0.54,3.71,0.66,5.85,0.74c1.08,0.07,2.26,0.06,3.73,0.57c0.72,0.22,1.48,0.73,2.09,1.31
			c0.55,0.62,1.02,1.29,1.27,2.11c0.29,0.81,0.31,1.66,0.25,2.38c-0.08,0.72-0.23,1.37-0.41,1.93c-0.35,1.15-0.75,2.13-1.1,3.11
			c-0.72,1.94-1.28,3.84-1.63,5.81c-0.37,1.98-0.52,3.98-0.53,5.99c-0.01,4.02,0.74,8.03,2.35,11.67c1.62,3.59,4.06,7,7.04,9.63
			c2.97,2.66,6.68,4.45,10.59,4.79c1.96,0.21,3.91-0.16,6.18-0.34c1.13-0.08,2.41-0.01,3.59,0.43c1.18,0.44,2.17,1.14,3.01,2.01
			c0.84,0.87,1.45,1.93,1.87,2.97c0.43,1.05,0.71,2.09,1.04,3.07c0.32,0.99,0.69,1.92,1.21,2.76c0.51,0.85,1.19,1.57,1.97,2.2
			c1.57,1.26,3.59,1.93,5.66,2.18C75.43,313.41,77.56,313.28,79.66,312.97z"/>
	</g>
	<g>
		<path class="st1" d="M33.3,191.92c-1.03-3.52-2.52-6.88-4.52-9.87c-2.02-2.96-4.53-5.6-7.5-7.48c-1.48-0.94-3.1-1.74-4.74-2.68
			c-1.64-0.94-3.22-2.06-4.66-3.32c-2.8-2.51-5.39-5.32-7.39-8.66c-2-3.31-3.32-7.14-3.55-11.09c-0.28-3.96,0.56-7.93,1.98-11.51
			c0.7-1.8,1.56-3.51,2.45-5.15c0.45-0.83,0.86-1.6,1.4-2.49c0.53-0.86,1.11-1.65,1.69-2.42c2.37-3.01,4.94-5.67,7.54-8.31
			c2.62-2.6,5.32-5.12,8-7.61c2.69-2.49,5.37-5,8.19-7.42c2.81-2.41,5.76-4.76,9.03-6.74c1.63-1,3.35-1.85,4.98-2.65
			c1.67-0.8,3.36-1.59,5.13-2.28c3.51-1.38,7.36-2.35,11.24-2.25c3.86,0.15,7.66,1.09,11.05,2.78c3.4,1.68,6.4,4,9,6.64
			c2.62,2.63,4.85,5.61,6.69,8.78c-1.09-1.47-2.26-2.88-3.52-4.2c-1.24-1.33-2.54-2.61-3.93-3.76c-2.75-2.34-5.77-4.35-9.06-5.67
			c-3.26-1.37-6.76-2.01-10.22-1.95c-3.46,0.12-6.83,1.06-10.06,2.51c-1.62,0.71-3.21,1.54-4.81,2.39
			c-1.63,0.87-3.18,1.67-4.65,2.63c-2.95,1.9-5.7,4.19-8.38,6.61c-2.69,2.42-5.35,4.91-8.01,7.42c-2.67,2.51-5.29,5.02-7.85,7.59
			c-2.56,2.55-5.11,5.15-7.29,7.88c-0.53,0.68-1.04,1.37-1.47,2.06c-0.42,0.67-0.88,1.51-1.31,2.29c-0.87,1.57-1.66,3.14-2.34,4.73
			c-1.36,3.18-2.13,6.53-1.99,9.9c0.14,3.37,1.11,6.7,2.76,9.73c1.62,3.04,3.97,5.76,6.46,8.28c1.25,1.23,2.6,2.32,4.09,3.29
			c1.48,0.97,3.11,1.88,4.65,3.01c3.07,2.29,5.51,5.26,7.33,8.51c0.9,1.64,1.64,3.34,2.24,5.09
			C32.54,188.33,32.98,190.12,33.3,191.92z"/>
	</g>
	<g>
		<path class="st1" d="M144.7,60.04c-3.8-7.05-5.58-15.35-4.59-23.53c0.48-3.98,1.15-8.1,2.93-11.97c0.88-1.93,2.09-3.77,3.66-5.31
			c0.79-0.77,1.64-1.46,2.59-2.07c0.94-0.61,2.09-1.11,3.21-1.35c2.25-0.47,4.14-0.52,6.09-0.83c1.93-0.27,3.86-0.61,5.77-1.03
			c3.84-0.82,7.65-1.87,11.37-3.12c3.71-1.27,7.37-2.64,10.56-4.62l2.55-1.61c0.92-0.56,1.92-1.07,2.91-1.49
			c2-0.84,3.99-1.44,6.05-1.92c4.11-0.9,8.39-1.2,12.62-0.62c2.12,0.3,4.19,0.78,6.25,1.56c2.07,0.76,4.06,2.09,5.6,3.4
			c1.55,1.29,2.97,2.38,4.62,3.26c1.63,0.88,3.42,1.64,5.19,2.23c1.76,0.59,3.53,0.83,5.55,1.05c1.99,0.23,4.03,0.52,6.03,0.88
			c2,0.35,3.98,0.78,5.95,1.21c1.95,0.44,3.91,0.87,5.87,1.38c1.96,0.5,3.92,1.03,5.87,1.76c1.93,0.73,3.92,1.66,5.53,3.15
			c3.11,3.05,4.73,7,5.64,10.95c0.44,1.99,0.73,3.98,0.87,6c0.12,2.02,0.04,4.04-0.22,6.02c0.13-4.01-0.58-7.97-1.72-11.74
			c-0.6-1.87-1.33-3.7-2.3-5.37c-0.94-1.67-2.17-3.22-3.56-4.38c-1.41-1.16-3.16-1.89-4.99-2.47c-1.83-0.58-3.77-0.99-5.71-1.37
			c-3.9-0.74-7.84-1.53-11.73-2.06c-1.96-0.27-3.89-0.47-5.88-0.62c-1.96-0.15-4.19-0.4-6.24-1.04c-2.04-0.62-3.96-1.38-5.88-2.36
			c-1.91-0.95-3.71-2.28-5.26-3.51c-1.55-1.22-2.93-2.14-4.63-2.76c-1.68-0.62-3.53-1.05-5.38-1.29c-3.71-0.48-7.53-0.19-11.23,0.64
			c-1.84,0.41-3.7,0.96-5.39,1.66c-0.85,0.35-1.64,0.75-2.44,1.22l-2.54,1.57c-1.81,1.1-3.73,2.02-5.63,2.8
			c-1.91,0.8-3.85,1.48-5.8,2.08c-3.9,1.2-7.84,2.19-11.84,2.95c-2,0.39-4.03,0.71-6.07,0.92c-2.02,0.23-4.15,0.26-5.83,0.55
			c-0.83,0.16-1.56,0.43-2.32,0.88c-0.75,0.45-1.49,0.99-2.15,1.59c-1.34,1.21-2.43,2.72-3.31,4.38c-1.77,3.34-2.64,7.19-3.33,11.1
			C140.58,44.49,141.71,52.63,144.7,60.04z"/>
	</g>
	<g>
		<path class="st1" d="M253.1,72.09c4.49-6.82,9.87-13.09,15.95-18.64c3.04-2.78,6.32-5.3,9.58-7.76c3.29-2.45,6.69-4.85,10.58-6.67
			c1.94-0.9,4.01-1.63,6.2-2.01c2.19-0.38,4.49-0.36,6.68,0.08c4.42,0.87,8.33,3.19,11.55,6.07c1.57,1.41,3.15,3.04,4.35,4.97
			c1.21,1.92,2.02,3.88,2.85,5.73c1.61,3.72,3.34,7.31,5.28,10.83c1.9,3.53,3.99,6.95,6.25,10.25c1.13,1.65,2.31,3.26,3.54,4.82
			l3.82,4.7c2.55,3.11,5.19,5.83,8.57,7.64c1.68,0.93,3.41,1.67,5.24,2.14c1.83,0.49,3.77,0.7,5.86,1.03
			c2.08,0.32,4.24,0.86,6.23,1.71l1.47,0.68c0.48,0.24,0.94,0.51,1.41,0.76c0.92,0.51,1.81,1.08,2.68,1.68
			c3.48,2.42,6.52,5.53,8.63,9.22c1.05,1.84,1.85,3.81,2.43,5.83c0.55,2.03,0.86,4.11,0.92,6.19c0.12,4.16-0.67,8.29-2.18,12.08
			c0.56-1.96,0.93-3.97,1.11-5.98c0.19-2.01,0.19-4.03-0.03-6.02c-0.23-1.99-0.65-3.94-1.29-5.81c-0.67-1.86-1.55-3.63-2.63-5.27
			c-2.14-3.29-5.07-6-8.4-8.05c-0.83-0.51-1.69-1-2.57-1.44c-0.44-0.21-0.86-0.44-1.3-0.64l-1.33-0.55
			c-1.79-0.69-3.63-1.07-5.59-1.3c-1.95-0.23-4.08-0.37-6.22-0.86c-2.14-0.48-4.2-1.31-6.11-2.31c-1.91-1-3.75-2.26-5.37-3.7
			c-1.63-1.44-3.05-3.01-4.42-4.57c-1.37-1.57-2.64-3.15-3.95-4.74c-1.32-1.63-2.55-3.3-3.74-5c-2.37-3.41-4.56-6.93-6.55-10.57
			c-1.98-3.63-3.76-7.41-5.35-11.18c-0.81-1.88-1.57-3.69-2.53-5.24c-0.94-1.55-2.22-2.89-3.63-4.24c-2.78-2.6-6.1-4.64-9.7-5.43
			c-3.59-0.82-7.37-0.16-10.93,1.35c-3.58,1.49-6.96,3.72-10.32,5.95c-3.38,2.27-6.69,4.56-9.82,7.12
			C264,59.97,258.29,65.8,253.1,72.09z"/>
	</g>
	<g>
		<path class="st1" d="M350.05,144.35c8.98-1.58,18.08-2.49,27.22-2.82c2.29-0.08,4.59-0.09,6.91,0.01
			c1.16,0.06,2.33,0.14,3.51,0.31c1.18,0.17,2.38,0.4,3.59,0.86c1.2,0.46,2.4,1.22,3.3,2.16c0.46,0.46,0.89,1,1.26,1.59
			c0.35,0.6,0.63,1.23,0.82,1.84c0.4,1.22,0.62,2.33,0.89,3.43c0.26,1.1,0.54,2.18,0.83,3.26c1.2,4.3,2.7,8.54,4.44,12.66
			c0.87,2.06,1.82,4.1,2.79,6.15c0.97,2.04,1.95,4.04,3.04,5.98c1.08,1.95,2.21,3.83,3.45,5.7c0.61,0.94,1.28,1.91,1.89,3.03
			c0.62,1.12,1.11,2.43,1.38,3.68c1.06,4.93,0.48,9.91-0.95,14.5c-0.73,2.29-1.7,4.5-2.84,6.6c-0.56,1.03-1.2,2.08-1.89,3.1
			c-0.71,1.01-1.49,1.98-2.34,2.87c-0.83,0.89-1.71,1.68-2.36,2.4c-0.65,0.72-1.11,1.44-1.48,2.33c-0.18,0.44-0.36,0.91-0.47,1.38
			c-0.06,0.24-0.14,0.47-0.19,0.71l-0.12,0.7c-0.12,0.94-0.13,1.86,0.02,2.82c0.31,1.92,1.22,4.07,1.73,6.49
			c0.55,2.4,0.66,4.94,0.4,7.35c-0.25,2.43-0.85,4.81-1.73,7.06c-0.88,2.25-2.06,4.34-3.35,6.31c-1.29,1.97-2.73,3.8-4.17,5.58
			c-1.45,1.76-2.85,3.57-4.51,5.27c-1.64,1.71-3.6,3.26-5.8,4.3c-2.17,1.05-4.63,1.66-7.01,1.7c-2.38,0.04-4.63-0.2-6.88-0.27
			c-2.25-0.08-4.5-0.04-6.76,0.1c-4.51,0.29-9,1.04-13.42,2.14c4.3-1.51,8.75-2.64,13.31-3.25c2.27-0.32,4.57-0.49,6.87-0.55
			c2.3-0.07,4.6,0.03,6.77-0.15c9.07-0.42,13.93-9.57,18.97-16.57c2.3-3.73,3.88-7.8,4.22-12.02c0.18-2.11,0.05-4.18-0.46-6.21
			c-0.46-2.03-1.41-4.09-1.91-6.66c-0.24-1.29-0.27-2.66-0.1-3.98l0.16-0.98c0.07-0.32,0.16-0.63,0.24-0.94
			c0.16-0.63,0.37-1.23,0.62-1.85c0.49-1.22,1.27-2.45,2.14-3.42c0.87-0.98,1.7-1.71,2.41-2.49c1.44-1.52,2.56-3.24,3.59-5.17
			c1.02-1.9,1.87-3.89,2.51-5.93c1.31-4.06,1.79-8.42,0.95-12.43c-0.21-0.98-0.52-1.83-0.99-2.7c-0.47-0.87-1.08-1.8-1.71-2.76
			c-1.26-1.93-2.47-3.96-3.54-6.02c-1.09-2.05-2.07-4.16-3.01-6.25c-0.94-2.08-1.86-4.19-2.72-6.34c-1.73-4.3-3.13-8.71-4.22-13.22
			c-0.26-1.13-0.51-2.26-0.74-3.39c-0.23-1.11-0.43-2.25-0.71-3.2c-0.28-0.97-0.67-1.68-1.33-2.4c-0.66-0.72-1.39-1.25-2.29-1.66
			c-1.83-0.78-4.07-1.09-6.27-1.31c-2.22-0.2-4.48-0.29-6.74-0.33C368.22,143.27,359.13,143.64,350.05,144.35z"/>
	</g>
	<g>
		<path class="st1" d="M387.42,277c0.95,3.92,0.58,8.43-1.93,12.1c-1.29,1.83-3.11,3.1-4.59,4.34c-1.5,1.26-2.88,2.54-3.91,4.06
			c-2.08,3.03-3.28,6.8-4.45,10.61l-1.76,5.76c-0.58,1.9-1.08,3.8-1.51,5.72c-0.47,1.92-0.76,3.8-1.28,5.95
			c-0.27,1.07-0.67,2.21-1.18,3.22c-0.51,1.02-1.08,1.94-1.71,2.82c-2.53,3.52-5.8,6.46-9.56,8.47c-3.72,2.1-8,3.16-12.18,3.23
			c-4.19,0.04-8.33-0.84-11.99-2.63c7.86,1.96,16.2,0.92,22.57-3.28c3.19-2.11,6.01-4.76,8.02-7.92c0.5-0.79,1-1.59,1.37-2.38
			c0.38-0.8,0.65-1.58,0.86-2.47c0.4-1.79,0.7-3.91,1.18-5.91c0.49-2.02,1.05-4.01,1.67-5.97c0.62-1.94,1.22-3.86,1.9-5.79
			c0.68-1.92,1.39-3.86,2.25-5.78c0.85-1.92,1.9-3.85,3.32-5.54c1.39-1.72,3.09-3.11,4.83-4.27c1.74-1.16,3.4-2.1,4.62-3.47
			c1.25-1.35,2.15-3.11,2.72-4.97C387.24,281.04,387.46,279.03,387.42,277z"/>
	</g>
	<g>
		<path class="st1" d="M170.19,390.21c1.48,1.78,2.79,3.78,4.63,5c0.91,0.62,1.89,0.98,2.98,1.2c1.06,0.22,2.14,0.26,3.21,0.15
			c2.14-0.22,4.28-0.98,6.48-1.7c2.2-0.75,4.48-1.42,6.8-1.95c1.16-0.26,2.33-0.49,3.51-0.68c1.17-0.2,2.3-0.34,3.48-0.5
			c2.34-0.29,4.75-0.52,7.23-0.42c2.48,0.09,4.98,0.57,7.34,1.42c2.37,0.81,4.71,2.11,6.62,3.75c1.93,1.63,3.4,3.33,5.08,4.56
			c1.66,1.24,3.55,2.14,5.6,2.77c2.03,0.66,4.16,1.02,6.33,1.11c2.17,0.09,4.36-0.12,6.52-0.5c2.17-0.4,4.25-1.04,6.21-2.01
			c1.98-0.92,3.81-2.17,5.41-3.69c1.62-1.51,3.01-3.29,4.16-5.25c1.17-1.95,2.02-4.1,2.85-6.28c-0.21,1.14-0.41,2.29-0.7,3.43
			c-0.3,1.13-0.66,2.26-1.11,3.36c-0.91,2.19-2.15,4.29-3.72,6.14c-1.59,1.83-3.49,3.44-5.6,4.69c-2.11,1.25-4.46,2.14-6.81,2.73
			c-4.72,1.21-9.81,1.28-14.65-0.07c-2.39-0.69-4.76-1.77-6.83-3.29c-2.07-1.52-3.71-3.3-5.32-4.67c-1.6-1.4-3.36-2.41-5.37-3.13
			c-1.99-0.76-4.1-1.15-6.24-1.34c-2.15-0.17-4.38-0.06-6.64,0.13l-3.42,0.32c-1.12,0.11-2.24,0.25-3.35,0.42
			c-2.23,0.34-4.43,0.88-6.69,1.4c-2.25,0.51-4.58,1.15-7.1,1.14c-1.25-0.02-2.5-0.22-3.68-0.61c-0.59-0.19-1.14-0.43-1.72-0.72
			c-0.55-0.31-1.07-0.67-1.52-1.08c-0.93-0.81-1.65-1.79-2.27-2.79C171.28,392.26,170.79,391.21,170.19,390.21z"/>
	</g>
	<g>
		<path class="st1" d="M43.05,305.3c-0.33,1.33-0.7,2.66-0.86,3.99c-0.18,1.33-0.16,2.66,0.03,3.97c0.35,2.63,1.21,5.16,2.44,7.45
			c1.24,2.3,2.9,4.36,4.72,6.28c1.83,1.93,3.82,3.73,5.86,5.51c2.06,1.75,4.13,3.57,6.2,5.2c2.09,1.65,4.27,3.09,6.6,4.45
			c1.16,0.68,2.37,1.41,3.58,2.26c1.21,0.86,2.37,1.88,3.37,3c0.99,1.13,1.89,2.27,2.68,3.58c0.79,1.29,1.43,2.78,1.84,4.18
			c0.41,1.4,0.71,2.64,1.15,3.8c0.43,1.16,0.99,2.28,1.62,3.38c1.29,2.15,2.98,4.41,4.53,6.56c1.57,2.16,3.2,4.14,5.16,5.62
			c2,1.5,4.23,2.45,6.74,2.87c2.49,0.45,5.17,0.42,7.84,0.32c2.68-0.13,5.4-0.33,8.13-0.54l2.05-0.15c0.67-0.05,1.38-0.11,2.13-0.09
			c1.47,0.02,2.98,0.38,4.28,0.94c1.31,0.53,2.5,1.17,3.75,1.72c1.24,0.55,2.5,1.08,3.78,1.58c-1.36-0.22-2.71-0.49-4.04-0.85
			l-3.94-1.11c-1.28-0.35-2.51-0.46-3.77-0.31c-1.22,0.15-2.66,0.37-3.98,0.55c-2.71,0.38-5.42,0.8-8.18,1.07
			c-2.77,0.24-5.6,0.42-8.52,0.05c-1.45-0.2-2.93-0.49-4.35-1.05c-1.43-0.57-2.73-1.27-3.97-2.13c-2.48-1.74-4.41-3.99-6.13-6.18
			c-0.87-1.1-1.67-2.22-2.48-3.33c-0.79-1.08-1.65-2.3-2.39-3.53c-0.74-1.25-1.43-2.58-1.96-3.98c-0.54-1.39-0.9-2.82-1.28-4.03
			c-0.35-1.23-0.8-2.27-1.41-3.32c-0.61-1.04-1.39-2.07-2.19-3c-0.81-0.93-1.7-1.74-2.71-2.47c-1.01-0.74-2.15-1.41-3.31-2.16
			c-2.35-1.48-4.68-3.13-6.82-4.94c-2.17-1.82-4.14-3.69-6.13-5.6c-1.98-1.92-3.94-3.89-5.75-6.05c-1.77-2.18-3.4-4.55-4.56-7.17
			c-1.13-2.63-1.8-5.45-1.82-8.27c-0.01-1.42,0.17-2.84,0.55-4.19C41.91,307.8,42.52,306.56,43.05,305.3z"/>
	</g>
	<g>
		<path class="st1" d="M9.9,208.81c0.66-3.51,1.01-6.88,0.83-10.17c-0.16-3.34-0.74-6.5-1.94-9.43c-0.28-0.73-0.62-1.42-1.02-2.19
			c-0.38-0.77-0.82-1.65-1.15-2.57c-0.32-0.92-0.57-1.86-0.74-2.76c-0.17-0.86-0.33-1.79-0.39-2.77c-0.15-1.97,0.27-4.04,1.19-5.71
			c0.92-1.68,2.23-3.07,3.79-3.97c-1.92,3.03-2.65,6.33-1.86,9.24c0.18,0.75,0.44,1.52,0.7,2.34c0.27,0.79,0.52,1.52,0.84,2.22
			c0.32,0.7,0.68,1.37,1.12,2.14c0.42,0.77,0.87,1.64,1.23,2.53c1.44,3.53,1.81,7.44,1.36,11.05
			C13.42,202.44,12.08,205.97,9.9,208.81z"/>
	</g>
	<g>
		<path class="st1" d="M49.43,89.4c-0.58-2.44-0.75-5.07,0.01-7.62c0.38-1.27,1-2.48,1.88-3.54c0.91-1.08,2.06-1.83,3.14-2.51
			c2.21-1.31,4.39-2.5,6.65-3.69c1.12-0.59,2.28-1.14,3.44-1.67c1.16-0.54,2.39-0.99,3.07-1.53c0.8-0.62,1.63-1.49,2.27-2.37
			c0.66-0.89,1.24-1.87,1.73-2.94c0.99-2.11,1.79-4.5,2.6-6.83c0.38-1.15,0.71-2.26,0.97-3.41c0.24-1.12,0.5-2.56,0.99-3.87
			c0.95-2.57,2.21-4.93,3.78-7.12c1.57-2.17,3.46-4.08,5.29-5.82c1.84-1.77,3.85-3.53,6.05-4.98c2.2-1.46,4.57-2.7,7.07-3.6
			c1.25-0.46,2.51-0.85,3.83-1.14c1.32-0.28,2.69-0.44,4.03-0.46c2.68-0.03,5.12,0.21,7.6,0.28c2.47,0.09,4.96,0.09,7.45-0.01
			c4.98-0.14,9.96-0.66,14.95-1.34c-4.8,1.55-9.76,2.61-14.78,3.3c-2.52,0.33-5.05,0.54-7.59,0.67c-2.54,0.15-5.12,0.03-7.46,0.22
			c-2.31,0.19-4.54,0.86-6.75,1.75c-2.19,0.89-4.26,2.07-6.19,3.46c-1.94,1.38-3.74,2.93-5.49,4.67c-1.79,1.73-3.41,3.44-4.77,5.35
			c-1.38,1.87-2.53,3.97-3.35,6.09c-0.4,1.04-0.6,2.08-0.9,3.41c-0.3,1.3-0.7,2.59-1.17,3.81c-0.93,2.38-1.8,4.73-3.03,7.13
			c-1.21,2.4-2.96,4.68-5.35,6.3c-0.65,0.43-1.37,0.74-1.97,0.97l-1.77,0.66c-1.15,0.44-2.29,0.91-3.44,1.38
			c-2.28,0.95-4.6,1.99-6.82,3.04c-1.11,0.53-2.15,1.08-2.96,1.85c-0.81,0.79-1.47,1.79-1.97,2.87
			C49.51,84.35,49.26,86.9,49.43,89.4z"/>
	</g>
</g>
</svg>
