<?xml version="1.0" encoding="utf-8"?>
<!-- Generator: Adobe Illustrator 25.4.8, SVG Export Plug-In . SVG Version: 6.00 Build 0)  -->
<svg version="1.1" id="Layer_1" xmlns="http://www.w3.org/2000/svg" xmlns:xlink="http://www.w3.org/1999/xlink" x="0px" y="0px"
	 viewBox="0 0 152 112" style="enable-background:new 0 0 152 112;" xml:space="preserve">
<style type="text/css">
	.st0{fill:#F959AD;}
</style>
<path class="st0" d="M139,0H12.48C5.59,0,0,5.59,0,12.48v87.03C0,106.41,5.59,112,12.48,112H139c6.9,0,12.48-5.59,12.48-12.48V12.48
	C151.49,5.59,145.9,0,139,0z M145.65,15.51c0.43,1.77,0.86,3.57,0.77,5.39c-0.09,1.82-0.77,3.69-2.2,4.82
	c-1.43,1.13-3.69,1.27-5.01,0.02c-0.85-0.8-1.2-2.03-1.16-3.2c0.04-1.17,0.43-2.3,0.87-3.38c1.28-3.15,3.34-6.24,5.47-8.88
	C144.8,12.02,145.22,13.77,145.65,15.51z M142.03,39.09c-1,0-1.8-0.81-1.8-1.8c0-1,0.81-1.8,1.8-1.8c1,0,1.8,0.81,1.8,1.8
	C143.84,38.28,143.03,39.09,142.03,39.09z M143.91,54.35c0,1-0.81,1.8-1.8,1.8c-1,0-1.8-0.81-1.8-1.8c0-1,0.81-1.8,1.8-1.8
	C143.11,52.54,143.91,53.35,143.91,54.35z M143.84,42.91c0,1-0.81,1.8-1.8,1.8c-1,0-1.8-0.81-1.8-1.8c0-1,0.81-1.8,1.8-1.8
	C143.03,41.11,143.84,41.92,143.84,42.91z M141.88,33.39c-1,0-1.8-0.81-1.8-1.8c0-1,0.81-1.8,1.8-1.8c1,0,1.8,0.81,1.8,1.8
	C143.69,32.58,142.88,33.39,141.88,33.39z M141.96,46.85c1,0,1.8,0.81,1.8,1.8c0,1-0.81,1.8-1.8,1.8c-1,0-1.8-0.81-1.8-1.8
	C140.15,47.65,140.96,46.85,141.96,46.85z M142.11,58.18c1,0,1.8,0.81,1.8,1.8c0,1-0.81,1.8-1.8,1.8c-1,0-1.8-0.81-1.8-1.8
	C140.31,58.98,141.11,58.18,142.11,58.18z M142.16,63.81c1,0,1.8,0.81,1.8,1.8c0,1-0.81,1.8-1.8,1.8c-1,0-1.8-0.81-1.8-1.8
	C140.35,64.62,141.16,63.81,142.16,63.81z M129.15,4.78c0.91-0.84,2.27-1.06,3.53-0.88c1.26,0.18,2.46,0.71,3.64,1.24
	c1.16,0.52,2.32,1.04,3.48,1.56c-2.02,1.12-4.35,2.13-6.63,2.6c-0.79,0.16-1.6,0.28-2.41,0.15c-0.81-0.13-1.62-0.53-2.09-1.22
	C127.92,7.15,128.23,5.62,129.15,4.78z M112.64,34.8c0.62,1.41-0.68,2.73-2.57,3.62c-4.05,1.92-13.2,3.75-13.2,3.75
	s6.4-6.15,10.52-8.06C110.3,32.76,112.12,33.62,112.64,34.8z M117.07,44.24c0.2,1.53-1.43,2.42-3.5,2.74
	c-4.43,0.68-13.72-0.17-13.72-0.17s7.89-4.06,12.38-4.72C115.42,41.62,116.91,42.97,117.07,44.24z M105.68,25.89
	c1.09,1.09,0.36,2.79-1.08,4.31c-3.08,3.26-10.94,8.28-10.94,8.28s3.74-8.05,6.88-11.32C102.77,24.83,104.77,24.99,105.68,25.89z
	 M98.73,21.11c1.19,0.98,0.62,2.74-0.67,4.39c-2.76,3.53-10.11,9.27-10.11,9.27s2.96-8.37,5.78-11.92
	C95.73,20.33,97.74,20.29,98.73,21.11z M95.41,6.07c1,0,1.8,0.81,1.8,1.8c0,1-0.81,1.8-1.8,1.8c-1,0-1.8-0.81-1.8-1.8
	C93.61,6.88,94.42,6.07,95.41,6.07z M89.78,6.07c1,0,1.8,0.81,1.8,1.8c0,1-0.81,1.8-1.8,1.8c-1,0-1.8-0.81-1.8-1.8
	C87.98,6.88,88.78,6.07,89.78,6.07z M89.03,17.27c1.42,0.6,1.37,2.45,0.61,4.4c-1.63,4.17-7.04,11.77-7.04,11.77
	s0.45-8.87,2.14-13.07C85.93,17.38,87.85,16.77,89.03,17.27z M84.08,6.22c1,0,1.8,0.81,1.8,1.8c0,1-0.81,1.8-1.8,1.8
	c-1,0-1.8-0.81-1.8-1.8C82.28,7.03,83.09,6.22,84.08,6.22z M77.64,6.15c1,0,1.8,0.81,1.8,1.8c0,1-0.81,1.8-1.8,1.8
	c-1,0-1.8-0.81-1.8-1.8C75.83,6.95,76.64,6.15,77.64,6.15z M77.86,15.55c1.54,0.04,2.17,1.78,2.17,3.88
	c-0.01,4.48-2.29,13.53-2.29,13.53s-2.8-8.43-2.75-12.96C75.02,16.77,76.58,15.51,77.86,15.55z M72.01,6.15c1,0,1.8,0.81,1.8,1.8
	c0,1-0.81,1.8-1.8,1.8c-1,0-1.8-0.81-1.8-1.8C70.2,6.95,71.01,6.15,72.01,6.15z M71.93,19.78c0.34,4.47-1.23,13.66-1.23,13.66
	s-3.45-8.18-3.76-12.7c-0.22-3.21,1.24-4.59,2.52-4.66C71,16.01,71.77,17.69,71.93,19.78z M66.31,6.3c1,0,1.8,0.81,1.8,1.8
	c0,1-0.81,1.8-1.8,1.8c-1,0-1.8-0.81-1.8-1.8C64.51,7.11,65.31,6.3,66.31,6.3z M60.4,6.22c1,0,1.8,0.81,1.8,1.8
	c0,1-0.81,1.8-1.8,1.8c-1,0-1.8-0.81-1.8-1.8C58.6,7.03,59.41,6.22,60.4,6.22z M59.71,19.78c1.45-0.51,2.67,0.89,3.42,2.84
	c1.6,4.18,2.73,13.44,2.73,13.44s-5.64-6.86-7.23-11.1C57.49,21.95,58.5,20.2,59.71,19.78z M54.77,6.22c1,0,1.8,0.81,1.8,1.8
	c0,1-0.81,1.8-1.8,1.8s-1.8-0.81-1.8-1.8C52.97,7.03,53.78,6.22,54.77,6.22z M54.51,27.43c3.01,3.32,7.42,11.54,7.42,11.54
	s-7.74-4.34-10.76-7.72c-2.14-2.4-1.84-4.39-0.87-5.22C51.46,25.02,53.1,25.88,54.51,27.43z M49.07,6.37c1,0,1.8,0.81,1.8,1.8
	c0,1-0.81,1.8-1.8,1.8c-1,0-1.8-0.81-1.8-1.8C47.27,7.18,48.08,6.37,49.07,6.37z M49.32,33.6c3.31,3.02,8.47,10.79,8.47,10.79
	s-8.12-3.6-11.44-6.68c-2.36-2.19-2.24-4.19-1.36-5.12C46.06,31.48,47.77,32.19,49.32,33.6z M43.34,6.3c1,0,1.8,0.81,1.8,1.8
	c0,1-0.81,1.8-1.8,1.8c-1,0-1.8-0.81-1.8-1.8C41.53,7.11,42.34,6.3,43.34,6.3z M40.42,41.97c0.71-1.37,2.55-1.18,4.43-0.27
	c4.03,1.95,11.2,7.92,11.2,7.92s-8.81-1.13-12.87-3.13C40.29,45.06,39.83,43.11,40.42,41.97z M55.19,54.43c0,0-8.62,2.14-13.13,1.75
	c-3.21-0.28-4.35-1.93-4.21-3.21c0.16-1.53,1.95-2.03,4.03-1.86C46.34,51.46,55.19,54.43,55.19,54.43z M32.01,6.45
	c1,0,1.8,0.81,1.8,1.8c0,1-0.81,1.8-1.8,1.8c-1,0-1.8-0.81-1.8-1.8C30.2,7.26,31.01,6.45,32.01,6.45z M17.47,3.78
	c1.82,0.05,3.67,0.1,5.41,0.66c1.73,0.56,3.37,1.7,4.08,3.38s0.27,3.89-1.29,4.85c-1,0.61-2.28,0.63-3.39,0.28
	c-1.12-0.34-2.11-1.01-3.04-1.72c-2.7-2.05-5.15-4.85-7.15-7.6C13.89,3.68,15.68,3.73,17.47,3.78z M21.22,16.14
	c4.53,2.71,7.16,3.47,8.94,6.16c1.48,2.24,1.76,5.01,0.95,7.57c-0.47,1.46-0.97,2.86-2.97,4.37c-0.23,0.18-2.45,1.73-5.23,1.44
	c-3.16-0.33-5.42-1.89-7.03-3.8c-0.26-0.31-0.5-0.62-0.73-0.95c-0.78-1.12-1.37-2.3-1.8-3.39c-0.97-2.46-1.76-5.46-2.03-11.71
	c-0.19-4.33-0.6-7.89-0.81-10.15C13.66,10.23,17.32,13.81,21.22,16.14z M13.06,68.55c-1,0-1.8-0.81-1.8-1.8c0-1,0.81-1.8,1.8-1.8
	c1,0,1.8,0.81,1.8,1.8C14.86,67.74,14.06,68.55,13.06,68.55z M14.86,72.37c0,1-0.81,1.8-1.8,1.8c-1,0-1.8-0.81-1.8-1.8
	c0-1,0.81-1.8,1.8-1.8C14.06,70.57,14.86,71.38,14.86,72.37z M12.98,51.48c-1,0-1.8-0.81-1.8-1.8c0-1,0.81-1.8,1.8-1.8
	c1,0,1.8,0.81,1.8,1.8C14.79,50.67,13.98,51.48,12.98,51.48z M14.79,55.31c0,1-0.81,1.8-1.8,1.8c-1,0-1.8-0.81-1.8-1.8
	c0-1,0.81-1.8,1.8-1.8C13.98,53.5,14.79,54.31,14.79,55.31z M12.83,45.78c-1,0-1.8-0.81-1.8-1.8c0-1,0.81-1.8,1.8-1.8
	c1,0,1.8,0.81,1.8,1.8C14.64,44.97,13.83,45.78,12.83,45.78z M12.91,59.24c1,0,1.8,0.81,1.8,1.8c0,1-0.81,1.8-1.8,1.8
	c-1,0-1.8-0.81-1.8-1.8C11.1,60.05,11.91,59.24,12.91,59.24z M12.98,76.2c1,0,1.8,0.81,1.8,1.8c0,1-0.81,1.8-1.8,1.8
	c-1,0-1.8-0.81-1.8-1.8C11.18,77.01,11.99,76.2,12.98,76.2z M13.14,81.9c1,0,1.8,0.81,1.8,1.8c0,1-0.81,1.8-1.8,1.8
	c-1,0-1.8-0.81-1.8-1.8C11.33,82.71,12.14,81.9,13.14,81.9z M2.81,16.9c-0.57-1.1-0.43-2.46,0.07-3.63c0.5-1.17,1.33-2.19,2.15-3.19
	c0.8-0.98,1.61-1.97,2.41-2.95c0.55,2.24,0.92,4.75,0.77,7.08c-0.05,0.8-0.15,1.62-0.48,2.37C7.4,17.32,6.8,18,6.01,18.28
	C4.78,18.71,3.38,18,2.81,16.9z M5.34,96.82c-0.43-1.77-0.86-3.57-0.77-5.39c0.09-1.82,0.77-3.69,2.2-4.82
	c1.43-1.13,3.69-1.27,5.01-0.02c0.85,0.8,1.2,2.03,1.16,3.2c-0.04,1.17-0.43,2.3-0.87,3.38c-1.28,3.15-3.34,6.24-5.47,8.88
	C6.18,100.3,5.76,98.56,5.34,96.82z M21.84,107.54c-0.91,0.84-2.27,1.06-3.53,0.88c-1.26-0.18-2.46-0.71-3.64-1.24
	c-1.16-0.52-2.32-1.04-3.48-1.56c2.02-1.12,4.35-2.13,6.63-2.6c0.79-0.16,1.6-0.28,2.41-0.15c0.81,0.13,1.62,0.53,2.09,1.22
	C23.07,105.17,22.75,106.71,21.84,107.54z M29.35,94.59c-2.12,1.58-4.81,3.12-10.78,5.02c-4.13,1.32-7.46,2.64-9.59,3.43
	c3.58-4.24,6.07-8.69,7.31-13.07c1.43-5.08,1.47-7.82,3.61-10.24c1.78-2.01,4.38-3.01,7.06-2.89c1.53,0.07,3.02,0.19,4.99,1.72
	c0.23,0.18,2.31,1.92,2.76,4.67C35.59,88.62,32.26,92.42,29.35,94.59z M35.9,8.1c0-1,0.81-1.8,1.8-1.8c1,0,1.8,0.81,1.8,1.8
	c0,1-0.81,1.8-1.8,1.8C36.71,9.91,35.9,9.1,35.9,8.1z M36.85,62.16c-0.13-1.54,1.52-2.36,3.6-2.6c4.45-0.51,13.7,0.72,13.7,0.72
	s-8.05,3.75-12.56,4.23C38.4,64.84,36.96,63.44,36.85,62.16z M38.17,69.04c-0.26-1.52,1.32-2.48,3.37-2.9
	c4.39-0.88,13.71-0.45,13.71-0.45s-7.7,4.42-12.15,5.28C39.94,71.58,38.39,70.3,38.17,69.04z M42.5,76.69
	c-0.5-1.46,0.9-2.66,2.86-3.4c4.19-1.58,13.46-2.64,13.46-2.64s-6.89,5.59-11.15,7.15C44.65,78.92,42.91,77.9,42.5,76.69z
	 M53.05,108.07c-1,0-1.8-0.81-1.8-1.8c0-1,0.81-1.8,1.8-1.8c1,0,1.8,0.81,1.8,1.8C54.85,107.26,54.04,108.07,53.05,108.07z
	 M54.05,84.63c-2.58,1.92-4.53,1.44-5.28,0.4c-0.9-1.25,0.11-2.81,1.77-4.07c3.57-2.71,12.15-6.37,12.15-6.37
	S57.68,81.91,54.05,84.63z M58.75,107.92c-1,0-1.8-0.81-1.8-1.8c0-1,0.81-1.8,1.8-1.8c1,0,1.8,0.81,1.8,1.8
	C60.55,107.11,59.74,107.92,58.75,107.92z M57.4,92.32c-1.29-0.84-0.92-2.66,0.18-4.44c2.34-3.82,9.01-10.34,9.01-10.34
	s-2.01,8.65-4.41,12.49C60.46,92.76,58.47,93.02,57.4,92.32z M64.38,107.92c-1,0-1.8-0.81-1.8-1.8c0-1,0.81-1.8,1.8-1.8
	c1,0,1.8,0.81,1.8,1.8C66.18,107.11,65.37,107.92,64.38,107.92z M70.12,108c-1,0-1.8-0.81-1.8-1.8s0.81-1.8,1.8-1.8
	c1,0,1.8,0.81,1.8,1.8S71.11,108,70.12,108z M69.72,92.85c-1.44,2.88-3.4,3.32-4.54,2.73c-1.37-0.72-1.17-2.56-0.24-4.44
	c1.97-4.02,8-11.15,8-11.15S71.75,88.8,69.72,92.85z M71.49,69.66c-0.24-0.54-0.37-0.99-0.63-1.88c-0.83-2.87-0.61-3.49-0.41-3.81
	c0.2-0.34,0.57-0.68,0.75-0.61c0.12,0.05,0.11,0.29,0.1,0.96c-0.02,1.59,0.05,1.35,0,1.83c-0.06,0.55-0.15,0.82-0.02,1.24
	c0.09,0.29,0.26,0.59,0.35,0.57c0.09-0.02,0.11-0.41,0.08-0.69c-0.04-0.33-0.14-0.5-0.04-0.71c0.01-0.03,0.09-0.18,0.18-0.18
	c0.19,0.01,0.3,0.73,0.33,0.92c0.07,0.43,0.02,0.53,0.12,0.82c0.09,0.26,0.26,0.61,0.37,0.59c0.12-0.03,0.18-0.52,0.16-0.88
	c-0.01-0.27-0.07-0.41,0.02-0.49c0.11-0.1,0.37-0.08,0.51,0.06c0.16,0.16,0.08,0.39,0.02,1.3c-0.03,0.45-0.02,0.63,0.1,0.81
	c0.13,0.18,0.38,0.34,0.49,0.27c0.06-0.03,0.12-0.14-0.04-1.49c-0.03-0.24-0.05-0.41,0.06-0.51c0.15-0.14,0.48-0.12,0.65,0.06
	c0.06,0.06,0.09,0.14,0.12,0.41c0.04,0.51-0.05,0.64,0,0.96c0.05,0.3,0.2,0.65,0.33,0.65c0.14-0.01,0.24-0.42,0.26-0.51
	c0.02-0.07,0.07-0.35,0.02-1.08c-0.02-0.26-0.03-0.33,0.02-0.39c0.16-0.2,0.74-0.13,0.92,0.16c0.04,0.07,0.05,0.13,0.02,0.71
	c-0.03,0.53-0.05,0.69,0.06,0.81c0.09,0.1,0.25,0.14,0.37,0.1c0.19-0.06,0.26-0.3,0.27-0.37c0.06-0.24-0.03-0.35-0.1-0.81
	c-0.05-0.34-0.08-0.5,0-0.61c0.18-0.25,0.8-0.24,0.98,0.02c0.12,0.17-0.03,0.33-0.1,0.92c-0.03,0.27-0.1,0.88,0.1,0.96
	c0.12,0.05,0.33-0.09,0.43-0.26c0.07-0.11,0.11-0.25,0.08-1.1c-0.01-0.25-0.02-0.32,0.04-0.39c0.17-0.21,0.69-0.18,0.86,0.06
	c0.08,0.11,0.04,0.22-0.04,0.86c-0.08,0.6-0.07,0.72,0,0.77c0.11,0.08,0.37-0.02,0.49-0.2c0.08-0.12,0.07-0.24,0.04-0.81
	c-0.03-0.5-0.03-0.59,0.04-0.69c0.13-0.19,0.39-0.24,0.49-0.26c0.16-0.03,0.3-0.05,0.39,0.02c0.06,0.05,0.13,0.17,0.02,0.98
	c-0.07,0.46-0.12,0.65-0.02,0.73c0.09,0.07,0.26,0,0.35-0.06c0.05-0.04,0.18-0.14,0.26-0.47c0.04-0.18,0.04-0.33,0-0.86
	c-0.04-0.5-0.07-0.61,0.02-0.73c0.12-0.17,0.38-0.26,0.53-0.18c0.13,0.07,0.15,0.25,0.18,0.49c0.06,0.51-0.07,0.82,0.02,0.86
	c0.07,0.04,0.23-0.11,0.33-0.26c0.09-0.13,0.18-0.32,0.18-0.92c0-0.59-0.08-0.79,0.08-0.98c0.11-0.13,0.3-0.2,0.35-0.16
	c0.05,0.05-0.06,0.18-0.12,0.41c-0.09,0.37-0.01,0.81,0.14,0.84c0.09,0.02,0.19-0.1,0.24-0.16c0.31-0.38,0.27-0.9,0.24-1.49
	c-0.05-1-0.08-1.51,0.04-1.85c0.19-0.56,0.63-1.07,0.82-1c0.15,0.05,0.15,0.47,0.02,1.59c-0.21,1.81-0.31,2.72-0.61,3.77
	c-0.44,1.55-0.66,2.33-1.32,3.16c-0.29,0.36-0.97,1.2-2.14,1.69c-1.25,0.52-2.34,0.33-4.18,0c-1.56-0.28-2.34-0.41-3.06-1.02
	C72.3,71.5,71.91,70.6,71.49,69.66z M75.81,107.85c-1,0-1.8-0.81-1.8-1.8c0-1,0.81-1.8,1.8-1.8c1,0,1.8,0.81,1.8,1.8
	C77.62,107.04,76.81,107.85,75.81,107.85z M79.03,93.44c-0.56,3.17-2.31,4.16-3.57,3.91c-1.51-0.3-1.85-2.12-1.5-4.18
	c0.74-4.42,4.48-12.97,4.48-12.97S79.82,88.98,79.03,93.44z M81.45,107.85c-1,0-1.8-0.81-1.8-1.8c0-1,0.81-1.8,1.8-1.8
	c1,0,1.8,0.81,1.8,1.8C83.25,107.04,82.44,107.85,81.45,107.85z M83.83,93.4c-0.91-4.39-0.53-13.71-0.53-13.71s4.46,7.67,5.35,12.12
	c0.63,3.16-0.64,4.71-1.91,4.94C85.23,97.03,84.25,95.45,83.83,93.4z M87.35,107.92c-1,0-1.8-0.81-1.8-1.8c0-1,0.81-1.8,1.8-1.8
	c1,0,1.8,0.81,1.8,1.8C89.15,107.11,88.35,107.92,87.35,107.92z M88.57,57.06c-0.1,0-0.18-0.23-0.34-0.69
	c-0.19-0.53-0.2-0.89-0.27-1.43c-0.08-0.62-0.27-1.67-0.39-1.66c-0.12,0.01-0.16,1.08-0.17,1.2c-0.03,0.83-0.05,1.91,0.39,3.2
	c0.19,0.54,0.22,0.42,0.64,1.47c0.45,1.12,0.67,1.68,0.6,2.03c-0.22,1.04-1.66,1.8-2.66,1.68c-0.41-0.05-0.77-0.19-0.77-0.19
	c-0.6-0.24-0.72-0.51-1.12-0.54c-0.34-0.02-0.6,0.16-0.85,0.33c-0.54,0.37-0.76,0.88-0.89,1.18c-0.2,0.45-0.36,0.83-0.27,1.29
	c0.06,0.28,0.2,0.55,0.08,0.66c-0.05,0.05-0.16,0.06-0.23,0.02c-0.15-0.09-0.07-0.36-0.12-0.91c-0.03-0.31-0.05-0.5-0.17-0.54
	c-0.12-0.04-0.31,0.09-0.39,0.25c-0.05,0.1-0.1,0.25,0.06,0.87c0.14,0.54,0.24,0.69,0.15,0.85c-0.09,0.15-0.31,0.25-0.48,0.19
	c-0.33-0.12-0.37-0.89-0.39-1.29c-0.02-0.44,0.03-0.68-0.08-0.73c-0.12-0.05-0.36,0.13-0.48,0.35c-0.2,0.38-0.05,0.87,0.06,1.22
	c0.14,0.44,0.27,0.57,0.19,0.75c-0.09,0.19-0.36,0.28-0.58,0.25c-0.22-0.03-0.35-0.19-0.41-0.27c-0.16-0.2-0.21-0.41-0.27-0.89
	c-0.1-0.81-0.06-1.08-0.19-1.12c-0.12-0.04-0.32,0.16-0.41,0.37c-0.1,0.23-0.04,0.38,0.02,1.04c0.05,0.57,0.03,0.65-0.02,0.73
	c-0.17,0.25-0.58,0.32-0.89,0.23c-0.07-0.02-0.26-0.08-0.39-0.25c-0.19-0.23-0.11-0.47-0.12-1.2c-0.02-0.86-0.13-0.92-0.17-0.93
	c-0.11-0.03-0.25,0.13-0.29,0.19c-0.31,0.37-0.27,0.94-0.23,1.39c0.04,0.46,0.11,0.55,0.02,0.68c-0.21,0.31-0.93,0.33-1.18,0.02
	c-0.14-0.17-0.11-0.44-0.06-0.98c0.04-0.38,0.09-0.51,0.02-0.73c-0.08-0.25-0.29-0.51-0.46-0.48c-0.14,0.03-0.2,0.26-0.25,0.44
	c-0.07,0.27-0.07,0.52-0.04,0.77c0.07,0.59,0.26,0.77,0.15,0.93c-0.13,0.19-0.51,0.14-0.6,0.12c-0.1-0.01-0.45-0.06-0.58-0.31
	c-0.09-0.18,0-0.3,0.15-1.02c0.09-0.45,0.09-0.57,0.04-0.71c-0.09-0.26-0.32-0.5-0.46-0.46c-0.05,0.02-0.09,0.08-0.15,0.44
	c-0.06,0.38-0.1,0.82-0.12,1.02c-0.04,0.44-0.07,0.55-0.15,0.58c-0.12,0.06-0.35-0.07-0.46-0.25c-0.2-0.35,0.05-0.95,0.21-1.31
	c0.08-0.19,0.16-0.33,0.12-0.52c-0.04-0.2-0.21-0.41-0.35-0.39c-0.24,0.02-0.36,0.64-0.39,0.83c-0.11,0.58-0.02,0.99-0.12,1.02
	c-0.06,0.02-0.16-0.12-0.21-0.23c-0.14-0.3-0.02-0.59,0.06-0.95c0.08-0.39,0.1-0.77,0.08-0.99c-0.05-0.58-0.45-1.29-1.01-1.47
	c-0.68-0.22-0.98,0.54-1.88,0.6c-1.31,0.09-2.84-1.38-2.99-2.85c-0.03-0.33,0.07-0.71,0.28-1.47c0.49-1.8,0.89-2.18,1.15-3.45
	c0.22-1.07,0.21-2.22,0.05-2.25c-0.13-0.02-0.44,0.64-1.24,3.7c-1.42-4.76-1.8-9.61,1.1-13.42c4.07-5.33,10.66-4.84,11.03-4.83
	c4.23,0.18,7.09,1.8,8.81,3.97c1.16,1.47,1.54,2.88,1.94,4.48C90.54,52.01,89.03,57.08,88.57,57.06z M93.05,107.77
	c-1,0-1.8-0.81-1.8-1.8c0-1,0.81-1.8,1.8-1.8c1,0,1.8,0.81,1.8,1.8C94.85,106.96,94.05,107.77,93.05,107.77z M94.86,94.51
	c-1.49,0.39-2.58-1.11-3.17-3.12c-1.25-4.3-1.6-13.62-1.6-13.62s5.05,7.3,6.28,11.67C97.24,92.53,96.09,94.18,94.86,94.51z
	 M98.68,107.77c-1,0-1.8-0.81-1.8-1.8c0-1,0.81-1.8,1.8-1.8c1,0,1.8,0.81,1.8,1.8C100.48,106.96,99.68,107.77,98.68,107.77z
	 M99.72,86.82c-2.43-3.77-5.42-12.6-5.42-12.6s6.92,5.56,9.35,9.39c1.72,2.72,1.09,4.63,0,5.29
	C102.33,89.7,100.86,88.58,99.72,86.82z M105.12,107.85c-1,0-1.8-0.81-1.8-1.8c0-1,0.81-1.8,1.8-1.8c1,0,1.8,0.81,1.8,1.8
	C106.93,107.04,106.12,107.85,105.12,107.85z M97.55,70.56c0,0,8.47,2.67,12.12,5.36c2.59,1.91,2.7,3.92,1.92,4.93
	c-0.94,1.22-2.72,0.71-4.41-0.52C103.55,77.71,97.55,70.56,97.55,70.56z M110.82,107.69c-1,0-1.8-0.81-1.8-1.8c0-1,0.81-1.8,1.8-1.8
	c1,0,1.8,0.81,1.8,1.8C112.63,106.89,111.82,107.69,110.82,107.69z M110.99,73.24c-3.86-2.28-10.5-8.83-10.5-8.83
	s8.68,1.86,12.57,4.19c2.76,1.66,3.05,3.65,2.37,4.73C114.61,74.65,112.79,74.31,110.99,73.24z M101.12,58.94
	c0,0,8.85-0.7,13.24,0.43c3.12,0.8,3.97,2.62,3.63,3.86c-0.41,1.49-2.25,1.68-4.28,1.17C109.36,63.32,101.12,58.94,101.12,58.94z
	 M116.45,107.69c-1,0-1.8-0.81-1.8-1.8c0-1,0.81-1.8,1.8-1.8s1.8,0.81,1.8,1.8C118.26,106.89,117.45,107.69,116.45,107.69z
	 M114.69,54.58c-4.44,0.57-13.71-0.52-13.71-0.52s7.99-3.86,12.5-4.4c3.19-0.38,4.65,1,4.78,2.28
	C118.41,53.47,116.77,54.31,114.69,54.58z M116.27,29.09c-0.88-5.39,2.46-9.19,5.36-11.35c2.12-1.58,4.81-3.12,10.78-5.02
	c4.13-1.32,7.46-2.64,9.59-3.43c-3.58,4.24-6.07,8.69-7.31,13.07c-1.43,5.08-1.47,7.82-3.61,10.24c-1.78,2.01-4.38,3.01-7.06,2.89
	c-1.53-0.07-3.02-0.19-4.99-1.72C118.8,33.58,116.72,31.84,116.27,29.09z M133.52,108.55c-1.82-0.05-3.67-0.1-5.41-0.66
	c-1.73-0.56-3.37-1.7-4.08-3.38c-0.72-1.68-0.27-3.89,1.29-4.85c1-0.61,2.28-0.63,3.39-0.28c1.12,0.34,2.11,1.01,3.04,1.72
	c2.7,2.05,5.15,4.85,7.15,7.6C137.1,108.65,135.31,108.6,133.52,108.55z M129.77,96.18c-4.53-2.71-7.16-3.47-8.94-6.16
	c-1.48-2.24-1.76-5.01-0.95-7.57c0.47-1.46,0.97-2.86,2.97-4.37c0.23-0.18,2.45-1.73,5.23-1.44c4.67,0.48,7.38,3.66,8.9,6.68
	c0.21,0.42,0.4,0.84,0.57,1.24c0.03,0.07,0.06,0.15,0.09,0.22c0.97,2.46,1.76,5.46,2.03,11.71c0.19,4.33,0.6,7.89,0.81,10.15
	C137.32,102.09,133.67,98.52,129.77,96.18z M140.5,71.31c0-1,0.81-1.8,1.8-1.8c1,0,1.8,0.81,1.8,1.8c0,1-0.81,1.8-1.8,1.8
	C141.31,73.11,140.5,72.31,140.5,71.31z M148.1,99.06c-0.5,1.17-1.33,2.19-2.15,3.19c-0.8,0.98-1.61,1.97-2.41,2.95
	c-0.55-2.24-0.92-4.75-0.77-7.08c0.05-0.8,0.15-1.62,0.48-2.37c0.33-0.75,0.93-1.43,1.72-1.7c1.23-0.43,2.63,0.28,3.2,1.38
	C148.75,96.52,148.61,97.89,148.1,99.06z"/>
<circle class="st0" cx="72.23" cy="56.88" r="3.47"/>
<circle class="st0" cx="82.85" cy="56.65" r="3.47"/>
<path class="st0" d="M77.78,58.74c-0.29,0-2.72,2.97-1.91,4.31c0.15,0.24,0.41,0.35,0.62,0.42c0.29,0.03,0.56,0.1,0.79-0.22
	c0.29-0.39,0.29-1.33,0.34-1.33c0.06,0,0,0.69,0.24,1.29c0.12,0.31,0.61,0.49,0.94,0.39c0.45-0.14,0.53-0.41,0.57-0.66
	c0.15-0.97-0.26-2.22-0.74-3.09C78.23,59.13,78.04,58.74,77.78,58.74z"/>
</svg>
