<?xml version="1.0" encoding="utf-8"?>
<!-- Generator: Adobe Illustrator 27.5.0, SVG Export Plug-In . SVG Version: 6.00 Build 0)  -->
<svg version="1.1" id="Layer_1" xmlns="http://www.w3.org/2000/svg" xmlns:xlink="http://www.w3.org/1999/xlink" x="0px" y="0px"
	 viewBox="0 0 61 58" style="enable-background:new 0 0 61 58;" xml:space="preserve">
<style type="text/css">
	.st0{fill:#2B3E98;}
	.st1{fill:#C79C2C;}
</style>
<path class="st0" d="M17.74,7.51V7.21l5.51,0.19l8.2,8.14l8.17-8.09l5.47-0.24v0.33c-0.08-0.01-0.22-0.03-0.39,0.03
	c-0.04,0.01-0.17,0.07-0.32,0.24c-0.18,0.2-0.25,0.42-0.3,0.57c-0.2,0.64-0.27,1.19-0.3,1.38c-0.03,0.23-0.05,0.41-0.08,0.71
	c-0.04,0.43-0.11,1.06-0.15,1.55c-0.05,0.63-0.06,1.1-0.06,2.25c-0.01,1.35-0.02,2.02-0.02,2.86c0,1.47,0.01,2.35,0.02,3.46
	c0,0.39,0.01,0.85,0.03,1.46c0.03,0.89,0.07,1.49,0.14,2.09c0.01,0.11,0.08,0.72,0.26,1.43c0,0,0.11,0.44,0.38,0.9
	c0.02,0.03,0.1,0.17,0.25,0.32c0.12,0.12,0.19,0.15,0.23,0.16c0.12,0.05,0.22,0.04,0.28,0.03l0.02,0.31h-7.6v-0.3
	C37.57,27,37.7,27,37.84,26.98c0.18-0.02,0.33-0.07,0.39-0.1c0.32-0.13,0.5-0.46,0.62-0.69c0.22-0.41,0.28-0.78,0.36-1.28
	c0.05-0.29,0.07-0.51,0.08-0.67c0.09-1.01,0.11-1.82,0.11-1.83c0.03-1.23,0.05-0.83,0.09-2.41c0.02-0.68,0.05-2.17,0.05-5.25
	c0-1.05-0.01-2.43-0.02-4.04l-1.55,1.57l-3.36,3.46L32.49,18l-2.08,0.02l-7.05-7.35l-0.03,4.7c0.05,5.09,0.07,7.26,0.06,7.65
	c0,0.02,0,0.13,0,0.28c0,0.36,0.01,0.68,0.06,1.04c0.03,0.24,0.12,0.53,0.28,1.11c0.07,0.26,0.12,0.4,0.21,0.58
	c0.06,0.11,0.17,0.31,0.36,0.52c0.13,0.14,0.22,0.23,0.37,0.32c0.18,0.1,0.36,0.12,0.45,0.14c0.1,0.01,0.18,0.02,0.24,0.02v0.28
	h-7.65v-0.28c0.09,0.01,0.22,0.01,0.37-0.02c0.04-0.01,0.11-0.03,0.19-0.06c0.18-0.09,0.27-0.27,0.32-0.38
	c0.25-0.56,0.32-0.89,0.32-0.89c0.13-0.6,0.18-1.08,0.19-1.17c0.1-0.95,0.13-1.51,0.13-1.51c0.04-0.65,0.07-1.32,0.1-2.4
	c0.02-0.82,0.04-1.43,0.05-2.26c0-0.46,0.01-1-0.01-2.57c-0.03-3.38-0.07-3.94-0.11-4.35c-0.12-1.35-0.29-1.95-0.32-2.39
	c0-0.04-0.02-0.23-0.09-0.45c-0.04-0.14-0.09-0.23-0.1-0.25c-0.06-0.12-0.11-0.19-0.23-0.34c-0.13-0.17-0.2-0.24-0.24-0.28
	c-0.08-0.07-0.13-0.1-0.19-0.12c-0.08-0.03-0.15-0.03-0.19-0.03L17.74,7.51z"/>
<polygon class="st0" points="24.71,13.82 24.71,20.51 27.64,17.06 "/>
<polygon class="st0" points="35.32,17.04 38.25,13.81 38.25,20.54 "/>
<polygon class="st0" points="27.08,22.56 29.24,22.76 29.59,25.05 "/>
<polygon class="st0" points="33.29,25.05 33.56,22.81 35.74,22.56 "/>
<polygon class="st0" points="30.36,26.39 32.48,26.39 31.42,27.2 "/>
<path class="st0" d="M5.28,36.94c-0.01,0.1-0.01,0.14-0.08,0.43c-0.03,0.11-0.09,0.15-0.15,0.21c-0.01,0.01-0.04,0.03-0.1,0.07
	c-0.07,0.03-0.17,0.08-0.31,0.1v0.07h2.01l0-0.11c-0.05,0-0.13-0.02-0.21-0.07c-0.07-0.05-0.11-0.13-0.19-0.29
	c-0.1-0.21-0.11-0.31-0.11-0.34c-0.03-0.25-0.03-0.38-0.03-0.54c-0.01-0.79-0.06-1.48-0.06-4.78l2.77,6.13h0.94l2.71-6.09
	c-0.02,1.69-0.02,2.77,0,3.28c0,0.12,0.02,0.56-0.02,1.03c-0.01,0.08-0.02,0.27-0.05,0.49c-0.02,0.16-0.03,0.29-0.06,0.45
	c-0.1,0.6-0.19,0.68-0.24,0.7c-0.12,0.06-0.24,0.04-0.31,0.02v0.11h2.96v-0.11c-0.06-0.01-0.16-0.03-0.26-0.11
	c-0.06-0.05-0.09-0.1-0.13-0.18c-0.03-0.05-0.09-0.15-0.13-0.3c-0.1-0.32-0.06-0.67-0.06-0.67c-0.01-0.68-0.03-1.2-0.02-1.8
	c0.01-1.02,0.03-2.03,0.05-3.05c0-0.22,0.03-0.44,0.07-0.61c0.01-0.03,0.01-0.12,0.07-0.2c0.06-0.08,0.14-0.11,0.18-0.12
	c0.12-0.04,0.23-0.02,0.27-0.01v-0.14h-2.4l-0.08,0.3l-2.34,5.14l-2.49-5.44l-2.5,0.02l0,0.12c0.04,0,0.09,0,0.15,0.01
	c0.07,0.01,0.11,0.01,0.14,0.03c0.12,0.04,0.18,0.14,0.2,0.18c0.04,0.06,0.05,0.11,0.07,0.2c0.02,0.07,0.03,0.13,0.03,0.18
	c-0.01,0.42-0.01,0.78-0.02,1.04c-0.02,0.77-0.02,1.16-0.05,1.64L5.28,36.94z"/>
<path class="st0" d="M15.99,30.52h2.88v0.13c-0.03,0-0.18-0.01-0.31,0.09c-0.03,0.02-0.08,0.07-0.14,0.21
	c-0.04,0.1-0.1,0.27-0.09,0.5l0.01,5.33c0,0.15,0.02,0.28,0.03,0.36c0.02,0.11,0.05,0.21,0.11,0.31c0.04,0.06,0.09,0.14,0.21,0.19
	c0.08,0.04,0.16,0.05,0.21,0.05v0.13h-2.87v-0.14c0.04,0,0.16,0.01,0.27-0.06c0.12-0.07,0.16-0.21,0.22-0.38
	c0.03-0.09,0.06-0.22,0.07-0.39v-5.39c0-0.04,0-0.07-0.01-0.11c-0.02-0.08-0.04-0.15-0.06-0.2c-0.04-0.13-0.08-0.23-0.17-0.34
	c-0.04-0.05-0.08-0.1-0.16-0.14c-0.08-0.04-0.16-0.04-0.21-0.03V30.52z"/>
<path class="st0" d="M26.57,30.52h2.88v0.13c-0.03,0-0.18-0.01-0.31,0.09c-0.03,0.02-0.08,0.07-0.14,0.21
	c-0.04,0.1-0.1,0.27-0.09,0.5l0.01,5.33c0,0.15,0.02,0.28,0.03,0.36c0.02,0.11,0.05,0.21,0.11,0.31c0.04,0.06,0.09,0.14,0.21,0.19
	c0.08,0.04,0.16,0.05,0.21,0.05v0.13h-2.87v-0.14c0.04,0,0.16,0.01,0.27-0.06c0.12-0.07,0.16-0.21,0.22-0.38
	c0.03-0.09,0.06-0.22,0.07-0.39v-5.39c0-0.04,0-0.07-0.01-0.11c-0.02-0.08-0.04-0.15-0.06-0.2c-0.04-0.13-0.08-0.23-0.17-0.34
	c-0.04-0.05-0.08-0.1-0.16-0.14c-0.08-0.04-0.16-0.04-0.21-0.03V30.52z"/>
<path class="st0" d="M31.36,30.52h2.88v0.13c-0.03,0-0.18-0.01-0.31,0.09c-0.03,0.02-0.08,0.07-0.14,0.21
	c-0.04,0.1-0.1,0.27-0.09,0.5l0.01,5.33c0,0.15,0.02,0.28,0.03,0.36c0.02,0.11,0.05,0.21,0.11,0.31c0.04,0.06,0.09,0.14,0.21,0.19
	c0.08,0.04,0.16,0.05,0.21,0.05v0.13h-2.87v-0.14c0.04,0,0.16,0.01,0.27-0.06c0.12-0.07,0.16-0.21,0.22-0.38
	c0.03-0.09,0.06-0.22,0.07-0.39v-5.39c0-0.04,0-0.07-0.01-0.11c-0.02-0.08-0.04-0.15-0.06-0.2c-0.04-0.13-0.08-0.23-0.17-0.34
	c-0.04-0.05-0.08-0.1-0.16-0.14c-0.08-0.04-0.16-0.04-0.21-0.03V30.52z"/>
<rect x="28.33" y="33.57" class="st0" width="4.49" height="0.6"/>
<path class="st0" d="M25.09,30.52c0,0.68,0,1.36,0,2.04h-0.26c0.02-0.1,0.04-0.25,0-0.44c-0.04-0.19-0.11-0.31-0.19-0.43
	c-0.16-0.25-0.34-0.4-0.38-0.44c-0.05-0.04-0.27-0.21-0.65-0.32c-0.27-0.08-0.9-0.26-1.44,0.08c-0.09,0.06-0.32,0.21-0.45,0.51
	c-0.15,0.35-0.06,0.69-0.02,0.79c0.09,0.27,0.27,0.46,0.64,0.71c0.58,0.4,0.87,0.43,1.78,0.86c0.82,0.39,1.02,0.57,1.15,0.79
	c0.2,0.33,0.24,0.67,0.25,0.8c0.01,0.16,0.05,0.53-0.13,0.93c-0.2,0.45-0.54,0.69-0.88,0.91c-0.17,0.12-0.47,0.29-0.87,0.42
	c-0.42,0.13-0.74,0.14-1.12,0.15c-0.57,0.02-1.01-0.04-1.45-0.11c-0.38-0.06-0.7-0.12-0.92-0.18v-2.12h0.3
	c-0.02,0.13-0.03,0.33,0.03,0.56c0.07,0.26,0.21,0.42,0.35,0.59c0.13,0.16,0.35,0.42,0.74,0.6c0.38,0.19,0.71,0.2,0.98,0.22
	c0.3,0.02,0.53,0.03,0.79-0.09c0.08-0.04,0.35-0.16,0.53-0.44c0.3-0.48,0.15-1.16-0.2-1.55c-0.16-0.17-0.42-0.28-0.94-0.49
	c-0.57-0.23-0.61-0.18-0.99-0.35c-0.3-0.14-0.76-0.35-1.14-0.82c-0.13-0.16-0.32-0.4-0.43-0.77c-0.04-0.13-0.21-0.75,0.11-1.33
	c0.2-0.36,0.48-0.53,0.76-0.69c0.54-0.32,1.04-0.38,1.49-0.44c0.35-0.04,0.81-0.1,1.27,0c0.08,0.02,0.26,0.06,0.51,0.08
	c0.24,0.02,0.45,0,0.58-0.01L25.09,30.52z"/>
<path class="st0" d="M56.78,30.52c0,0.68,0,1.36,0,2.04h-0.26c0.02-0.1,0.04-0.25,0-0.44c-0.04-0.19-0.11-0.31-0.19-0.43
	c-0.16-0.25-0.34-0.4-0.38-0.44c-0.05-0.04-0.27-0.21-0.65-0.32c-0.27-0.08-0.9-0.26-1.44,0.08c-0.09,0.06-0.32,0.21-0.45,0.51
	c-0.15,0.35-0.06,0.69-0.02,0.79c0.09,0.27,0.27,0.46,0.64,0.71c0.58,0.4,0.87,0.43,1.78,0.86c0.82,0.39,1.02,0.57,1.15,0.79
	c0.2,0.33,0.24,0.67,0.25,0.8c0.01,0.16,0.05,0.53-0.13,0.93c-0.2,0.45-0.54,0.69-0.88,0.91c-0.17,0.12-0.47,0.29-0.87,0.42
	c-0.42,0.13-0.74,0.14-1.12,0.15c-0.57,0.02-1.01-0.04-1.45-0.11c-0.38-0.06-0.7-0.12-0.92-0.18v-2.12h0.3
	c-0.02,0.13-0.03,0.33,0.03,0.56c0.07,0.26,0.21,0.42,0.35,0.59c0.13,0.16,0.35,0.42,0.74,0.6c0.38,0.19,0.71,0.2,0.98,0.22
	c0.3,0.02,0.53,0.03,0.79-0.09c0.08-0.04,0.35-0.16,0.53-0.44c0.3-0.48,0.15-1.16-0.2-1.55c-0.16-0.17-0.42-0.28-0.94-0.49
	c-0.57-0.23-0.61-0.18-0.99-0.35c-0.3-0.14-0.76-0.35-1.14-0.82c-0.13-0.16-0.32-0.4-0.43-0.77c-0.04-0.13-0.21-0.75,0.11-1.33
	c0.2-0.36,0.48-0.53,0.76-0.69c0.54-0.32,1.04-0.38,1.49-0.44c0.35-0.04,0.81-0.1,1.27,0c0.08,0.02,0.26,0.06,0.51,0.08
	c0.24,0.02,0.45,0,0.58-0.01L56.78,30.52z"/>
<path class="st0" d="M35.26,30.52h2.87v0.14c-0.06,0.01-0.16,0.03-0.25,0.1c-0.14,0.11-0.18,0.27-0.22,0.47
	c-0.08,0.44-0.09,0.8-0.09,0.93c-0.01,0.25-0.01,0.5-0.02,0.75c0,0.31-0.01,0.75-0.03,1.3l0.7-0.55c1.41-1.62,1.94-2.19,2.04-2.27
	c0.01-0.01,0.05-0.03,0.08-0.08c0.07-0.1,0.06-0.22,0.04-0.33c-0.01-0.13-0.02-0.19-0.07-0.25c-0.1-0.11-0.26-0.1-0.29-0.09v-0.13
	h3.02v0.14c-0.09,0-0.22,0.02-0.37,0.08c-0.19,0.07-0.31,0.18-0.36,0.22c-0.59,0.52-1.26,0.95-1.85,1.47
	c-0.26,0.23-0.68,0.59-1.21,1.05l1.93,2.67l1.03,1.23c0.05,0.06,0.14,0.17,0.28,0.25c0.21,0.11,0.4,0.11,0.49,0.1v0.09h-2.72
	l-2.26-3.51l-0.5,0.43l0.05,2.18c0.01,0.16,0.05,0.28,0.09,0.36c0.05,0.12,0.13,0.3,0.31,0.38c0.09,0.05,0.18,0.05,0.24,0.05v0.11
	h-2.93v-0.13c0.06,0.02,0.14,0.03,0.23-0.01c0.14-0.06,0.19-0.22,0.22-0.36c0.11-0.46,0.13-1.06,0.13-1.29l0.01-4.62
	c-0.04-0.18-0.1-0.31-0.14-0.4c-0.08-0.15-0.14-0.2-0.15-0.21c-0.11-0.09-0.22-0.11-0.29-0.12V30.52z"/>
<path class="st0" d="M50.82,37.58c-0.2-0.14-0.25-0.35-0.25-0.4l-0.73-1.61l-1.59-4.41c-0.03-0.1-0.06-0.22-0.08-0.37
	c-0.01-0.11-0.01-0.2,0-0.28h-2.05l0.01,0.18c0.03-0.01,0.12-0.03,0.22,0.03c0.04,0.02,0.07,0.05,0.08,0.08l-0.03,0.67l-1.15,2.89
	l-1.43,3.04c-0.02,0.04-0.1,0.19-0.29,0.26c-0.12,0.04-0.23,0.03-0.28,0.02v0.15h2.16v-0.13c-0.04,0-0.11,0-0.19-0.03
	c-0.04-0.01-0.08-0.03-0.11-0.06c-0.06-0.05-0.07-0.13-0.07-0.21c-0.01-0.1-0.01-0.24,0-0.42l0.58-2.05l2.24-0.02l0.95,2.91h2.41
	v-0.13C51.15,37.7,50.98,37.69,50.82,37.58z M45.82,34.42l0.93-2.58l0.92,2.58H45.82z"/>
<g>
	<line class="st0" x1="57.22" y1="45.54" x2="5.87" y2="45.54"/>
	<path class="st1" d="M57.22,45.59c-9.07,0.11-29.75,0.45-38.51,0.45c-4.29-0.07-8.57,0.16-12.84-0.45c0,0,0-0.1,0-0.1
		c2.14-0.36,4.28-0.35,6.42-0.41c6.42-0.08,12.84-0.01,19.26,0.06C31.53,45.23,57.44,45.33,57.22,45.59L57.22,45.59z"/>
</g>
<g>
	<path class="st1" d="M12.66,48.99c-2.38-0.78-4.66-1.83-6.89-2.94c-0.49-0.15-0.67-0.86-0.13-1.15c0.19-0.09,0.56-0.26,0.75-0.36
		c2.04-0.97,4.11-1.86,6.28-2.54c-2.07,1.45-4.29,2.65-6.54,3.78c0.23-0.1,0.26-0.55,0-0.66C8.37,46.28,10.59,47.51,12.66,48.99
		L12.66,48.99z"/>
</g>
</svg>
