<?xml version="1.0" encoding="utf-8"?>
<!-- Generator: Adobe Illustrator 27.4.1, SVG Export Plug-In . SVG Version: 6.00 Build 0)  -->
<svg version="1.1" id="Layer_1" xmlns="http://www.w3.org/2000/svg" xmlns:xlink="http://www.w3.org/1999/xlink" x="0px" y="0px"
	 viewBox="0 0 300 300" style="enable-background:new 0 0 300 300;" xml:space="preserve">
<style type="text/css">
	.st0{fill:#D8798C;}
	.st1{fill:none;stroke:#D8798C;stroke-width:25;stroke-miterlimit:10;}
	.st2{fill:#919090;}
	.st3{fill:none;stroke:#919090;stroke-miterlimit:10;}
</style>
<g id="Layer_1_00000145039848679531298410000010438778803591437704_">
	<g>
		<path class="st0" d="M203.32,150.81c0.14,33.96-17.66,69.6-50.05,83.36C89.82,261.6,21.95,198.58,31.66,133.49
			c8.1-56.3,69.97-90.31,121.84-66.6C185.63,81.22,203.65,116.68,203.32,150.81L203.32,150.81z M201.88,150.81
			c0.14-33.09-23.62-60.27-53.71-71.06C96.33,60.83,42.73,95.79,38.81,150.81c-1.49,21.24,6.74,42.98,22.26,57.66
			c22.91,22.09,58.67,25.2,87.32,13.95C178.22,211,202.24,184.03,201.88,150.81L201.88,150.81z"/>
	</g>
</g>
<g id="Layer_2_00000031186964134117770830000007312263915318146183_">
	<line class="st1" x1="175.86" y1="92.62" x2="69.47" y2="218.67"/>
</g>
<g id="Layer_3">
	<g>
		<path class="st2" d="M63.92,210.46c31.78-38.34,69.67-84,101.77-122.06l0.22,1.55c-7.89-5.22-16.63-9.16-25.78-11.54
			c-13.67-3.49-28.37-3.96-42.03-0.15c-32.16,8.89-56.87,39.24-58.6,72.63c-1.16,18.97,4.63,38.61,17.44,52.84
			C56.96,203.73,63.92,210.46,63.92,210.46L63.92,210.46z M63.92,210.46c-0.01-0.01-7.14-6.52-7.15-6.54
			c-13.29-14.12-19.57-33.87-18.59-53.11c2.65-51.57,52.41-88.47,102.52-74.55c9.77,2.58,19.04,6.9,27.36,12.59l-0.76,0.9
			C135.12,127.75,96.42,172.74,63.92,210.46L63.92,210.46z"/>
	</g>
	<g>
		<path class="st2" d="M82.9,222.6c33.6,14.32,74.84,2.83,99.1-23.67c14.76-16.52,22.63-40.25,17.17-62.07
			c-1.22-4.28-2.49-8.69-3.95-12.87c-2.96-8.34-8.4-15.72-14.83-21.82l1.56-0.09c-32.96,38.43-69.67,80.29-102.46,118.86
			C79.45,220.91,82.91,222.61,82.9,222.6L82.9,222.6z M82.9,222.6c0-0.01-3.46-1.65-3.44-1.66
			c32.79-38.57,68.21-81.54,100.83-120.26l0.73-0.86c3.71,3.34,7.02,7.08,9.9,11.15c4.06,5.6,6.68,12.14,8.51,18.77
			c8.75,24.08,0.79,51.79-16.41,70.12C158.14,226.08,116.62,236.96,82.9,222.6L82.9,222.6z"/>
	</g>
	<path class="st3" d="M203.52,151.52c-0.02,7.4-0.46,32.62-17.99,56.19c-3.95,5.31-12.44,16.47-28.02,24.48
		c-3.83,1.97-18.95,9.33-39.61,8.41c-26.76-1.19-44.72-15.48-51.38-20.93c-2.87-2.34-15.17-12.7-24.66-30.83
		c-3.46-6.61-10.16-19.68-11.31-37.32c-2.24-34.22,18.12-58.67,20.85-61.85c3.08-3.58,26.78-30.26,65.64-30.4
		c4.94-0.02,35.76,0.3,58.97,23.07c11.17,10.95,16.57,23.28,19.25,29.52C203.19,130.44,203.53,146.5,203.52,151.52z"/>
</g>
</svg>
