<?xml version="1.0" encoding="utf-8"?>
<!-- Generator: Adobe Illustrator 25.4.8, SVG Export Plug-In . SVG Version: 6.00 Build 0)  -->
<svg version="1.1" xmlns="http://www.w3.org/2000/svg" xmlns:xlink="http://www.w3.org/1999/xlink" x="0px" y="0px"
	 viewBox="0 0 100 100" style="enable-background:new 0 0 100 100;" xml:space="preserve">
<style type="text/css">
	.st0{fill:#FFFDF8;}
	.st1{fill:#9E9E9E;}
</style>
<g id="Layer_2">
</g>
<g id="Layer_1">
	<g>
		<path class="st0" d="M18.76,25.84c-0.07-0.75-0.7-9.63,4.53-14.54c2.66-2.49,7.11-5.71,20.69-2.18c1.5-2.01,3.91-4.62,7.35-6.32
			c5.98-2.94,14.38-2.75,19.37,3.48c2.12,2.65,3.05,5.66,3.48,7.56c1.29-0.67,6.49-3.13,12.19-0.56c0.86,0.39,8.12,3.82,9.37,12.69
			c0.66,4.7-0.69,8.61-1.35,10.25c0.54,0.83,4.52,4.98,3.51,13.7c-0.58,5-4.88,9.92-10.03,11.51c-5.31,1.64-9.49-2.07-10.1-2.63
			c-1.17,2.05-4.22,6.78-9.61,9.24c-0.61,0.28-9.5,4.15-17.12-2.07c-2.86-2.34-4.49-5.24-5.32-7.01c-1.15,1.23-4.08,4.03-8.16,4.31
			c-5.48,0.38-10.76-3.91-13.31-10.89c-0.74,0.14-6.01,1.04-9.64-3.31c-3.9-4.66-3.36-12.28-1.23-16.76
			C14.96,29.02,18.76,25.84,18.76,25.84z"/>
		<path class="st1" d="M18.76,25.84c-0.22-3.11,0.1-6.29,1.12-9.26c0.51-1.48,1.25-2.9,2.23-4.13c0.99-1.22,2.17-2.29,3.52-3.13
			c2.73-1.65,6.01-2.06,9.13-1.93c3.15,0.1,6.25,0.7,9.29,1.48l-0.27,0.1c1.98-2.66,4.49-4.98,7.51-6.45c3-1.47,6.41-2.1,9.74-1.75
			c3.33,0.33,6.57,1.79,8.95,4.19c2.38,2.41,3.83,5.57,4.56,8.81l-0.52-0.24c2.98-1.53,6.5-2.19,9.83-1.46
			c1.65,0.35,3.25,1.03,4.65,1.96c1.42,0.91,2.69,2.04,3.79,3.32c2.22,2.55,3.59,5.81,3.94,9.16c0.37,3.36-0.18,6.78-1.42,9.9
			l-0.04-0.42c1.03,1.31,2.02,2.91,2.62,4.57c0.64,1.66,0.97,3.43,1.1,5.2c0.12,1.78,0.05,3.52-0.28,5.31
			c-0.4,1.76-1.16,3.42-2.2,4.88c-1.03,1.46-2.29,2.75-3.74,3.79c-1.44,1.05-3.06,1.87-4.82,2.3c-1.76,0.46-3.65,0.35-5.36-0.2
			c-1.72-0.54-3.28-1.48-4.62-2.68l0.67-0.1c-1.71,2.97-3.98,5.65-6.8,7.65c-1.4,0.98-2.95,1.83-4.62,2.33
			c-1.65,0.51-3.36,0.8-5.08,0.86c-3.44,0.13-6.97-0.81-9.78-2.84c-2.86-1.96-4.98-4.82-6.44-7.91l0.54,0.08
			c-1.62,1.71-3.59,3.16-5.88,3.9c-2.27,0.78-4.82,0.64-7.02-0.25c-2.23-0.86-4.12-2.43-5.61-4.24c-1.52-1.81-2.61-3.93-3.44-6.13
			l0.29,0.16c-3.08,0.54-6.46-0.2-8.79-2.35c-2.35-2.11-3.53-5.22-3.82-8.28c-0.28-3.07,0.15-6.22,1.34-9.06
			c0.59-1.43,1.48-2.71,2.47-3.88C16.5,27.92,17.6,26.83,18.76,25.84z M18.76,25.84c-1.15,1.01-2.23,2.11-3.2,3.3
			c-0.97,1.18-1.84,2.46-2.4,3.88c-1.14,2.84-1.51,5.96-1.19,8.98c0.33,3.01,1.53,6.01,3.82,8c2.25,2.03,5.49,2.66,8.42,2.15
			l0.21-0.04l0.08,0.2c0.82,2.14,1.9,4.2,3.38,5.95c1.46,1.75,3.28,3.24,5.4,4.04c2.1,0.83,4.48,0.94,6.62,0.2
			c2.15-0.7,4.04-2.1,5.59-3.76l0.33-0.35l0.21,0.44c1.43,3,3.5,5.75,6.24,7.6c2.7,1.92,6.05,2.8,9.35,2.66
			c1.65-0.07,3.3-0.35,4.87-0.85c1.58-0.47,3.03-1.28,4.38-2.24c2.69-1.93,4.88-4.53,6.52-7.42l0.27-0.47l0.4,0.36
			c2.46,2.21,5.96,3.49,9.18,2.63c1.61-0.4,3.13-1.18,4.48-2.17c1.36-0.98,2.54-2.21,3.5-3.58c0.97-1.37,1.66-2.92,2.02-4.53
			c0.31-1.61,0.39-3.36,0.28-5.03c-0.2-3.4-1.34-6.62-3.53-9.33l-0.14-0.17l0.1-0.25c1.21-2.98,1.75-6.26,1.41-9.46
			c-0.33-3.2-1.61-6.28-3.7-8.72c-2.09-2.42-4.85-4.39-7.98-5.06c-3.13-0.7-6.48-0.1-9.34,1.35l-0.42,0.21l-0.1-0.45
			c-0.7-3.15-2.09-6.2-4.34-8.5c-2.25-2.3-5.33-3.71-8.54-4.05c-3.2-0.35-6.52,0.24-9.43,1.65c-2.92,1.41-5.39,3.65-7.34,6.25
			l-0.1,0.14l-0.17-0.04c-3.01-0.77-6.08-1.41-9.18-1.56c-3.08-0.17-6.29,0.18-8.97,1.75c-2.66,1.59-4.73,4.12-5.76,7.07
			C18.95,19.56,18.59,22.72,18.76,25.84z"/>
	</g>
	<g>
		<circle class="st0" cx="37.8" cy="73.88" r="7.38"/>
		<path class="st1" d="M30.94,71.15c0.7-1.81,2.14-3.31,3.93-4.08c1.77-0.8,3.87-0.87,5.71-0.16c1.84,0.69,3.4,2.15,4.2,3.97
			c0.81,1.82,0.85,3.97,0.11,5.83c-0.74,1.86-2.25,3.39-4.09,4.16c-1.84,0.78-3.97,0.76-5.78,0c-1.82-0.75-3.3-2.24-4.04-4.04
			C30.22,75.02,30.2,72.94,30.94,71.15z M30.94,71.15c-0.71,1.8-0.67,3.87,0.11,5.64c0.78,1.76,2.28,3.17,4.06,3.84
			c1.78,0.68,3.8,0.61,5.52-0.16c1.73-0.75,3.12-2.2,3.79-3.95c0.71-1.73,0.7-3.74-0.04-5.47c-0.72-1.74-2.14-3.18-3.9-3.91
			c-1.75-0.74-3.81-0.75-5.59,0C33.11,67.87,31.66,69.35,30.94,71.15z"/>
	</g>
	<g>
		<circle class="st0" cx="25.33" cy="87.64" r="5.13"/>
		<path class="st1" d="M20.56,85.74c0.48-1.26,1.48-2.31,2.72-2.85c1.23-0.56,2.7-0.62,3.99-0.14c1.29,0.48,2.39,1.49,2.97,2.77
			c0.57,1.28,0.61,2.79,0.09,4.11c-0.53,1.31-1.59,2.38-2.89,2.92c-1.3,0.54-2.79,0.52-4.06-0.03c-1.27-0.53-2.29-1.59-2.8-2.84
			C20.05,88.44,20.05,86.99,20.56,85.74z M20.56,85.74c-0.49,1.25-0.46,2.69,0.09,3.91c0.55,1.22,1.6,2.18,2.83,2.64
			c1.23,0.46,2.62,0.4,3.8-0.13c1.18-0.52,2.13-1.52,2.59-2.71c0.49-1.18,0.48-2.56-0.02-3.75c-0.48-1.2-1.45-2.2-2.67-2.71
			c-1.21-0.52-2.63-0.54-3.87-0.03C22.08,83.47,21.07,84.49,20.56,85.74z"/>
	</g>
	<g>
		<circle class="st0" cx="12.09" cy="94.32" r="3.14"/>
		<path class="st1" d="M9.18,93.16c0.57-1.57,2.51-2.45,4.1-1.81c0.79,0.29,1.45,0.91,1.8,1.69c0.34,0.78,0.36,1.69,0.05,2.49
			c-0.32,0.79-0.96,1.45-1.75,1.77c-0.78,0.33-1.69,0.32-2.47-0.01C9.32,96.66,8.51,94.69,9.18,93.16z M9.18,93.16
			c-0.3,0.77-0.28,1.65,0.05,2.39c0.33,0.75,0.97,1.34,1.73,1.62c1.52,0.61,3.39-0.23,3.94-1.74c0.64-1.47-0.14-3.37-1.66-3.97
			c-0.74-0.31-1.62-0.32-2.37-0.01C10.1,91.77,9.48,92.4,9.18,93.16z"/>
	</g>
</g>
</svg>
