<?xml version="1.0" encoding="utf-8"?>
<!-- Generator: Adobe Illustrator 25.4.8, SVG Export Plug-In . SVG Version: 6.00 Build 0)  -->
<svg version="1.1" xmlns="http://www.w3.org/2000/svg" xmlns:xlink="http://www.w3.org/1999/xlink" x="0px" y="0px"
	 viewBox="0 0 100 100" style="enable-background:new 0 0 100 100;" xml:space="preserve">
<style type="text/css">
	.st0{fill:#FFFDF8;}
</style>
<g id="Layer_2">
</g>
<g id="Layer_1">
	<path class="st0" d="M18.76,25.84c-0.07-0.75-0.7-9.63,4.53-14.54c2.66-2.49,7.11-5.71,20.69-2.18c1.5-2.01,3.91-4.62,7.35-6.32
		c5.98-2.94,14.38-2.75,19.37,3.48c2.12,2.65,3.05,5.66,3.48,7.56c1.29-0.67,6.49-3.13,12.19-0.56c0.86,0.39,8.12,3.82,9.37,12.69
		c0.66,4.7-0.69,8.61-1.35,10.25c0.54,0.83,4.52,4.98,3.51,13.7c-0.58,5-4.88,9.92-10.03,11.51c-5.31,1.64-9.49-2.07-10.1-2.63
		c-1.17,2.05-4.22,6.78-9.61,9.24c-0.61,0.28-9.5,4.15-17.12-2.07c-2.86-2.34-4.49-5.24-5.32-7.01c-1.15,1.23-4.08,4.03-8.16,4.31
		c-5.48,0.38-10.76-3.91-13.31-10.89c-0.74,0.14-6.01,1.04-9.64-3.31c-3.9-4.66-3.36-12.28-1.23-16.76
		C14.96,29.02,18.76,25.84,18.76,25.84z"/>
	<circle class="st0" cx="37.8" cy="73.88" r="7.38"/>
	<circle class="st0" cx="25.33" cy="87.64" r="5.13"/>
	<circle class="st0" cx="12.09" cy="94.32" r="3.14"/>
</g>
</svg>
